{
.appVersion = "3151";
.formatVersion = 3;
axes = (
{
name = Weight;
tag = wght;
},
{
name = Width;
tag = wdth;
},
{
name = Slant;
tag = slnt;
}
);
classes = (
{
code = "zero one two three four five six seven eight nine ";
name = Num;
},
{
code = "zero.canadian one.canadian two.canadian three.canadian four.canadian five.canadian six.canadian seven.canadian eight.canadian nine.canadian 
";
name = Num_can;
},
{

glyphs = (
{
glyphname = idotless;
lastChange = "2023-01-13 15:28:11 +0000";
layers = (
{
layerId = "86DE26EB-3058-4E6D-9480-BC9D8886A6AA";
shapes = (
{
closed = 1;
nodes = (
(197,547,l),
(51,547,l),
(51,0,l),
(197,0,l)
);
}
);
width = 248;
}
);
note = dotlessi;
unicode = 305;
},
{
glyphname = "acuteFinal-canadian";
lastChange = "2023-01-13 15:31:04 +0000";
layers = (
{
layerId = "86DE26EB-3058-4E6D-9480-BC9D8886A6AA";
shapes = (
{
closed = 1;
nodes = (
(128,357,l),
(276,714,l),
(166,714,l),
(17,357,l)
);
}
);
width = 293;
}
);
metricRight = "=|";
note = uni141F;
unicode = 5151;
},
{
glyphname = "graveFinal-canadian";
kernLeft = mwestleft;
kernRight = mwestright;
lastChange = "2023-01-13 15:31:04 +0000";
layers = (
{
layerId = "86DE26EB-3058-4E6D-9480-BC9D8886A6AA";
shapes = (
{
closed = 1;
nodes = (
(276,357,l),
(128,714,l),
(17,714,l),
(166,357,l)
);
}
);
width = 293;
}
);
metricLeft = "=|acuteFinal-canadian";
metricRight = "=|acuteFinal-canadian";
note = uni1420;
unicode = 5152;
},
{
glyphname = "ringBottomhalfFinal-canadian";
kernLeft = mwestleft;
kernRight = mwestright;
lastChange = "2023-01-13 15:28:11 +0000";
layers = (
{
layerId = "86DE26EB-3058-4E6D-9480-BC9D8886A6AA";
shapes = (
{
closed = 1;
nodes = (
(275,351,o),
(330,404,o),
(330,504,cs),
(330,714,l),
(232,714,l),
(232,499,ls),
(232,459,o),
(217,438,o),
(187,438,cs),
(157,438,o),
(143,459,o),
(143,499,cs),
(143,714,l),
(45.005,714,l),
(45,503,ls),
(45,404,o),
(101,351,o),
(187,351,cs)
);
}
);
width = 375;
}
);
metricLeft = "ai-canadian";
metricRight = "==|ai-canadian";
note = uni1421;
unicode = 5153;
},
{
glyphname = "ringTophalfFinal-canadian";
lastChange = "2023-01-13 15:28:11 +0000";
layers = (
{
layerId = "86DE26EB-3058-4E6D-9480-BC9D8886A6AA";
shapes = (
{
closed = 1;
nodes = (
(143,357,l),
(143,573,ls),
(143,612,o),
(157,633,o),
(187,633,cs),
(217,633,o),
(232,612,o),
(232,573,cs),
(232,357,l),
(330,357,l),
(330,567,ls),
(330,667,o),
(275,720,o),
(187,720,cs),
(101,720,o),
(45,667,o),
(45,568,cs),
(45.005,357,l)
);
}
);
width = 375;
}
);
metricLeft = "ai-canadian";
metricRight = "==|ai-canadian";
note = uni1422;
unicode = 5154;
},
{
glyphname = "ringRighthalfFinal-canadian";
kernLeft = mwestleft;
kernRight = mwestright;
lastChange = "2023-01-13 15:28:11 +0000";
layers = (
{
layerId = "86DE26EB-3058-4E6D-9480-BC9D8886A6AA";
shapes = (
{
closed = 1;
nodes = (
(100,357,ls),
(211,357,o),
(274,426,o),
(274,535,cs),
(274,644,o),
(211,714,o),
(100,714,cs),
(44,714,l),
(44,622,l),
(91,622,ls),
(147,622,o),
(176,590,o),
(176,535,cs),
(176,479,o),
(147,449,o),
(91,449,cs),
(44,449,l),
(44,357,l)
);
}
);
width = 315;
}
);
metricLeft = "=|t-canadian";
metricWidth = "t-canadian";
note = uni1423;
unicode = 5155;
},
{
glyphname = "ringFinal-canadian";
kernLeft = mwestleft;
kernRight = mwestright;
lastChange = "2023-01-13 15:28:11 +0000";
layers = (
{
layerId = "86DE26EB-3058-4E6D-9480-BC9D8886A6AA";
shapes = (
{
closed = 1;
nodes = (
(303,396,o),
(371,466,o),
(371,559,cs),
(371,651,o),
(302,720,o),
(207,720,cs),
(110,720,o),
(41,651,o),
(41,559,cs),
(41,466,o),
(109,396,o),
(207,396,cs)
);
},
{
closed = 1;
nodes = (
(159,479,o),
(131,513,o),
(131,559,cs),
(131,604,o),
(159,637,o),
(207,637,cs),
(252,637,o),
(281,602,o),
(281,559,cs),
(281,513,o),
(252,479,o),
(207,479,cs)
);
}
);
width = 412;
}
);
note = uni1424;
unicode = 5156;
},
{
glyphname = "doubleacuteFinal-canadian";
lastChange = "2023-01-13 15:31:04 +0000";
layers = (
{
layerId = "86DE26EB-3058-4E6D-9480-BC9D8886A6AA";
shapes = (
{
closed = 1;
nodes = (
(276,714,l),
(166,714,l),
(17,357,l),
(128,357,l)
);
},
{
closed = 1;
nodes = (
(436,714,l),
(325,714,l),
(178,357,l),
(289,357,l)
);
}
);
width = 453;
}
);
metricLeft = "acuteFinal-canadian";
metricRight = "=|";
note = uni1425;
unicode = 5157;
},
{
glyphname = "doubleshortverticalstrokesFinal-canadian";
kernLeft = mwestleft;
kernRight = mwestright;
lastChange = "2023-01-13 15:28:11 +0000";
layers = (
{
layerId = "86DE26EB-3058-4E6D-9480-BC9D8886A6AA";
shapes = (
{
closed = 1;
nodes = (
(143,714,l),
(45.005,714,l),
(45.005,357,l),
(143,357,l)
);
},
{
closed = 1;
nodes = (
(283,714,l),
(185,714,l),
(185,357,l),
(283,357,l)
);
}
);
width = 328;
}
);
metricLeft = "pWestCree-canadian";
metricRight = "pWestCree-canadian";
note = uni1426;
unicode = 5158;
},
{
glyphname = "middledotFinal-canadian";
lastChange = "2023-01-13 15:28:11 +0000";
layers = (
{
layerId = "86DE26EB-3058-4E6D-9480-BC9D8886A6AA";
shapes = (
{
closed = 1;
nodes = (
(144,297,o),
(175,328,o),
(175,367,cs),
(175,406,o),
(144,437,o),
(105,437,cs),
(67,437,o),
(36,406,o),
(36,367,cs),
(36,328,o),
(67,297,o),
(105,297,cs)
);
}
);
width = 211;
}
);
note = uni1427;
unicode = 5159;
},
{
glyphname = "shorthorizontalstrokeFinal-canadian";
kernLeft = mwestleft;
kernRight = mwestright;
lastChange = "2023-01-13 15:28:11 +0000";
layers = (
{
layerId = "86DE26EB-3058-4E6D-9480-BC9D8886A6AA";
shapes = (
{
closed = 1;
nodes = (
(333,507,l),
(333,606,l),
(45,606,l),
(45,507,l)
);
}
);
width = 378;
}
);
metricRight = "=|";
note = uni1428;
unicode = 5160;
},
{
glyphname = "plusFinal-canadian";
kernLeft = mwestleft;
kernRight = mwestright;
lastChange = "2023-01-13 15:28:11 +0000";
layers = (
{
layerId = "86DE26EB-3058-4E6D-9480-BC9D8886A6AA";
shapes = (
{
closed = 1;
nodes = (
(236,407,l),
(236,516,l),
(333,516,l),
(333,608,l),
(236,608,l),
(236,714,l),
(144,714,l),
(144,608,l),
(45,608,l),
(45,516,l),
(144,516,l),
(144,407,l)
);
}
);
width = 378;
}
);
metricLeft = "shorthorizontalstrokeFinal-canadian";
metricRight = "shorthorizontalstrokeFinal-canadian";
note = uni1429;
unicode = 5161;
},
{
glyphname = "downtackFinal-canadian";
kernLeft = mwestleft;
kernRight = mwestright;
lastChange = "2023-01-13 15:28:11 +0000";
layers = (
{
layerId = "86DE26EB-3058-4E6D-9480-BC9D8886A6AA";
shapes = (
{
closed = 1;
nodes = (
(238,357,l),
(238,621,l),
(333,621,l),
(333,714,l),
(45,714,l),
(45,621,l),
(141,621,l),
(141,357,l)
);
}
);
width = 378;
}
);
metricLeft = "shorthorizontalstrokeFinal-canadian";
metricRight = "shorthorizontalstrokeFinal-canadian";
note = uni142A;
unicode = 5162;
},
{
glyphname = "thFinalWoodScree-canadian";
lastChange = "2023-01-13 15:28:11 +0000";
layers = (
{
layerId = "86DE26EB-3058-4E6D-9480-BC9D8886A6AA";
shapes = (
{
closed = 1;
nodes = (
(238,357,l),
(238,419,l),
(333,419,l),
(333,501,l),
(238,501,l),
(238,570,l),
(333,570,l),
(333,652,l),
(238,652,l),
(238,714,l),
(141,714,l),
(141,652,l),
(45,652,l),
(45,570,l),
(141,570,l),
(141,501,l),
(45,501,l),
(45,419,l),
(141,419,l),
(141,357,l)
);
}
);
width = 378;
}
);
metricLeft = "hyphen-canadian";
metricRight = "hyphen-canadian";
note = uni167E;
unicode = 5758;
},
{
glyphname = "ringSmallFinal-canadian";
kernLeft = mwestleft;
kernRight = mwestright;
lastChange = "2023-01-13 15:28:11 +0000";
layers = (
{
layerId = "86DE26EB-3058-4E6D-9480-BC9D8886A6AA";
shapes = (
{
closed = 1;
nodes = (
(210,517,o),
(260,562,o),
(260,623,cs),
(260,684,o),
(210,728,o),
(152,728,cs),
(95,728,o),
(45,685,o),
(45,623,cs),
(45,562,o),
(94,517,o),
(152,517,cs)
);
},
{
closed = 1;
nodes = (
(126,577,o),
(108,598,o),
(108,623,cs),
(108,648,o),
(126,669,o),
(153,669,cs),
(179,669,o),
(197,648,o),
(197,623,cs),
(197,598,o),
(179,577,o),
(153,577,cs)
);
}
);
width = 305;
}
);
note = g725;
unicode = 6366;
},
{
glyphname = "raiseddotFinal-canadian";
kernLeft = mwestleft;
kernRight = mwestright;
lastChange = "2023-01-13 15:28:11 +0000";
layers = (
{
layerId = "86DE26EB-3058-4E6D-9480-BC9D8886A6AA";
shapes = (
{
closed = 1;
nodes = (
(145,589,o),
(176,620,o),
(176,659,cs),
(176,697,o),
(145,728,o),
(106,728,cs),
(68,728,o),
(37,697,o),
(37,659,cs),
(37,620,o),
(68,589,o),
(106,589,cs)
);
}
);
width = 213;
}
);
note = g725;
unicode = 6367;
},
{
glyphname = "plusFinal-canadian.base";
lastChange = "2023-01-13 15:28:11 +0000";
layers = (
{
layerId = "86DE26EB-3058-4E6D-9480-BC9D8886A6AA";
shapes = (
{
closed = 1;
nodes = (
(236,0,l),
(236,109,l),
(333,109,l),
(333,201,l),
(236,201,l),
(236,307,l),
(144,307,l),
(144,201,l),
(45,201,l),
(45,109,l),
(144,109,l),
(144,0,l)
);
}
);
width = 378;
}
);
metricLeft = "shorthorizontalstrokeFinal-canadian";
metricRight = "shorthorizontalstrokeFinal-canadian";
note = uni1429;
},
{
glyphname = "e-canadian";
kernLeft = ecanleft;
kernRight = ecanright;
lastChange = "2023-01-13 15:28:11 +0000";
layers = (
{
anchors = (
{
name = middle_center_can;
pos = (319,470);
},
{
name = top_center_can;
pos = (319,714);
},
{
name = top_left_can;
pos = (123,714);
},
{
name = top_right_can;
pos = (515,714);
}
);
layerId = "86DE26EB-3058-4E6D-9480-BC9D8886A6AA";
shapes = (
{
closed = 1;
nodes = (
(339,0,l),
(617,678,l),
(617,714,l),
(19,714,l),
(19,678,l),
(297,0,l)
);
},
{
closed = 1;
nodes = (
(352,177,l),
(176,626,l),
(150,597,l),
(483,597,l),
(463,626,l),
(287,177,l)
);
}
);
width = 636;
}
);
metricRight = "=|";
note = uni1401;
unicode = 5121;
},
{
glyphname = "i-canadian";
kernLeft = icanleft;
kernRight = icanright;
lastChange = "2023-01-13 15:28:11 +0000";
layers = (
{
anchors = (
{
name = middle_center_can;
pos = (317,301);
},
{
name = top_center_can;
pos = (318,714);
},
{
name = top_left_can;
pos = (122,714);
},
{
name = top_right_can;
pos = (514,714);
}
);
layerId = "86DE26EB-3058-4E6D-9480-BC9D8886A6AA";
shapes = (
{
closed = 1;
nodes = (
(617,0,l),
(617,36,l),
(339,714,l),
(297,714,l),
(19,36,l),
(19,0,l)
);
},
{
closed = 1;
nodes = (
(350,537,l),
(284,537,l),
(461,88,l),
(481,117,l),
(149,117,l),
(173,88,l)
);
}
);
width = 636;
}
);
metricLeft = "e-canadian";
metricWidth = "e-canadian";
note = uni1403;
unicode = 5123;
},
{
glyphname = "o-canadian";
kernLeft = ocanleft;
kernRight = ocanright;
lastChange = "2023-01-13 15:28:11 +0000";
layers = (
{
anchors = (
{
name = middle_center_can;
pos = (245,357);
},
{
name = top_center_can;
pos = (303,714);
},
{
name = top_double;
pos = (404,714);
},
{
name = top_left_can;
pos = (110,714);
},
{
name = top_right_can;
pos = (506,714);
}
);
layerId = "86DE26EB-3058-4E6D-9480-BC9D8886A6AA";
shapes = (
{
closed = 1;
nodes = (
(88,0,l),
(565,334,l),
(565,380,l),
(88,714,l),
(53,714,l),
(53,0,l)
);
},
{
closed = 1;
nodes = (
(174,550,l),
(143,535,l),
(433,330,l),
(433,387,l),
(143,181,l),
(174,164,l)
);
}
);
width = 592;
}
);
metricLeft = "nunavuth-canadian";
note = uni1405;
unicode = 5125;
},
{
glyphname = "eeCarrier-canadian";
lastChange = "2023-01-13 15:28:11 +0000";
layers = (
{
layerId = "86DE26EB-3058-4E6D-9480-BC9D8886A6AA";
shapes = (
{
closed = 1;
nodes = (
(88,0,l),
(565,334,l),
(565,380,l),
(88,714,l),
(53,714,l),
(53,0,l)
);
},
{
closed = 1;
nodes = (
(164,550,l),
(143,545,l),
(433,339,l),
(433,377,l),
(143,171,l),
(164,164,l)
);
},
{
closed = 1;
nodes = (
(262,425,l),
(215,425,l),
(215,289,l),
(262,289,l)
);
}
);
width = 592;
}
);
metricLeft = "nunavuth-canadian";
metricRight = "o-canadian";
note = uni1408;
unicode = 5128;
},
{
glyphname = "a-canadian";
kernLeft = acanleft;
kernRight = acanright;
lastChange = "2023-01-13 15:28:11 +0000";
layers = (
{
anchors = (
{
name = middle_center_can;
pos = (346,357);
},
{
name = top_center_can;
pos = (258,714);
},
{
name = top_left_can;
pos = (96,714);
},
{
name = top_right_can;
pos = (476,714);
}
);
layerId = "86DE26EB-3058-4E6D-9480-BC9D8886A6AA";
shapes = (
{
closed = 1;
nodes = (
(539,0,l),
(539,714,l),
(505,714,l),
(27,380,l),
(27,334,l),
(505,0,l)
);
},
{
closed = 1;
nodes = (
(449,180,l),
(159,385,l),
(159,328,l),
(449,534,l),
(419,550,l),
(419,164,l)
);
}
);
width = 592;
}
);
metricRight = "nunavuth-canadian";
note = uni140A;
unicode = 5130;
},
{
glyphname = "ai-canadian";
lastChange = "2023-01-13 15:28:11 +0000";
layers = (
{
layerId = "86DE26EB-3058-4E6D-9480-BC9D8886A6AA";
shapes = (
{
closed = 1;
nodes = (
(225,351,o),
(255,373,o),
(281,424,c),
(252,424,l),
(276,372,o),
(309,351,o),
(359,351,cs),
(436,351,o),
(487,399,o),
(487,497,cs),
(487,714,l),
(396,714,l),
(396,500,ls),
(396,453,o),
(380,437,o),
(354,437,cs),
(327,437,o),
(311,455,o),
(311,500,cs),
(311,714,l),
(221,714,l),
(221,500,ls),
(221,454,o),
(204,437,o),
(178,437,cs),
(151,437,o),
(136,456,o),
(136,500,cs),
(136,714,l),
(45.005,714,l),
(45,497,ls),
(45,399,o),
(97,351,o),
(174,351,cs)
);
}
);
width = 532;
}
);
metricRight = "=|";
note = uni141C;
unicode = 5148;
},
{
glyphname = "ycreew-canadian";
lastChange = "2023-01-13 15:31:04 +0000";
layers = (
{
layerId = "86DE26EB-3058-4E6D-9480-BC9D8886A6AA";
shapes = (
{
closed = 1;
nodes = (
(300,528,o),
(331,565,o),
(331,625,cs),
(331,685,o),
(299,720,o),
(255,720,cs),
(211,720,o),
(179,685,o),
(179,625,cs),
(179,565,o),
(210,528,o),
(255,528,cs)
);
},
{
closed = 1;
nodes = (
(164,351,o),
(195,388,o),
(195,448,cs),
(195,508,o),
(163,543,o),
(119,543,cs),
(75,543,o),
(44,508,o),
(44,448,cs),
(44,388,o),
(74,351,o),
(119,351,cs)
);
},
{
closed = 1;
nodes = (
(103,398,o),
(92,413,o),
(92,448,cs),
(92,482,o),
(103,496,o),
(119,496,cs),
(136,496,o),
(147,482,o),
(147,448,cs),
(147,413,o),
(136,398,o),
(119,398,cs)
);
},
{
closed = 1;
nodes = (
(238,575,o),
(228,590,o),
(228,625,cs),
(228,659,o),
(238,673,o),
(255,673,cs),
(272,673,o),
(282,659,o),
(282,625,cs),
(282,590,o),
(272,575,o),
(255,575,cs)
);
}
);
width = 375;
}
);
metricRight = "=|";
note = uni141D;
unicode = 5149;
},
{
glyphname = "glottalstop-canadian";
lastChange = "2023-01-13 15:28:11 +0000";
layers = (
{
layerId = "86DE26EB-3058-4E6D-9480-BC9D8886A6AA";
shapes = (
{
closed = 1;
nodes = (
(336,357,l),
(336,376,l),
(198,714,l),
(176,714,l),
(37,376,l),
(37,357,l)
);
},
{
closed = 1;
nodes = (
(209,617,l),
(165,617,l),
(248,401,l),
(262,429,l),
(113,429,l),
(125,401,l)
);
}
);
width = 373;
}
);
metricRight = "=|";
note = uni141E;
unicode = 5150;
},
{
glyphname = "pe-canadian";
kernLeft = ecanleft;
kernRight = ecanright;
lastChange = "2023-01-13 15:28:11 +0000";
layers = (
{
anchors = (
{
name = middle_center_can;
pos = (319,470);
},
{
name = top_center_can;
pos = (319,714);
},
{
name = top_left_can;
pos = (123,714);
},
{
name = top_right_can;
pos = (515,714);
}
);
layerId = "86DE26EB-3058-4E6D-9480-BC9D8886A6AA";
shapes = (
{
closed = 1;
nodes = (
(339,0,l),
(617,678,l),
(617,714,l),
(487,714,l),
(273,174,l),
(368,174,l),
(154,714,l),
(19,714,l),
(19,678,l),
(297,0,l)
);
}
);
width = 636;
}
);
metricLeft = "e-canadian";
metricRight = "e-canadian";
note = uni142F;
unicode = 5167;
},
{
glyphname = "pi-canadian";
kernLeft = icanleft;
kernRight = icanright;
lastChange = "2023-01-13 15:28:11 +0000";
layers = (
{
anchors = (
{
name = middle_center_can;
pos = (318,301);
},
{
name = top_center_can;
pos = (318,714);
},
{
name = top_left_can;
pos = (122,714);
},
{
name = top_right_can;
pos = (514,714);
}
);
layerId = "86DE26EB-3058-4E6D-9480-BC9D8886A6AA";
shapes = (
{
closed = 1;
nodes = (
(152,0,l),
(365,540,l),
(270,540,l),
(483.992,0,l),
(617,0,l),
(617,36,l),
(339,714,l),
(297,714,l),
(19,36,l),
(19,0,l)
);
}
);
width = 636;
}
);
metricLeft = "e-canadian";
metricRight = "e-canadian";
note = uni1431;
unicode = 5169;
},
{
glyphname = "po-canadian";
kernLeft = ocanleft;
kernRight = ocanright;
lastChange = "2023-01-13 15:28:11 +0000";
layers = (
{
anchors = (
{
name = middle_center_can;
pos = (153,357);
},
{
name = top_center_can;
pos = (285,714);
},
{
name = top_double;
pos = (398,714);
},
{
name = top_left_can;
pos = (99,714);
},
{
name = top_right_can;
pos = (487,714);
}
);
layerId = "86DE26EB-3058-4E6D-9480-BC9D8886A6AA";
shapes = (
{
closed = 1;
nodes = (
(70,0,l),
(546,334,l),
(546,380,l),
(70,714,l),
(36,714,l),
(36,576,l),
(394,325,l),
(394,391,l),
(36,140,l),
(36,0,l)
);
}
);
width = 573;
}
);
metricRight = "o-canadian";
note = uni1433;
unicode = 5171;
},
{
glyphname = "pa-canadian";
kernLeft = acanleft;
kernRight = acanright;
lastChange = "2023-01-13 15:28:11 +0000";
layers = (
{
anchors = (
{
name = middle_center_can;
pos = (368,357);
},
{
name = top_center_can;
pos = (290,714);
},
{
name = top_left_can;
pos = (97,714);
},
{
name = top_right_can;
pos = (475,714);
}
);
layerId = "86DE26EB-3058-4E6D-9480-BC9D8886A6AA";
shapes = (
{
closed = 1;
nodes = (
(537,0,l),
(537,138,l),
(179,389,l),
(179,323,l),
(537,574,l),
(537,714,l),
(503,714,l),
(27,380,l),
(27,334,l),
(503,0,l)
);
}
);
width = 573;
}
);
metricRight = "=|po-canadian";
note = uni1438;
unicode = 5176;
},
{
glyphname = "p-canadian";
kernLeft = mwestleft;
kernRight = mwestright;
lastChange = "2023-01-13 15:28:11 +0000";
layers = (
{
layerId = "86DE26EB-3058-4E6D-9480-BC9D8886A6AA";
shapes = (
{
closed = 1;
nodes = (
(295,357,l),
(295,448,l),
(122,572,l),
(122,498,l),
(295,621,l),
(295,714,l),
(278,714,l),
(45,548,l),
(45,524,l),
(278,357,l)
);
}
);
width = 340;
}
);
note = uni1449;
unicode = 5193;
},
{
glyphname = "pWestCree-canadian";
kernLeft = mwestleft;
kernRight = mwestright;
lastChange = "2023-01-13 15:28:11 +0000";
layers = (
{
layerId = "86DE26EB-3058-4E6D-9480-BC9D8886A6AA";
shapes = (
{
closed = 1;
nodes = (
(143,357,l),
(143,714,l),
(45.005,714,l),
(45.005,357,l)
);
}
);
width = 188;
}
);
metricRight = "=|";
note = uni144A;
unicode = 5194;
},
{
color = 6;
glyphname = "hCarrier-canadian";
lastChange = "2023-01-13 15:28:11 +0000";
layers = (
{
layerId = "86DE26EB-3058-4E6D-9480-BC9D8886A6AA";
shapes = (
{
closed = 1;
nodes = (
(143,189,l),
(143,315,ls),
(143,346,o),
(155,365,o),
(180,365,cs),
(203,365,o),
(214,348,o),
(214,319,cs),
(214,189,l),
(311,189,l),
(311,335,ls),
(311,421,o),
(256,452,o),
(208,452,cs),
(163,452,o),
(131,426,o),
(123,394,c),
(143,375,l),
(143,546,l),
(45.005,546,l),
(45.005,189,l)
);
}
);
width = 342;
}
);
metricLeft = "pWestCree-canadian";
note = uni144B;
unicode = 5195;
},
{
glyphname = "te-canadian";
lastChange = "2023-01-13 15:31:04 +0000";
layers = (
{
anchors = (
{
name = middle_center_can;
pos = (320,357);
},
{
name = top_center_can;
pos = (320,714);
},
{
name = top_left_can;
pos = (125,714);
},
{
name = top_right_can;
pos = (517,714);
}
);
layerId = "86DE26EB-3058-4E6D-9480-BC9D8886A6AA";
shapes = (
{
closed = 1;
nodes = (
(494,-14,o),
(590,88,o),
(590,281,cs),
(590,714,l),
(443,714,l),
(443,282,ls),
(443,169,o),
(401,121,o),
(320,121,cs),
(242,121,o),
(198,172,o),
(198,282,cs),
(198,714,l),
(50,714,l),
(50,280,ls),
(50,88,o),
(150,-14,o),
(321,-14,cs)
);
}
);
width = 640;
}
);
metricRight = "=|";
note = uni144C;
unicode = 5196;
},
{
glyphname = "ti-canadian";
lastChange = "2023-01-13 15:31:04 +0000";
layers = (
{
anchors = (
{
name = middle_center_can;
pos = (320,357);
},
{
name = middle_right_can;
pos = (716,357);
},
{
name = top_center_can;
pos = (320,714);
},
{
name = top_left_can;
pos = (125,714);
},
{
name = top_right_can;
pos = (517,714);
}
);
layerId = "86DE26EB-3058-4E6D-9480-BC9D8886A6AA";
shapes = (
{
closed = 1;
nodes = (
(198,0,l),
(198,432,ls),
(198,544,o),
(240,593,o),
(321,593,cs),
(399,593,o),
(443,542,o),
(443,432,cs),
(443,0,l),
(590,0,l),
(590,434,ls),
(590,626,o),
(492,728,o),
(321,728,cs),
(154,728,o),
(50,626,o),
(50,434,cs),
(50,0,l)
);
}
);
width = 640;
}
);
metricLeft = "te-canadian";
metricRight = "te-canadian";
note = uni144E;
unicode = 5198;
},
{
glyphname = "to-canadian";
kernLeft = toleft;
lastChange = "2023-01-13 15:28:11 +0000";
layers = (
{
anchors = (
{
name = middle_center_can;
pos = (194,357);
},
{
name = middle_right_can;
pos = (620,357);
},
{
name = top_center_can;
pos = (244,714);
},
{
name = top_double;
pos = (320,714);
},
{
name = top_left_can;
pos = (101,714);
},
{
name = top_right_can;
pos = (432,714);
}
);
layerId = "86DE26EB-3058-4E6D-9480-BC9D8886A6AA";
shapes = (
{
closed = 1;
nodes = (
(153,0,ls),
(370,0,o),
(495,120,o),
(495,358,cs),
(495,596,o),
(370,714,o),
(151,714,cs),
(38,714,l),
(38,580,l),
(151,580,ls),
(276,580,o),
(348,515,o),
(348,358,cs),
(348,201,o),
(276,134,o),
(153,134,cs),
(38,134,l),
(38,0,l)
);
}
);
width = 540;
}
);
note = uni1450;
unicode = 5200;
},
{
glyphname = "ta-canadian";
kernRight = taright;
lastChange = "2023-01-13 15:31:04 +0000";
layers = (
{
anchors = (
{
name = middle_center_can;
pos = (347,357);
},
{
name = top_center_can;
pos = (297,714);
},
{
name = top_left_can;
pos = (109,714);
},
{
name = top_right_can;
pos = (439,714);
}
);
layerId = "86DE26EB-3058-4E6D-9480-BC9D8886A6AA";
shapes = (
{
closed = 1;
nodes = (
(502,0,l),
(502,134,l),
(389,134,ls),
(265,134,o),
(193,199,o),
(193,356,cs),
(193,513,o),
(265,580,o),
(388,580,cs),
(502,580,l),
(502,714,l),
(388,714,ls),
(170,714,o),
(45,594,o),
(45,356,cs),
(45,119,o),
(170,0,o),
(389,0,cs)
);
}
);
width = 540;
}
);
metricLeft = "=|to-canadian";
metricRight = "=|to-canadian";
note = uni1455;
unicode = 5205;
},
{
glyphname = "t-canadian";
kernLeft = mwestleft;
kernRight = mwestright;
lastChange = "2023-01-13 15:28:11 +0000";
layers = (
{
layerId = "86DE26EB-3058-4E6D-9480-BC9D8886A6AA";
shapes = (
{
closed = 1;
nodes = (
(271,357,l),
(271,449,l),
(223,449,ls),
(168,449,o),
(139,479,o),
(139,535,cs),
(139,590,o),
(168,622,o),
(223,622,cs),
(271,622,l),
(271,714,l),
(214,714,ls),
(103,714,o),
(41,644,o),
(41,535,cs),
(41,426,o),
(103,357,o),
(214,357,cs)
);
}
);
width = 315;
}
);
note = uni1466;
unicode = 5222;
},
{
glyphname = "ke-canadian";
lastChange = "2023-01-13 15:28:11 +0000";
layers = (
{
anchors = (
{
name = middle_center_can;
pos = (265,457);
},
{
name = top_center_can;
pos = (260,714);
},
{
name = top_left_can;
pos = (112,714);
},
{
name = top_right_can;
pos = (406,714);
}
);
layerId = "86DE26EB-3058-4E6D-9480-BC9D8886A6AA";
shapes = (
{
closed = 1;
nodes = (
(479.002,0,l),
(479,456,ls),
(479,629,o),
(403,728,o),
(264,728,cs),
(125,728,o),
(40,626,o),
(40,457,cs),
(40,297,o),
(120,193,o),
(239,193,cs),
(294,193,o),
(335,226,o),
(345,262,c),
(332,284,l),
(332,0,l)
);
},
{
closed = 1;
nodes = (
(215,318,o),
(184,360,o),
(184,461,cs),
(184,562,o),
(212,604,o),
(259,604,cs),
(306,604,o),
(335,563,o),
(335,461,cs),
(335,359,o),
(304,318,o),
(259,318,cs)
);
}
);
width = 529;
}
);
metricRight = "te-canadian";
note = uni146B;
unicode = 5227;
},
{
glyphname = "ki-canadian";
lastChange = "2023-01-13 15:31:04 +0000";
layers = (
{
anchors = (
{
name = middle_center_can;
pos = (275,457);
},
{
name = top_center_can;
pos = (270,714);
},
{
name = top_left_can;
pos = (124,714);
},
{
name = top_right_can;
pos = (418,714);
}
);
layerId = "86DE26EB-3058-4E6D-9480-BC9D8886A6AA";
shapes = (
{
closed = 1;
nodes = (
(198,0,l),
(198,284,l),
(185,262,l),
(194,226,o),
(235,193,o),
(291,193,cs),
(410,193,o),
(490,298,o),
(490,458,cs),
(490,626,o),
(405,728,o),
(270,728,cs),
(127,728,o),
(50,623,o),
(50,456,cs),
(50,0,l)
);
},
{
closed = 1;
nodes = (
(226,318,o),
(195,359,o),
(195,461,cs),
(195,563,o),
(223,604,o),
(270,604,cs),
(317,604,o),
(345,562,o),
(345,461,cs),
(345,360,o),
(315,318,o),
(270,318,cs)
);
}
);
width = 530;
}
);
metricLeft = "te-canadian";
metricRight = "=|ke-canadian";
note = uni146D;
unicode = 5229;
},
{
glyphname = "ko-canadian";
lastChange = "2023-01-13 15:28:11 +0000";
layers = (
{
anchors = (
{
name = middle_center_can;
pos = (265,309);
},
{
name = top_center_can;
pos = (260,714);
},
{
name = top_double;
pos = (406,714);
},
{
name = top_left_can;
pos = (112,714);
},
{
name = top_right_can;
pos = (406,714);
}
);
layerId = "86DE26EB-3058-4E6D-9480-BC9D8886A6AA";
shapes = (
{
closed = 1;
nodes = (
(401,-14,o),
(479,85,o),
(479,258,cs),
(479.002,714,l),
(332,714,l),
(332,430,l),
(345,452,l),
(335,488,o),
(294,521,o),
(239,521,cs),
(120,521,o),
(40,416,o),
(40,250,cs),
(40,88,o),
(121,-14,o),
(262,-14,cs)
);
},
{
closed = 1;
nodes = (
(212,110,o),
(184,152,o),
(184,253,cs),
(184,354,o),
(215,396,o),
(259,396,cs),
(304,396,o),
(335,355,o),
(335,253,cs),
(335,151,o),
(306,110,o),
(259,110,cs)
);
}
);
width = 529;
}
);
metricLeft = "ke-canadian";
metricRight = "te-canadian";
note = uni146F;
unicode = 5231;
},
{
glyphname = "ka-canadian";
lastChange = "2023-01-13 15:31:04 +0000";
layers = (
{
anchors = (
{
name = middle_center_can;
pos = (275,313);
},
{
name = top_center_can;
pos = (270,714);
},
{
name = top_left_can;
pos = (124,714);
},
{
name = top_right_can;
pos = (418,714);
}
);
layerId = "86DE26EB-3058-4E6D-9480-BC9D8886A6AA";
shapes = (
{
closed = 1;
nodes = (
(404,-14,o),
(490,88,o),
(490,257,cs),
(490,416,o),
(410,521,o),
(292,521,cs),
(236,521,o),
(195,488,o),
(185,452,c),
(198,430,l),
(198,714,l),
(50,714,l),
(50,258,ls),
(50,85,o),
(126,-14,o),
(266,-14,cs)
);
},
{
closed = 1;
nodes = (
(223,110,o),
(195,151,o),
(195,253,cs),
(195,355,o),
(226,396,o),
(270,396,cs),
(315,396,o),
(345,354,o),
(345,253,cs),
(345,152,o),
(317,110,o),
(270,110,cs)
);
}
);
width = 530;
}
);
metricLeft = "te-canadian";
metricRight = "==|ke-canadian";
note = uni1472;
unicode = 5234;
},
{
glyphname = "k-canadian";
kernLeft = mwestleft;
kernRight = mwestright;
lastChange = "2023-01-13 15:28:11 +0000";
layers = (
{
layerId = "86DE26EB-3058-4E6D-9480-BC9D8886A6AA";
shapes = (
{
closed = 1;
nodes = (
(238,351,o),
(293,396,o),
(293,492,cs),
(293,575,o),
(249,622,o),
(191,622,cs),
(155,622,o),
(127,599,o),
(122,565,c),
(143,565,l),
(143,714,l),
(45.005,714,l),
(45,487,ls),
(45,404,o),
(90,351,o),
(171,351,cs)
);
},
{
closed = 1;
nodes = (
(149,422,o),
(135,438,o),
(135,486,cs),
(135,534,o),
(150,551,o),
(170,551,cs),
(190,551,o),
(206,535,o),
(206,486,cs),
(206,438,o),
(190,422,o),
(170,422,cs)
);
}
);
width = 328;
}
);
note = uni1483;
unicode = 5251;
},
{
glyphname = "kw-canadian";
kernLeft = mwestleft;
kernRight = mwestright;
lastChange = "2023-01-13 15:28:11 +0000";
layers = (
{
layerId = "86DE26EB-3058-4E6D-9480-BC9D8886A6AA";
shapes = (
{
closed = 1;
nodes = (
(237,351,o),
(283,404,o),
(283,487,cs),
(283,714,l),
(185,714,l),
(185,565,l),
(206,565,l),
(200,599,o),
(173,622,o),
(136,622,cs),
(79,622,o),
(35,575,o),
(35,492,cs),
(35,396,o),
(89,351,o),
(157,351,cs)
);
},
{
closed = 1;
nodes = (
(138,422,o),
(122,438,o),
(122,486,cs),
(122,535,o),
(138,551,o),
(158,551,cs),
(177,551,o),
(193,534,o),
(193,486,cs),
(193,438,o),
(178,422,o),
(158,422,cs)
);
}
);
width = 328;
}
);
metricLeft = "=|k-canadian";
metricRight = "=|k-canadian";
note = uni1484;
unicode = 5252;
},
{
glyphname = "ce-canadian";
kernLeft = celeft;
lastChange = "2023-01-13 15:31:04 +0000";
layers = (
{
anchors = (
{
name = middle_center_can;
pos = (259,384);
},
{
name = top_center_can;
pos = (256,714);
},
{
name = top_left_can;
pos = (111,714);
},
{
name = top_right_can;
pos = (397,714);
}
);
layerId = "86DE26EB-3058-4E6D-9480-BC9D8886A6AA";
shapes = (
{
closed = 1;
nodes = (
(470,0,l),
(470,467,ls),
(470,631,o),
(395,728,o),
(256,728,cs),
(120,728,o),
(37,637,o),
(37,468,cs),
(37,395,l),
(183,395,l),
(183,494,ls),
(183,563,o),
(207,600,o),
(254,600,cs),
(298,600,o),
(323,565,o),
(323,492,cs),
(323,0,l)
);
}
);
width = 520;
}
);
metricRight = "te-canadian";
note = uni1489;
unicode = 5257;
},
{
glyphname = "ci-canadian";
kernRight = ciright;
lastChange = "2023-01-13 15:28:11 +0000";
layers = (
{
anchors = (
{
name = middle_center_can;
pos = (271,384);
},
{
name = top_center_can;
pos = (269,714);
},
{
name = top_left_can;
pos = (125,714);
},
{
name = top_right_can;
pos = (411,714);
}
);
layerId = "86DE26EB-3058-4E6D-9480-BC9D8886A6AA";
shapes = (
{
closed = 1;
nodes = (
(198,0,l),
(198,492,ls),
(198,565,o),
(223,600,o),
(268,600,cs),
(314,600,o),
(338,563,o),
(338,494,cs),
(338,395,l),
(484,395,l),
(484,468,ls),
(484,637,o),
(402,728,o),
(269,728,cs),
(125,728,o),
(50,630,o),
(50,467,cs),
(50,0,l)
);
}
);
width = 521;
}
);
metricLeft = "te-canadian";
metricRight = "=|ce-canadian";
note = uni148B;
unicode = 5259;
},
{
glyphname = "co-canadian";
kernLeft = coleft;
lastChange = "2023-01-13 15:31:04 +0000";
layers = (
{
anchors = (
{
name = middle_center_can;
pos = (259,384);
},
{
name = top_center_can;
pos = (255,714);
},
{
name = top_double;
pos = (397,714);
},
{
name = top_left_can;
pos = (111,714);
},
{
name = top_right_can;
pos = (397,714);
}
);
layerId = "86DE26EB-3058-4E6D-9480-BC9D8886A6AA";
shapes = (
{
closed = 1;
nodes = (
(395,-14,o),
(470,83,o),
(470,247,cs),
(470,714,l),
(323,714,l),
(323,222,ls),
(323,149,o),
(298,114,o),
(254,114,cs),
(207,114,o),
(183,151,o),
(183,221,cs),
(183,319,l),
(37,319,l),
(37,246,ls),
(37,77,o),
(118,-14,o),
(258,-14,cs)
);
}
);
width = 520;
}
);
metricLeft = "ce-canadian";
metricRight = "te-canadian";
note = uni148D;
unicode = 5261;
},
{
glyphname = "ca-canadian";
kernRight = caright;
lastChange = "2023-01-13 15:28:11 +0000";
layers = (
{
anchors = (
{
name = middle_center_can;
pos = (271,384);
},
{
name = top_center_can;
pos = (269,714);
},
{
name = top_left_can;
pos = (125,714);
},
{
name = top_right_can;
pos = (411,714);
}
);
layerId = "86DE26EB-3058-4E6D-9480-BC9D8886A6AA";
shapes = (
{
closed = 1;
nodes = (
(402,-14,o),
(484,77,o),
(484,246,cs),
(484,319,l),
(338,319,l),
(338,221,ls),
(338,151,o),
(314,114,o),
(267,114,cs),
(223,114,o),
(198,149,o),
(198,223,cs),
(198,714,l),
(50,714,l),
(50,247,ls),
(50,83,o),
(125,-14,o),
(266,-14,cs)
);
}
);
width = 521;
}
);
metricLeft = "te-canadian";
metricRight = "=|ce-canadian";
note = uni1490;
unicode = 5264;
},
{
glyphname = "c-canadian";
kernLeft = mwestleft;
kernRight = mwestright;
lastChange = "2023-01-13 15:28:11 +0000";
layers = (
{
layerId = "86DE26EB-3058-4E6D-9480-BC9D8886A6AA";
shapes = (
{
closed = 1;
nodes = (
(247,351,o),
(295,399,o),
(295,483,cs),
(295,507,l),
(205,507,l),
(205,468,ls),
(205,443,o),
(192,427,o),
(173,427,cs),
(152,427,o),
(143,442,o),
(143,470,cs),
(143,714,l),
(45.005,714,l),
(45,487,ls),
(45,398,o),
(89,351,o),
(171,351,cs)
);
}
);
width = 319;
}
);
note = uni14A1;
unicode = 5281;
},
{
glyphname = "thSayisi-canadian";
lastChange = "2023-01-13 15:28:11 +0000";
layers = (
{
layerId = "86DE26EB-3058-4E6D-9480-BC9D8886A6AA";
shapes = (
{
closed = 1;
nodes = (
(230,351,o),
(274,398,o),
(274,487,cs),
(274,714,l),
(176,714,l),
(176,470,ls),
(176,442,o),
(167,427,o),
(146,427,cs),
(126,427,o),
(114,443,o),
(114,468,cs),
(114,507,l),
(24,507,l),
(24,483,ls),
(24,399,o),
(72,351,o),
(152,351,cs)
);
}
);
width = 319;
}
);
metricLeft = "=|c-canadian";
metricRight = "=|c-canadian";
note = uni14A2;
unicode = 5282;
},
{
glyphname = "me-canadian";
kernLeft = meleft;
lastChange = "2023-01-13 15:28:11 +0000";
layers = (
{
anchors = (
{
name = middle_center_can;
pos = (159,357);
},
{
name = top_center_can;
pos = (236,714);
},
{
name = top_left_can;
pos = (105,714);
},
{
name = top_right_can;
pos = (359,714);
}
);
layerId = "86DE26EB-3058-4E6D-9480-BC9D8886A6AA";
shapes = (
{
closed = 1;
nodes = (
(433,0,l),
(433,714,l),
(32,714,l),
(32,580,l),
(285,580,l),
(285,0,l)
);
}
);
width = 486;
}
);
metricRight = "nunavuth-canadian";
note = uni14A3;
unicode = 5283;
},
{
glyphname = "mi-canadian";
kernRight = miright;
lastChange = "2023-01-13 15:28:11 +0000";
layers = (
{
anchors = (
{
name = middle_center_can;
pos = (328,357);
},
{
name = top_center_can;
pos = (254,714);
},
{
name = top_left_can;
pos = (127,714);
},
{
name = top_right_can;
pos = (381,714);
}
);
layerId = "86DE26EB-3058-4E6D-9480-BC9D8886A6AA";
shapes = (
{
closed = 1;
nodes = (
(200,0,l),
(200,580,l),
(454,580,l),
(454,714,l),
(53,714,l),
(53,0,l)
);
}
);
width = 486;
}
);
metricLeft = "nunavuth-canadian";
metricRight = "=|me-canadian";
note = uni14A5;
unicode = 5285;
},
{
glyphname = "mo-canadian";
kernLeft = moleft;
lastChange = "2023-01-13 15:28:11 +0000";
layers = (
{
anchors = (
{
name = middle_center_can;
pos = (159,357);
},
{
name = top_center_can;
pos = (236,714);
},
{
name = top_double;
pos = (360,714);
},
{
name = top_left_can;
pos = (105,714);
},
{
name = top_right_can;
pos = (359,714);
}
);
layerId = "86DE26EB-3058-4E6D-9480-BC9D8886A6AA";
shapes = (
{
closed = 1;
nodes = (
(433,0,l),
(433,714,l),
(285,714,l),
(285,134,l),
(32,134,l),
(32,0,l)
);
}
);
width = 486;
}
);
metricLeft = "me-canadian";
metricRight = "nunavuth-canadian";
note = uni14A7;
unicode = 5287;
},
{
glyphname = "ma-canadian";
kernRight = maright;
lastChange = "2023-01-13 15:28:11 +0000";
layers = (
{
anchors = (
{
name = middle_center_can;
pos = (328,357);
},
{
name = top_center_can;
pos = (254,714);
},
{
name = top_left_can;
pos = (127,714);
},
{
name = top_right_can;
pos = (380,714);
}
);
layerId = "86DE26EB-3058-4E6D-9480-BC9D8886A6AA";
shapes = (
{
closed = 1;
nodes = (
(454,0,l),
(454,134,l),
(200,134,l),
(200,714,l),
(53,714,l),
(53,0,l)
);
}
);
width = 486;
}
);
metricLeft = "nunavuth-canadian";
metricRight = "=|me-canadian";
note = uni14AA;
unicode = 5290;
},
{
glyphname = "m-canadian";
kernLeft = mwestleft;
kernRight = mwestright;
lastChange = "2023-01-13 15:28:11 +0000";
layers = (
{
layerId = "86DE26EB-3058-4E6D-9480-BC9D8886A6AA";
shapes = (
{
closed = 1;
nodes = (
(266,449,l),
(143,449,l),
(143,714,l),
(45.005,714,l),
(45.005,357,l),
(266,357,l)
);
}
);
width = 294;
}
);
metricLeft = "pWestCree-canadian";
note = uni14BB;
unicode = 5307;
},
{
glyphname = "mh-canadian";
kernLeft = mwestleft;
kernRight = mwestright;
lastChange = "2023-01-13 15:31:04 +0000";
layers = (
{
layerId = "86DE26EB-3058-4E6D-9480-BC9D8886A6AA";
shapes = (
{
closed = 1;
nodes = (
(248,357,l),
(248,714,l),
(151,714,l),
(151,449,l),
(28,449,l),
(28,357,l)
);
}
);
width = 293;
}
);
metricLeft = "=|m-canadian";
metricRight = "=|m-canadian";
note = uni14BD;
unicode = 5309;
},
{
glyphname = "mAthapascan-canadian";
lastChange = "2023-01-13 15:28:11 +0000";
layers = (
{
layerId = "86DE26EB-3058-4E6D-9480-BC9D8886A6AA";
shapes = (
{
closed = 1;
nodes = (
(273,357,l),
(273,439,l),
(141,439,l),
(144,399,l),
(220,491,ls),
(253,532,o),
(268,574,o),
(268,610,cs),
(268,670,o),
(235,720,o),
(157,720,cs),
(77,720,o),
(36,667,o),
(35,590,c),
(122,590,l),
(122,636,o),
(133,651,o),
(154,651,cs),
(172,651,o),
(181,637,o),
(181,609,cs),
(181,583,o),
(176,561,o),
(142,520,cs),
(48,409,l),
(48,357,l)
);
}
);
width = 309;
}
);
note = uni14BE;
unicode = 5310;
},
{
glyphname = "ne-canadian";
kernLeft = neleft;
lastChange = "2023-01-13 15:28:11 +0000";
layers = (
{
anchors = (
{
name = middle_center_can;
pos = (445,254);
},
{
name = top_center_can;
pos = (429,526);
},
{
name = top_left_can;
pos = (112,526);
},
{
name = top_right_can;
pos = (596,526);
}
);
layerId = "86DE26EB-3058-4E6D-9480-BC9D8886A6AA";
shapes = (
{
closed = 1;
nodes = (
(577,-14,o),
(668,75,o),
(668,246,cs),
(668,419,o),
(580,506,o),
(424,506,cs),
(38,506,l),
(38,374,l),
(283,374,l),
(272,408,l),
(240,371,o),
(223,305,o),
(223,239,cs),
(223,74,o),
(309,-14,o),
(445,-14,cs)
);
},
{
closed = 1;
nodes = (
(396,110,o),
(367,152,o),
(367,246,cs),
(367,338,o),
(396,382,o),
(445,382,cs),
(494,382,o),
(524,341,o),
(524,246,cs),
(524,152,o),
(495,110,o),
(445,110,cs)
);
}
);
width = 708;
}
);
metricRight = "=|ke-canadian";
note = uni14C0;
unicode = 5312;
},
{
glyphname = "ni-canadian";
kernRight = niright;
lastChange = "2023-01-13 15:31:04 +0000";
layers = (
{
anchors = (
{
name = middle_center_can;
pos = (265,254);
},
{
name = top_center_can;
pos = (283,526);
},
{
name = top_left_can;
pos = (112,526);
},
{
name = top_right_can;
pos = (596,526);
}
);
layerId = "86DE26EB-3058-4E6D-9480-BC9D8886A6AA";
shapes = (
{
closed = 1;
nodes = (
(399,-14,o),
(485,74,o),
(485,239,cs),
(485,305,o),
(467,371,o),
(435,408,c),
(424,374,l),
(669,374,l),
(669,506,l),
(284,506,ls),
(128,506,o),
(40,413,o),
(40,243,cs),
(40,74,o),
(130,-14,o),
(263,-14,cs)
);
},
{
closed = 1;
nodes = (
(213,110,o),
(184,152,o),
(184,247,cs),
(184,342,o),
(214,384,o),
(263,384,cs),
(312,384,o),
(341,340,o),
(341,247,cs),
(341,152,o),
(312,110,o),
(263,110,cs)
);
}
);
width = 707;
}
);
metricLeft = "ke-canadian";
metricRight = "=|ne-canadian";
note = uni14C2;
unicode = 5314;
},
{
glyphname = "no-canadian";
kernLeft = noleft;
lastChange = "2023-01-13 15:28:11 +0000";
layers = (
{
anchors = (
{
name = middle_center_can;
pos = (443,254);
},
{
name = top_center_can;
pos = (443,526);
},
{
name = top_double;
pos = (445,526);
},
{
name = top_left_can;
pos = (112,526);
},
{
name = top_right_can;
pos = (596,526);
}
);
layerId = "86DE26EB-3058-4E6D-9480-BC9D8886A6AA";
shapes = (
{
closed = 1;
nodes = (
(426,0,ls),
(580,0,o),
(668,88,o),
(668,260,cs),
(668,431,o),
(578,521,o),
(445,521,cs),
(309,521,o),
(223,431,o),
(223,267,cs),
(223,202,o),
(240,136,o),
(273,99,c),
(283,133,l),
(38,133,l),
(38,0,l)
);
},
{
closed = 1;
nodes = (
(396,123,o),
(367,167,o),
(367,259,cs),
(367,354,o),
(396,396,o),
(445,396,cs),
(495,396,o),
(524,355,o),
(524,259,cs),
(524,164,o),
(494,123,o),
(445,123,cs)
);
}
);
width = 708;
}
);
metricLeft = "ne-canadian";
metricRight = "=|ke-canadian";
note = uni14C4;
unicode = 5316;
},
{
glyphname = "na-canadian";
kernRight = naright;
lastChange = "2023-01-13 15:31:04 +0000";
layers = (
{
anchors = (
{
name = middle_center_can;
pos = (265,254);
},
{
name = top_center_can;
pos = (264,526);
},
{
name = top_double;
pos = (426,526);
},
{
name = top_left_can;
pos = (112,526);
},
{
name = top_right_can;
pos = (596,526);
}
);
layerId = "86DE26EB-3058-4E6D-9480-BC9D8886A6AA";
shapes = (
{
closed = 1;
nodes = (
(669,0,l),
(669,133,l),
(424,133,l),
(435,98,l),
(467,135,o),
(485,201,o),
(485,267,cs),
(485,432,o),
(399,521,o),
(263,521,cs),
(130,521,o),
(40,431,o),
(40,260,cs),
(40,89,o),
(127,0,o),
(283,0,cs)
);
},
{
closed = 1;
nodes = (
(214,123,o),
(184,164,o),
(184,259,cs),
(184,355,o),
(213,396,o),
(263,396,cs),
(312,396,o),
(341,354,o),
(341,259,cs),
(341,167,o),
(312,123,o),
(263,123,cs)
);
}
);
width = 707;
}
);
metricLeft = "ke-canadian";
metricRight = "=|ne-canadian";
note = uni14C7;
unicode = 5319;
},
{
glyphname = "n-canadian";
kernLeft = mwestleft;
kernRight = mwestright;
lastChange = "2023-01-13 15:28:11 +0000";
layers = (
{
layerId = "86DE26EB-3058-4E6D-9480-BC9D8886A6AA";
shapes = (
{
closed = 1;
nodes = (
(377,449,l),
(377,542,l),
(242,542,l),
(247,499,l),
(264,511,o),
(278,547,o),
(278,590,cs),
(278,670,o),
(235,720,o),
(157,720,cs),
(80,720,o),
(35.005,668.007,o),
(35,585,cs),
(35,503,o),
(80,449,o),
(162,449,cs)
);
},
{
closed = 1;
nodes = (
(135,520,o),
(121,539,o),
(121,585,cs),
(121,631,o),
(135,649,o),
(157,649,cs),
(179,649,o),
(192,629,o),
(192,584,cs),
(192,540,o),
(179,520,o),
(157,520,cs)
);
}
);
width = 406;
}
);
metricLeft = "=|k-canadian";
note = uni14D0;
unicode = 5328;
},
{
glyphname = "nh-canadian";
kernLeft = mwestleft;
kernRight = mwestright;
lastChange = "2023-01-13 15:28:11 +0000";
layers = (
{
layerId = "86DE26EB-3058-4E6D-9480-BC9D8886A6AA";
shapes = (
{
closed = 1;
nodes = (
(244,449,ls),
(325,449,o),
(371,503,o),
(371,585,cs),
(371,668,o),
(326,720,o),
(249,720,cs),
(170,720,o),
(128,670,o),
(128,590,cs),
(128,547,o),
(142,511,o),
(159,499,c),
(164,542,l),
(29,542,l),
(29,449,l)
);
},
{
closed = 1;
nodes = (
(227,520,o),
(214,540,o),
(214,584,cs),
(214,629,o),
(227,649,o),
(249,649,cs),
(271,649,o),
(284,631,o),
(284,585,cs),
(284,539,o),
(271,520,o),
(249,520,cs)
);
}
);
width = 406;
}
);
metricLeft = "=|n-canadian";
metricRight = "=|n-canadian";
note = uni14D2;
unicode = 5330;
},
{
glyphname = "le-canadian";
kernLeft = neleft;
lastChange = "2023-01-13 15:28:11 +0000";
layers = (
{
anchors = (
{
name = middle_center_can;
pos = (444,254);
},
{
name = top_center_can;
pos = (431,526);
},
{
name = top_left_can;
pos = (112,526);
},
{
name = top_right_can;
pos = (596,526);
}
);
layerId = "86DE26EB-3058-4E6D-9480-BC9D8886A6AA";
shapes = (
{
closed = 1;
nodes = (
(413,0,ls),
(570,0,o),
(668,88,o),
(668,253,cs),
(668,418,o),
(575,506,o),
(413,506,cs),
(38,506,l),
(38,373,l),
(405,373,ls),
(480,373,o),
(522,333,o),
(522,251,cs),
(522,170,o),
(480,129,o),
(401,129,cs),
(377,129,l),
(377,0,l)
);
}
);
width = 708;
}
);
metricLeft = "ne-canadian";
metricRight = "=|ke-canadian";
note = uni14D3;
unicode = 5331;
},
{
glyphname = "li-canadian";
kernRight = niright;
lastChange = "2023-01-13 15:31:04 +0000";
layers = (
{
anchors = (
{
name = middle_center_can;
pos = (265,254);
},
{
name = top_center_can;
pos = (283,526);
},
{
name = top_left_can;
pos = (113,526);
},
{
name = top_right_can;
pos = (596,526);
}
);
layerId = "86DE26EB-3058-4E6D-9480-BC9D8886A6AA";
shapes = (
{
closed = 1;
nodes = (
(331,0,l),
(331,129,l),
(307,129,ls),
(227,129,o),
(186,170,o),
(186,251,cs),
(186,332,o),
(226,373,o),
(303,373,cs),
(669,373,l),
(669,506,l),
(295,506,ls),
(140,506,o),
(40,418,o),
(40,253,cs),
(40,88,o),
(138,0,o),
(295,0,cs)
);
}
);
width = 707;
}
);
metricLeft = "ke-canadian";
metricRight = "=|ne-canadian";
note = uni14D5;
unicode = 5333;
},
{
glyphname = "lo-canadian";
kernLeft = noleft;
lastChange = "2023-01-13 15:28:11 +0000";
layers = (
{
anchors = (
{
name = middle_center_can;
pos = (443,254);
},
{
name = top_center_can;
pos = (443,526);
},
{
name = top_double;
pos = (414,526);
},
{
name = top_left_can;
pos = (112,526);
},
{
name = top_right_can;
pos = (596,526);
}
);
layerId = "86DE26EB-3058-4E6D-9480-BC9D8886A6AA";
shapes = (
{
closed = 1;
nodes = (
(413,0,ls),
(568,0,o),
(668,88,o),
(668,253,cs),
(668,419,o),
(570,506,o),
(414,506,cs),
(377,506,l),
(377,377,l),
(401,377,ls),
(481,377,o),
(522,337,o),
(522,256,cs),
(522,174,o),
(481,133,o),
(405,133,cs),
(38,133,l),
(38,0,l)
);
}
);
width = 708;
}
);
metricLeft = "ne-canadian";
metricRight = "=|ke-canadian";
note = uni14D7;
unicode = 5335;
},
{
glyphname = "la-canadian";
kernRight = naright;
lastChange = "2023-01-13 15:31:04 +0000";
layers = (
{
anchors = (
{
name = middle_center_can;
pos = (265,254);
},
{
name = top_center_can;
pos = (264,526);
},
{
name = top_left_can;
pos = (113,526);
},
{
name = top_right_can;
pos = (596,526);
}
);
layerId = "86DE26EB-3058-4E6D-9480-BC9D8886A6AA";
shapes = (
{
closed = 1;
nodes = (
(669,0,l),
(669,133,l),
(303,133,ls),
(227,133,o),
(186,174,o),
(186,255,cs),
(186,336,o),
(227,377,o),
(306,377,cs),
(331,377,l),
(331,506,l),
(294,506,ls),
(137,506,o),
(40,417,o),
(40,253,cs),
(40,88,o),
(140,0,o),
(295,0,cs)
);
}
);
width = 707;
}
);
metricLeft = "ke-canadian";
metricRight = "=|ne-canadian";
note = uni14DA;
unicode = 5338;
},
{
glyphname = "l-canadian";
kernLeft = mwestleft;
kernRight = mwestright;
lastChange = "2023-01-13 15:31:04 +0000";
layers = (
{
layerId = "86DE26EB-3058-4E6D-9480-BC9D8886A6AA";
shapes = (
{
closed = 1;
nodes = (
(363,357,l),
(363,449,l),
(224,449,ls),
(168,449,o),
(138,479,o),
(138,535,cs),
(138,591,o),
(168,623,o),
(219,623,cs),
(227,623,l),
(227,714,l),
(212,714,ls),
(104,714,o),
(41,644,o),
(41,535,cs),
(41,426,o),
(104,357,o),
(214,357,cs)
);
}
);
width = 391;
}
);
metricLeft = "t-canadian";
metricRight = "m-canadian";
note = uni14EA;
unicode = 5354;
},
{
glyphname = "lWestCree-canadian";
kernLeft = mwestleft;
kernRight = mwestright;
lastChange = "2023-01-13 15:28:11 +0000";
layers = (
{
layerId = "86DE26EB-3058-4E6D-9480-BC9D8886A6AA";
shapes = (
{
closed = 1;
nodes = (
(255,357,l),
(255,423,l),
(113,493,l),
(113,444,l),
(255,514,l),
(255,557,l),
(113,629,l),
(113,578,l),
(255,647,l),
(255,714,l),
(239,714,l),
(45,619,l),
(45,587,l),
(188,517,l),
(188,553,l),
(45,483,l),
(45,451,l),
(239,357,l)
);
}
);
width = 300;
}
);
metricRight = "=|";
note = uni14EB;
unicode = 5355;
},
{
glyphname = "mediall-canadian";
lastChange = "2023-01-13 15:28:11 +0000";
layers = (
{
layerId = "86DE26EB-3058-4E6D-9480-BC9D8886A6AA";
shapes = (
{
closed = 1;
nodes = (
(486,-14,l),
(486,96,l),
(180,246,l),
(180,180,l),
(486,327,l),
(486,387,l),
(180,534,l),
(180,468,l),
(486,618,l),
(486,728,l),
(452,728,l),
(49,531,l),
(49,478,l),
(355,330,l),
(355,384,l),
(49,236,l),
(49,183,l),
(452,-14,l)
);
}
);
width = 535;
}
);
metricRight = "=|";
note = uni14EC;
unicode = 5356;
},
{
glyphname = "se-canadian";
kernRight = seright;
lastChange = "2023-01-13 15:28:11 +0000";
layers = (
{
anchors = (
{
name = top_left_can;
pos = (127,714);
},
{
name = top_right_can;
pos = (362,714);
}
);
layerId = "86DE26EB-3058-4E6D-9480-BC9D8886A6AA";
shapes = (
{
closed = 1;
nodes = (
(435,0,l),
(435,372,l),
(397,372,ls),
(266,372,o),
(200,423,o),
(200,591,cs),
(200,714,l),
(53,714,l),
(53,581,ls),
(53,352,o),
(164,240,o),
(366,240,cs),
(400,240,l),
(287,286,l),
(287,0,l)
);
}
);
width = 489;
}
);
note = uni14ED;
unicode = 5357;
},
{
glyphname = "si-canadian";
kernLeft = sileft;
lastChange = "2023-01-13 15:28:11 +0000";
layers = (
{
anchors = (
{
name = top_left_can;
pos = (128,714);
},
{
name = top_right_can;
pos = (362,714);
}
);
layerId = "86DE26EB-3058-4E6D-9480-BC9D8886A6AA";
shapes = (
{
closed = 1;
nodes = (
(201,0,l),
(201,286,l),
(89,240,l),
(123,240,ls),
(325,240,o),
(436,352,o),
(436,581,cs),
(436,714,l),
(288,714,l),
(288,591,ls),
(288,423,o),
(223,372,o),
(92,372,cs),
(54,372,l),
(54,0,l)
);
}
);
width = 489;
}
);
metricLeft = "=|se-canadian";
metricRight = "=|se-canadian";
note = uni14EF;
unicode = 5359;
},
{
glyphname = "so-canadian";
kernRight = soright;
lastChange = "2023-01-13 15:28:11 +0000";
layers = (
{
anchors = (
{
name = top_double;
pos = (362,714);
},
{
name = top_left_can;
pos = (127,714);
},
{
name = top_right_can;
pos = (361,714);
}
);
layerId = "86DE26EB-3058-4E6D-9480-BC9D8886A6AA";
shapes = (
{
closed = 1;
nodes = (
(200,0,l),
(200,123,ls),
(200,291,o),
(266,342,o),
(397,342,cs),
(435,342,l),
(435,714,l),
(287,714,l),
(287,428,l),
(400,474,l),
(366,474,ls),
(164,474,o),
(53,362,o),
(53,133,cs),
(53,0,l)
);
}
);
width = 489;
}
);
metricLeft = "se-canadian";
metricRight = "se-canadian";
note = uni14F1;
unicode = 5361;
},
{
glyphname = "sa-canadian";
kernLeft = saleft;
kernRight = saright;
lastChange = "2023-01-13 15:28:11 +0000";
layers = (
{
anchors = (
{
name = top_left_can;
pos = (128,714);
},
{
name = top_right_can;
pos = (362,714);
}
);
layerId = "86DE26EB-3058-4E6D-9480-BC9D8886A6AA";
shapes = (
{
closed = 1;
nodes = (
(436,0,l),
(436,133,ls),
(436,362,o),
(325,474,o),
(123,474,cs),
(89,474,l),
(201,428,l),
(201,714,l),
(54,714,l),
(54,342,l),
(92,342,ls),
(223,342,o),
(288,291,o),
(288,123,cs),
(288,0,l)
);
}
);
width = 489;
}
);
metricLeft = "=|se-canadian";
metricRight = "=|se-canadian";
note = uni14F4;
unicode = 5364;
},
{
glyphname = "s-canadian";
kernLeft = mwestleft;
kernRight = mwestright;
lastChange = "2023-01-13 15:28:11 +0000";
layers = (
{
layerId = "86DE26EB-3058-4E6D-9480-BC9D8886A6AA";
shapes = (
{
closed = 1;
nodes = (
(268,357,l),
(268,431,ls),
(268,544,o),
(208,605,o),
(116,605,cs),
(78,605,l),
(143,568,l),
(143,714,l),
(45.005,714,l),
(45,529,l),
(75,529,ls),
(141,529,o),
(170,499,o),
(170,427,cs),
(170,357,l)
);
}
);
width = 313;
}
);
metricRight = "=|";
note = uni1505;
unicode = 5381;
},
{
color = 6;
glyphname = "sAthapascan-canadian";
lastChange = "2023-01-13 15:28:11 +0000";
layers = (
{
layerId = "86DE26EB-3058-4E6D-9480-BC9D8886A6AA";
shapes = (
{
closed = 1;
nodes = (
(253,183,o),
(299,229,o),
(299,290,cs),
(299,334,o),
(276,368,o),
(223,389,cs),
(170,409,ls),
(147,419,o),
(138,429,o),
(138,448,cs),
(138,469,o),
(150,481,o),
(173,481,cs),
(195,481,o),
(210,472,o),
(210,433,c),
(298,433,l),
(298,511,o),
(251,552,o),
(173,552,cs),
(99,552,o),
(49,508,o),
(49,446,cs),
(49,400,o),
(72,364,o),
(122,345,cs),
(176,325,ls),
(200,315,o),
(211,304,o),
(211,285,cs),
(211,264,o),
(196,254,o),
(175,254,cs),
(148,254,o),
(133,266,o),
(133,303,c),
(45,303,l),
(45,225,o),
(93,183,o),
(173,183,cs)
);
}
);
width = 344;
}
);
metricRight = "=|";
note = uni1506;
unicode = 5382;
},
{
glyphname = "sw-canadian";
kernLeft = mwestleft;
kernRight = mwestright;
lastChange = "2023-01-13 15:28:11 +0000";
layers = (
{
layerId = "86DE26EB-3058-4E6D-9480-BC9D8886A6AA";
shapes = (
{
closed = 1;
nodes = (
(143,357,l),
(143,427,ls),
(143,499,o),
(172,529,o),
(238,529,cs),
(268,529,l),
(268,714,l),
(170,714,l),
(170,568,l),
(235,605,l),
(197,605,ls),
(105,605,o),
(45,544,o),
(45,431,cs),
(45.005,357,l)
);
}
);
width = 313;
}
);
metricLeft = "=|s-canadian";
metricRight = "=|s-canadian";
note = uni1507;
unicode = 5383;
},
{
glyphname = "sBlackfoot-canadian";
lastChange = "2023-01-13 15:28:11 +0000";
layers = (
{
layerId = "86DE26EB-3058-4E6D-9480-BC9D8886A6AA";
shapes = (
{
closed = 1;
nodes = (
(275,357,l),
(275,449,l),
(202,449,ls),
(158,449,o),
(143,466,o),
(143,514,cs),
(143,714,l),
(45.005,714,l),
(45,498,ls),
(45,406,o),
(94,357,o),
(185,357,c)
);
}
);
width = 303;
}
);
metricLeft = "ai-canadian";
metricRight = "m-canadian";
note = uni1508;
unicode = 5384;
},
{
glyphname = "moosecreesk-canadian";
kernLeft = mwestleft;
kernRight = mwestright;
lastChange = "2023-01-13 15:31:04 +0000";
layers = (
{
layerId = "86DE26EB-3058-4E6D-9480-BC9D8886A6AA";
shapes = (
{
closed = 1;
nodes = (
(240,225,o),
(293,274,o),
(293,386,cs),
(293,531,o),
(231,606,o),
(116,606,cs),
(94,606,l),
(143,569,l),
(143,714,l),
(46,714,l),
(46,530,l),
(83,530,ls),
(167,530,o),
(188,504,o),
(195,444,c),
(219,441,l),
(211,468,o),
(189,493,o),
(156,493,cs),
(89,493,o),
(46,441,o),
(46,361,cs),
(46,270,o),
(103,225,o),
(168,225,cs)
);
},
{
closed = 1;
nodes = (
(148,295,o),
(133,313,o),
(133,360,cs),
(133,408,o),
(149,426,o),
(169,426,cs),
(189,426,o),
(204,408,o),
(204,360,cs),
(204,312,o),
(190,295,o),
(169,295,cs)
);
}
);
width = 339;
}
);
metricRight = "=|";
note = uni1509;
unicode = 5385;
},
{
glyphname = "skwNaskapi-canadian";
kernLeft = mwestleft;
kernRight = mwestright;
lastChange = "2023-01-13 15:31:04 +0000";
layers = (
{
layerId = "86DE26EB-3058-4E6D-9480-BC9D8886A6AA";
shapes = (
{
closed = 1;
nodes = (
(236,225,o),
(292,270,o),
(292,361,cs),
(292,441,o),
(249,493,o),
(183,493,cs),
(150,493,o),
(127,468,o),
(120,441,c),
(144,444,l),
(151,504,o),
(172,530,o),
(256,530,cs),
(293,530,l),
(293,714,l),
(195,714,l),
(195,569,l),
(244,606,l),
(223,606,ls),
(108,606,o),
(46,531,o),
(46,386,cs),
(46,274,o),
(99,225,o),
(171,225,cs)
);
},
{
closed = 1;
nodes = (
(149,295,o),
(135,312,o),
(135,360,cs),
(135,408,o),
(150,426,o),
(170,426,cs),
(190,426,o),
(206,408,o),
(206,360,cs),
(206,313,o),
(190,295,o),
(170,295,cs)
);
}
);
width = 339;
}
);
metricLeft = "=|moosecreesk-canadian";
metricRight = "=|moosecreesk-canadian";
note = uni150A;
unicode = 5386;
},
{
glyphname = "swNaskapi-canadian";
lastChange = "2023-01-13 15:28:11 +0000";
layers = (
{
layerId = "86DE26EB-3058-4E6D-9480-BC9D8886A6AA";
shapes = (
{
closed = 1;
nodes = (
(286,195,l),
(286,253,ls),
(286,360,o),
(226,425,o),
(135,425,cs),
(98,425,l),
(152,389,l),
(152,519,l),
(55,519,l),
(55,349,l),
(99,349,ls),
(159,349,o),
(188,320,o),
(188,249,cs),
(188,195,l)
);
},
{
closed = 1;
nodes = (
(276,14,o),
(306,46,o),
(306,85,cs),
(306,124,o),
(275,155,o),
(237,155,cs),
(199,155,o),
(168,124,o),
(168,85,cs),
(168,46,o),
(198,14,o),
(237,14,cs)
);
},
{
closed = 1;
nodes = (
(141,559,o),
(173,590,o),
(173,629,cs),
(173,668,o),
(142,701,o),
(103,701,cs),
(65,701,o),
(34,668,o),
(34,629,cs),
(34,590,o),
(65,559,o),
(103,559,cs)
);
}
);
width = 340;
}
);
metricRight = "=|";
note = uni150B;
unicode = 5387;
},
{
glyphname = "spwaNaskapi-canadian";
lastChange = "2023-01-13 15:28:11 +0000";
layers = (
{
layerId = "86DE26EB-3058-4E6D-9480-BC9D8886A6AA";
shapes = (
{
closed = 1;
nodes = (
(537,0,l),
(537,138,l),
(179,389,l),
(179,323,l),
(537,574,l),
(537,714,l),
(503,714,l),
(27,380,l),
(27,334,l),
(503,0,l)
);
},
{
closed = 1;
nodes = (
(150,523,o),
(182,554,o),
(182,593,cs),
(182,632,o),
(150,664,o),
(112,664,cs),
(74,664,o),
(43,632,o),
(43,593,cs),
(43,554,o),
(74,523,o),
(112,523,cs)
);
},
{
closed = 1;
nodes = (
(327,636,l),
(327,692,ls),
(327,774,o),
(286,821,o),
(205,821,cs),
(174,821,l),
(244,790,l),
(244,896,l),
(151,896,l),
(151,750,l),
(172,750,ls),
(208,750,o),
(234,733,o),
(234,681,cs),
(234,636,l)
);
},
{
closed = 1;
nodes = (
(463,738,o),
(495,770,o),
(495,808,cs),
(495,847,o),
(463,879,o),
(426,879,cs),
(388,879,o),
(357,847,o),
(357,808,cs),
(357,770,o),
(388,738,o),
(426,738,cs)
);
}
);
width = 573;
}
);
metricRight = "pa-canadian";
metricWidth = "pa-canadian";
note = uni150C;
unicode = 5388;
},
{
glyphname = "she-canadian";
kernRight = caright;
lastChange = "2023-01-13 15:28:11 +0000";
layers = (
{
anchors = (
{
name = top_left_can;
pos = (255,714);
},
{
name = top_right_can;
pos = (631,714);
}
);
layerId = "86DE26EB-3058-4E6D-9480-BC9D8886A6AA";
shapes = (
{
closed = 1;
nodes = (
(656,-14,o),
(737,75,o),
(737,248,cs),
(737,319,l),
(591,319,l),
(591,223,ls),
(591,149,o),
(569,114,o),
(530,114,cs),
(489,114,o),
(469,147,o),
(465,226,cs),
(455,491,ls),
(449,639,o),
(390,728,o),
(254,728,cs),
(120,728,o),
(38,639,o),
(38,466,cs),
(38,395,l),
(184,395,l),
(184,492,ls),
(184,565,o),
(207,600,o),
(246,600,cs),
(287,600,o),
(307,567,o),
(310,489,cs),
(321,223,ls),
(327,75,o),
(384,-14,o),
(523,-14,cs)
);
}
);
width = 775;
}
);
metricRight = "=|";
note = uni1510;
unicode = 5392;
},
{
glyphname = "shi-canadian";
kernLeft = coleft;
lastChange = "2023-01-13 15:28:11 +0000";
layers = (
{
anchors = (
{
name = top_left_can;
pos = (146,714);
},
{
name = top_right_can;
pos = (522,714);
}
);
layerId = "86DE26EB-3058-4E6D-9480-BC9D8886A6AA";
shapes = (
{
closed = 1;
nodes = (
(391,-14,o),
(449,75,o),
(455,223,cs),
(465,489,ls),
(469,567,o),
(489,600,o),
(530,600,cs),
(568,600,o),
(591,565,o),
(591,492,cs),
(591,395,l),
(737,395,l),
(737,466,ls),
(737,639,o),
(656,728,o),
(522,728,cs),
(385,728,o),
(327,639,o),
(321,491,cs),
(310,226,ls),
(307,147,o),
(287,114,o),
(245,114,cs),
(207,114,o),
(184,149,o),
(184,223,cs),
(184,319,l),
(38,319,l),
(38,248,ls),
(38,75,o),
(119,-14,o),
(252,-14,cs)
);
}
);
width = 775;
}
);
metricLeft = "she-canadian";
metricRight = "she-canadian";
note = uni1511;
unicode = 5393;
},
{
glyphname = "sho-canadian";
lastChange = "2023-01-13 15:28:11 +0000";
layers = (
{
anchors = (
{
name = top_center_can;
pos = (398,526);
},
{
name = top_left_can;
pos = (256,526);
},
{
name = top_right_can;
pos = (541,526);
}
);
layerId = "86DE26EB-3058-4E6D-9480-BC9D8886A6AA";
shapes = (
{
closed = 1;
nodes = (
(330,112,l),
(239,110,o),
(185,142,o),
(185,200,cs),
(185,240,o),
(208,264,o),
(247,264,cs),
(335,264,o),
(421,111,o),
(572,111,cs),
(685,111,o),
(756,189,o),
(756,300,cs),
(756,439,o),
(647,524,o),
(470,521,c),
(466,394,l),
(558,396,o),
(612,365,o),
(612,306,cs),
(612,266,o),
(588,242,o),
(549,242,cs),
(461,242,o),
(375,396,o),
(224,396,cs),
(112,396,o),
(40,317,o),
(40,206,cs),
(40,68,o),
(149,-17,o),
(326,-14,c)
);
}
);
width = 796;
}
);
metricLeft = "ke-canadian";
metricRight = "=|ke-canadian";
note = uni1513;
unicode = 5395;
},
{
glyphname = "sha-canadian";
lastChange = "2023-01-13 15:28:11 +0000";
layers = (
{
anchors = (
{
name = top_center_can;
pos = (399,526);
},
{
name = top_left_can;
pos = (256,526);
},
{
name = top_right_can;
pos = (541,526);
}
);
layerId = "86DE26EB-3058-4E6D-9480-BC9D8886A6AA";
shapes = (
{
closed = 1;
nodes = (
(647,-18,o),
(756,68,o),
(756,205,cs),
(756,317,o),
(685,396,o),
(572,396,cs),
(421,396,o),
(335,242,o),
(247,242,cs),
(208,242,o),
(185,266,o),
(185,306,cs),
(185,365,o),
(239,397,o),
(330,394,c),
(326,521,l),
(149,524,o),
(40,439,o),
(40,301,cs),
(40,189,o),
(111,111,o),
(224,111,cs),
(375,111,o),
(461,264,o),
(549,264,cs),
(588,264,o),
(612,240,o),
(612,200,cs),
(612,142,o),
(558,109,o),
(466,112,c),
(470,-14,l)
);
}
);
width = 796;
}
);
metricLeft = "ke-canadian";
metricRight = "=|ke-canadian";
note = uni1515;
unicode = 5397;
},
{
glyphname = "sh-canadian";
kernLeft = mwestleft;
kernRight = mwestright;
lastChange = "2023-01-13 15:28:11 +0000";
layers = (
{
layerId = "86DE26EB-3058-4E6D-9480-BC9D8886A6AA";
shapes = (
{
closed = 1;
nodes = (
(485,295,o),
(571,355,o),
(571,459,cs),
(571,548,o),
(514,608,o),
(428,608,cs),
(323,608,o),
(260,508,o),
(194,508,cs),
(159,508,o),
(142,527,o),
(142,560,cs),
(142,605,o),
(183,633,o),
(258,633,c),
(255,723,l),
(127,723,o),
(41,664,o),
(41,559,cs),
(41,471,o),
(98,411,o),
(184,411,cs),
(289,411,o),
(352,511,o),
(418,511,cs),
(453,511,o),
(470,492,o),
(470,458,cs),
(470,413,o),
(429,386,o),
(354,386,c),
(357,295,l)
);
}
);
width = 612;
}
);
metricLeft = "t-canadian";
metricRight = "=|";
note = uni1525;
unicode = 5413;
},
{
glyphname = "ye-canadian";
kernLeft = yeleft;
lastChange = "2023-01-13 15:28:11 +0000";
layers = (
{
anchors = (
{
name = middle_right_can;
pos = (579,357);
},
{
name = top_left_can;
pos = (100,714);
},
{
name = top_right_can;
pos = (384,714);
}
);
layerId = "86DE26EB-3058-4E6D-9480-BC9D8886A6AA";
shapes = (
{
closed = 1;
nodes = (
(457,0,l),
(457,357,l),
(215,357,l),
(224,311,l),
(482,644,l),
(377,726,l),
(27,267,l),
(27,229,l),
(310,229,l),
(310,0,l)
);
}
);
width = 510;
}
);
note = uni1526;
unicode = 5414;
},
{
glyphname = "yi-canadian";
kernRight = yiright;
lastChange = "2023-01-13 15:28:11 +0000";
layers = (
{
anchors = (
{
name = top_left_can;
pos = (127,714);
},
{
name = top_right_can;
pos = (410,714);
}
);
layerId = "86DE26EB-3058-4E6D-9480-BC9D8886A6AA";
shapes = (
{
closed = 1;
nodes = (
(200,0,l),
(200,229,l),
(483,229,l),
(483,267,l),
(133,726,l),
(28,644,l),
(286,311,l),
(295,357,l),
(53,357,l),
(53,0,l)
);
}
);
width = 510;
}
);
metricRight = "=|ye-canadian";
metricWidth = "ye-canadian";
note = uni1528;
unicode = 5416;
},
{
glyphname = "yo-canadian";
kernLeft = yoleft;
lastChange = "2023-01-13 15:28:11 +0000";
layers = (
{
anchors = (
{
name = middle_right_can;
pos = (579,357);
},
{
name = top_double;
pos = (384,714);
},
{
name = top_left_can;
pos = (100,714);
},
{
name = top_right_can;
pos = (384,714);
}
);
layerId = "86DE26EB-3058-4E6D-9480-BC9D8886A6AA";
shapes = (
{
closed = 1;
nodes = (
(482,70,l),
(224,403,l),
(215,357,l),
(457,357,l),
(457,714,l),
(310,714,l),
(310,485,l),
(27,485,l),
(27,447,l),
(377,-12,l)
);
}
);
width = 510;
}
);
metricLeft = "ye-canadian";
metricWidth = "ye-canadian";
note = uni152A;
unicode = 5418;
},
{
glyphname = "ya-canadian";
kernRight = yaright;
lastChange = "2023-01-13 15:28:11 +0000";
layers = (
{
anchors = (
{
name = top_left_can;
pos = (127,714);
},
{
name = top_right_can;
pos = (410,714);
}
);
layerId = "86DE26EB-3058-4E6D-9480-BC9D8886A6AA";
shapes = (
{
closed = 1;
nodes = (
(483,447,l),
(483,485,l),
(200,485,l),
(200,714,l),
(53,714,l),
(53,357,l),
(295,357,l),
(286,403,l),
(28,70,l),
(133,-12,l)
);
}
);
width = 510;
}
);
metricRight = "=|ye-canadian";
metricWidth = "ye-canadian";
note = uni152D;
unicode = 5421;
},
{
glyphname = "y-canadian";
kernLeft = mwestleft;
kernRight = mwestright;
lastChange = "2023-01-13 15:28:11 +0000";
layers = (
{
layerId = "86DE26EB-3058-4E6D-9480-BC9D8886A6AA";
shapes = (
{
closed = 1;
nodes = (
(281,573,l),
(281,600,l),
(147,600,l),
(147,714,l),
(50,714,l),
(50,519,l),
(178,519,l),
(177,578,l),
(45,397,l),
(117,348,l)
);
}
);
width = 302;
}
);
note = uni153E;
unicode = 5438;
},
{
glyphname = "biblecreey-canadian";
lastChange = "2023-01-13 15:31:04 +0000";
layers = (
{
layerId = "86DE26EB-3058-4E6D-9480-BC9D8886A6AA";
shapes = (
{
closed = 1;
nodes = (
(174,613,l),
(123,613,l),
(203,357,l),
(261,357,l),
(342,613,l),
(290,613,l),
(342,357,l),
(429,357,l),
(429,380,l),
(360,714,l),
(289,714,l),
(203,441,l),
(261,441,l),
(175,714,l),
(104,714,l),
(35,380,l),
(35,357,l),
(123,357,l)
);
}
);
width = 464;
}
);
metricRight = "=|";
note = uni153F;
unicode = 5439;
},
{
glyphname = "yWestCree-canadian";
lastChange = "2023-01-13 15:28:11 +0000";
layers = (
{
layerId = "86DE26EB-3058-4E6D-9480-BC9D8886A6AA";
shapes = (
{
closed = 1;
nodes = (
(236,211,l),
(236,320,l),
(333,320,l),
(333,412,l),
(236,412,l),
(236,518,l),
(144,518,l),
(144,412,l),
(45,412,l),
(45,320,l),
(144,320,l),
(144,211,l)
);
}
);
width = 378;
}
);
metricLeft = "shorthorizontalstrokeFinal-canadian";
metricRight = "shorthorizontalstrokeFinal-canadian";
note = uni1540;
unicode = 5440;
},
{
glyphname = "re-canadian";
kernRight = niright;
lastChange = "2023-01-13 15:28:11 +0000";
layers = (
{
anchors = (
{
name = top_center_can;
pos = (272,526);
},
{
name = top_left_can;
pos = (125,526);
},
{
name = top_right_can;
pos = (633,526);
}
);
layerId = "86DE26EB-3058-4E6D-9480-BC9D8886A6AA";
shapes = (
{
closed = 1;
nodes = (
(413,-14,o),
(489,83,o),
(489,242,cs),
(489,374,l),
(706,374,l),
(706,506,l),
(346,506,l),
(346,221,ls),
(346,148,o),
(319,114,o),
(272,114,cs),
(224,114,o),
(198,150,o),
(198,220,cs),
(198,506,l),
(50,506,l),
(50,242,ls),
(50,75,o),
(134,-14,o),
(272,-14,cs)
);
}
);
width = 744;
}
);
metricRight = "=|ne-canadian";
note = uni1542;
unicode = 5442;
},
{
glyphname = "reRCree-canadian";
kernLeft = neleft;
lastChange = "2023-01-13 15:28:11 +0000";
layers = (
{
anchors = (
{
name = top_center_can;
pos = (473,526);
},
{
name = top_left_can;
pos = (111,526);
},
{
name = top_right_can;
pos = (621,526);
}
);
layerId = "86DE26EB-3058-4E6D-9480-BC9D8886A6AA";
shapes = (
{
closed = 1;
nodes = (
(611,-14,o),
(694,75,o),
(694,242,cs),
(694,506,l),
(547,506,l),
(547,220,ls),
(547,150,o),
(521,114,o),
(472,114,cs),
(425,114,o),
(399,147,o),
(399,221,cs),
(399,506,l),
(38,506,l),
(38,374,l),
(255,374,l),
(255,241,ls),
(255,83,o),
(332,-14,o),
(473,-14,cs)
);
}
);
width = 744;
}
);
metricLeft = "ne-canadian";
metricRight = "=|re-canadian";
note = uni1543;
unicode = 5443;
},
{
glyphname = "leWestCree-canadian";
kernLeft = noleft;
lastChange = "2023-01-13 15:28:11 +0000";
layers = (
{
anchors = (
{
name = top_center_can;
pos = (473,526);
},
{
name = top_left_can;
pos = (111,526);
},
{
name = top_right_can;
pos = (621,526);
}
);
layerId = "86DE26EB-3058-4E6D-9480-BC9D8886A6AA";
shapes = (
{
closed = 1;
nodes = (
(399,0,l),
(399,284,ls),
(399,358,o),
(425,392,o),
(473,392,cs),
(521,392,o),
(547,357,o),
(547,286,cs),
(547,0,l),
(694,0,l),
(694,264,ls),
(694,431,o),
(612,521,o),
(473,521,cs),
(333,521,o),
(255,424,o),
(255,263,cs),
(255,133,l),
(38,133,l),
(38,0,l)
);
}
);
width = 744;
}
);
metricLeft = "ne-canadian";
metricRight = "=|re-canadian";
note = uni1544;
unicode = 5444;
},
{
glyphname = "ri-canadian";
kernRight = naright;
lastChange = "2023-01-13 15:28:11 +0000";
layers = (
{
anchors = (
{
name = top_center_can;
pos = (272,526);
},
{
name = top_left_can;
pos = (125,526);
},
{
name = top_right_can;
pos = (633,526);
}
);
layerId = "86DE26EB-3058-4E6D-9480-BC9D8886A6AA";
shapes = (
{
closed = 1;
nodes = (
(198,0,l),
(198,286,ls),
(198,357,o),
(224,392,o),
(272,392,cs),
(319,392,o),
(346,359,o),
(346,286,cs),
(346,0,l),
(706,0,l),
(706,133,l),
(489,133,l),
(489,265,ls),
(489,424,o),
(414,521,o),
(272,521,cs),
(134,521,o),
(50,431,o),
(50,263,cs),
(50,0,l)
);
}
);
width = 744;
}
);
metricLeft = "re-canadian";
metricRight = "=|ne-canadian";
note = uni1546;
unicode = 5446;
},
{
glyphname = "ro-canadian";
lastChange = "2023-01-13 15:28:11 +0000";
layers = (
{
anchors = (
{
name = top_center_can;
pos = (216,714);
}
);
layerId = "86DE26EB-3058-4E6D-9480-BC9D8886A6AA";
shapes = (
{
closed = 1;
nodes = (
(200,1,l),
(200,267,l),
(163,229,l),
(220,229,ls),
(362,229,o),
(453,325,o),
(453,469,cs),
(453,623,o),
(367,714,o),
(200,714,cs),
(53,714,l),
(53,583,l),
(185,583,ls),
(267,583,o),
(306,541,o),
(306,470,cs),
(306,400,o),
(267,358,o),
(185,358,cs),
(53,358,l),
(53,1,l)
);
}
);
width = 490;
}
);
metricLeft = "nunavuth-canadian";
note = uni1548;
unicode = 5448;
},
{
glyphname = "loWestCree-canadian";
lastChange = "2023-01-13 15:28:11 +0000";
layers = (
{
anchors = (
{
name = top_center_can;
pos = (216,714);
},
{
name = top_left_can;
pos = (127,714);
}
);
layerId = "86DE26EB-3058-4E6D-9480-BC9D8886A6AA";
shapes = (
{
closed = 1;
nodes = (
(200,1,ls),
(367,1,o),
(453,92,o),
(453,245,cs),
(453,390,o),
(362,486,o),
(220,486,cs),
(163,486,l),
(200,448,l),
(200,714,l),
(53,714,l),
(53,357,l),
(185,357,ls),
(267,357,o),
(306,315,o),
(306,244,cs),
(306,174,o),
(267,132,o),
(185,132,cs),
(53,132,l),
(53,1,l)
);
}
);
width = 490;
}
);
metricLeft = "nunavuth-canadian";
metricRight = "ro-canadian";
note = uni154A;
unicode = 5450;
},
{
glyphname = "ra-canadian";
lastChange = "2023-01-13 15:28:11 +0000";
layers = (
{
anchors = (
{
name = top_center_can;
pos = (273,714);
},
{
name = top_right_can;
pos = (363,714);
}
);
layerId = "86DE26EB-3058-4E6D-9480-BC9D8886A6AA";
shapes = (
{
closed = 1;
nodes = (
(437,1,l),
(437,358,l),
(304,358,ls),
(223,358,o),
(184,400,o),
(184,470,cs),
(184,541,o),
(223,583,o),
(304,583,cs),
(437,583,l),
(437,714,l),
(290,714,ls),
(123,714,o),
(37,623,o),
(37,469,cs),
(37,325,o),
(127,229,o),
(269,229,cs),
(327,229,l),
(289,267,l),
(289,1,l)
);
}
);
width = 490;
}
);
metricLeft = "=|ro-canadian";
metricRight = "nunavuth-canadian";
note = uni154B;
unicode = 5451;
},
{
glyphname = "laWestCree-canadian";
lastChange = "2023-01-13 15:28:11 +0000";
layers = (
{
anchors = (
{
name = top_center_can;
pos = (363,714);
}
);
layerId = "86DE26EB-3058-4E6D-9480-BC9D8886A6AA";
shapes = (
{
closed = 1;
nodes = (
(437,1,l),
(437,132,l),
(304,132,ls),
(223,132,o),
(184,174,o),
(184,244,cs),
(184,315,o),
(223,357,o),
(304,357,cs),
(437,357,l),
(437,714,l),
(289,714,l),
(289,448,l),
(327,486,l),
(269,486,ls),
(127,486,o),
(37,390,o),
(37,245,cs),
(37,92,o),
(123,1,o),
(290,1,cs)
);
}
);
width = 490;
}
);
metricLeft = "=|ro-canadian";
metricRight = "nunavuth-canadian";
note = uni154D;
unicode = 5453;
},
{
glyphname = "r-canadian";
kernLeft = mwestleft;
kernRight = mwestright;
lastChange = "2023-01-13 15:28:11 +0000";
layers = (
{
layerId = "86DE26EB-3058-4E6D-9480-BC9D8886A6AA";
shapes = (
{
closed = 1;
nodes = (
(242,357,l),
(242,545,l),
(180,545,ls),
(146,545,o),
(128,560,o),
(128,590,cs),
(128,619,o),
(147,635,o),
(181,635,cs),
(242,635,l),
(242,714,l),
(175,714,ls),
(85,714,o),
(35,668,o),
(35,590,cs),
(35,517,o),
(84,468,o),
(165,468,cs),
(194,468,l),
(145,491,l),
(145,357,l)
);
}
);
width = 287;
}
);
metricLeft = "=|k-canadian";
note = uni1550;
unicode = 5456;
},
{
glyphname = "rWestCree-canadian";
kernLeft = mwestleft;
kernRight = mwestright;
lastChange = "2023-01-13 15:28:11 +0000";
layers = (
{
layerId = "86DE26EB-3058-4E6D-9480-BC9D8886A6AA";
shapes = (
{
closed = 1;
nodes = (
(61,357,l),
(255,451,l),
(255,483,l),
(112,553,l),
(112,517,l),
(255,587,l),
(255,619,l),
(61,714,l),
(45.005,714,l),
(45,647,l),
(186,578,l),
(186,629,l),
(45,557,l),
(45,514,l),
(186,444,l),
(186,493,l),
(45,423,l),
(45.005,357,l)
);
}
);
width = 300;
}
);
metricLeft = "=|lWestCree-canadian";
metricRight = "=|lWestCree-canadian";
note = uni1551;
unicode = 5457;
},
{
glyphname = "rMedial-canadian";
lastChange = "2023-01-13 15:28:11 +0000";
layers = (
{
layerId = "86DE26EB-3058-4E6D-9480-BC9D8886A6AA";
shapes = (
{
closed = 1;
nodes = (
(83,-14,l),
(503,183,l),
(503,230,l),
(195,377,l),
(195,336,l),
(503,484,l),
(503,531,l),
(83,728,l),
(49,728,l),
(49,621,l),
(371,470,l),
(371,538,l),
(49,391,l),
(49,323,l),
(371,176,l),
(371,244,l),
(49,94,l),
(49,-14,l)
);
}
);
width = 552;
}
);
metricLeft = "mediall-canadian";
metricRight = "mediall-canadian";
note = uni1552;
unicode = 5458;
},
{
glyphname = "fe-canadian";
kernLeft = ecanleft;
kernRight = ecanright;
lastChange = "2023-01-13 15:28:11 +0000";
layers = (
{
layerId = "86DE26EB-3058-4E6D-9480-BC9D8886A6AA";
shapes = (
{
closed = 1;
nodes = (
(354,0,l),
(673,678,l),
(673,714,l),
(555,714,l),
(308,169,l),
(344,169,l),
(251,362,l),
(163,360,l),
(184,335,o),
(209,322,o),
(243,322,cs),
(322,322,o),
(395,403,o),
(395,527,cs),
(395,643,o),
(338,728,o),
(232,728,cs),
(127,728,o),
(69,643,o),
(69,536,cs),
(69,475,o),
(84,424,o),
(118,361,cs),
(311,0,l)
);
},
{
closed = 1;
nodes = (
(202,422,o),
(184,457,o),
(184,532,cs),
(184,600,o),
(204,625,o),
(233,625,cs),
(262,625,o),
(281,601,o),
(281,525,cs),
(281,450,o),
(262,422,o),
(233,422,cs)
);
}
);
width = 692;
}
);
metricRight = "e-canadian";
note = uni1553;
unicode = 5459;
},
{
glyphname = "fi-canadian";
kernLeft = icanleft;
kernRight = icanright;
lastChange = "2023-01-13 15:28:11 +0000";
layers = (
{
anchors = (
{
name = top_center_can;
pos = (334,714);
},
{
name = top_left_can;
pos = (130,714);
},
{
name = top_right_can;
pos = (552,714);
}
);
layerId = "86DE26EB-3058-4E6D-9480-BC9D8886A6AA";
shapes = (
{
closed = 1;
nodes = (
(338,-14,o),
(395,71,o),
(395,187,cs),
(395,311,o),
(322,392,o),
(243,392,cs),
(209,392,o),
(184,379,o),
(163,354,c),
(251,352,l),
(344,545,l),
(308,545,l),
(555,0,l),
(673,0,l),
(673,36,l),
(354,714,l),
(311,714,l),
(118,352,ls),
(84,290,o),
(69,239,o),
(69,178,cs),
(69,71,o),
(127,-14,o),
(232,-14,cs)
);
},
{
closed = 1;
nodes = (
(204,89,o),
(184,114,o),
(184,182,cs),
(184,257,o),
(202,292,o),
(233,292,cs),
(262,292,o),
(281,264,o),
(281,189,cs),
(281,113,o),
(262,89,o),
(233,89,cs)
);
}
);
width = 692;
}
);
metricLeft = "fe-canadian";
metricRight = "e-canadian";
note = uni1555;
unicode = 5461;
},
{
glyphname = "fo-canadian";
kernLeft = ocanleft;
kernRight = ocanright;
lastChange = "2023-01-13 15:28:11 +0000";
layers = (
{
anchors = (
{
name = top_center_can;
pos = (201,714);
}
);
layerId = "86DE26EB-3058-4E6D-9480-BC9D8886A6AA";
shapes = (
{
closed = 1;
nodes = (
(102,0,l),
(565,334,l),
(565,380,l),
(322,667,ls),
(283,714,o),
(240,728,o),
(196,728,cs),
(96,728,o),
(37,646,o),
(37,521,cs),
(37,402,o),
(101,319,o),
(198,319,cs),
(292,319,o),
(353,403,o),
(353,521,cs),
(353,554,o),
(344,597,o),
(334,624,c),
(286,534,l),
(434,360,l),
(434,389,l),
(67,124,l),
(67,0,l)
);
},
{
closed = 1;
nodes = (
(171,422,o),
(152,447,o),
(152,524,cs),
(152,600,o),
(171,625,o),
(201,625,cs),
(230,625,o),
(249,601,o),
(249,525,cs),
(249,450,o),
(230,422,o),
(201,422,cs)
);
}
);
width = 592;
}
);
metricRight = "o-canadian";
note = uni1557;
unicode = 5463;
},
{
glyphname = "fa-canadian";
kernLeft = acanleft;
kernRight = acanright;
lastChange = "2023-01-13 15:28:11 +0000";
layers = (
{
anchors = (
{
name = top_center_can;
pos = (393,714);
}
);
layerId = "86DE26EB-3058-4E6D-9480-BC9D8886A6AA";
shapes = (
{
closed = 1;
nodes = (
(525,0,l),
(525,124,l),
(158,388,l),
(158,361,l),
(306,535,l),
(258,624,l),
(248,597,o),
(239,554,o),
(239,521,cs),
(239,403,o),
(300,319,o),
(394,319,cs),
(491,319,o),
(555,402,o),
(555,521,cs),
(555,646,o),
(496,728,o),
(396,728,cs),
(352,728,o),
(309,714,o),
(270,667,cs),
(27,380,l),
(27,334,l),
(490,0,l)
);
},
{
closed = 1;
nodes = (
(362,422,o),
(343,449,o),
(343,525,cs),
(343,601,o),
(362,625,o),
(391,625,cs),
(421,625,o),
(440,600,o),
(440,524,cs),
(440,447,o),
(421,422,o),
(391,422,cs)
);
}
);
width = 592;
}
);
metricRight = "=|fo-canadian";
note = uni1559;
unicode = 5465;
},
{
glyphname = "f-canadian";
kernLeft = mwestleft;
kernRight = mwestright;
lastChange = "2023-01-13 15:28:11 +0000";
layers = (
{
layerId = "86DE26EB-3058-4E6D-9480-BC9D8886A6AA";
shapes = (
{
closed = 1;
nodes = (
(285,357,l),
(285,418,l),
(104,549,l),
(104,538,l),
(173,621,l),
(154,668,l),
(149,653,o),
(145,631,o),
(145,610,cs),
(145,549,o),
(179,514,o),
(223,514,cs),
(268,514,o),
(299,549,o),
(299,617,cs),
(299,693,o),
(260,720,o),
(219,720,cs),
(200,720,o),
(176,710,o),
(157,688,cs),
(35,546,l),
(35,522,l),
(268,357,l)
);
},
{
closed = 1;
nodes = (
(205,566,o),
(196,580,o),
(196,615,cs),
(196,654,o),
(205,668,o),
(220,668,cs),
(234,668,o),
(243,655,o),
(243,615,cs),
(243,580,o),
(236,566,o),
(220,566,cs)
);
}
);
width = 339;
}
);
note = uni155D;
unicode = 5469;
},
{
glyphname = "the-canadian";
lastChange = "2023-01-13 15:28:12 +0000";
layers = (
{
anchors = (
{
name = middle_right_can;
pos = (724,357);
},
{
name = top_center_can;
pos = (324,714);
},
{
name = top_left_can;
pos = (122,714);
},
{
name = top_right_can;
pos = (525,714);
}
);
layerId = "86DE26EB-3058-4E6D-9480-BC9D8886A6AA";
shapes = (
{
closed = 1;
nodes = (
(498,-14,o),
(599,88,o),
(599,281,cs),
(599,714,l),
(451,714,l),
(451,278,ls),
(451,170,o),
(408,120,o),
(324,120,cs),
(243,120,o),
(196,172,o),
(196,281,cs),
(196,418,l),
(132,371,l),
(149,339,o),
(183,316,o),
(219,316,cs),
(314,316,o),
(377,398,o),
(377,522,cs),
(377,644,o),
(322,728,o),
(217,728,cs),
(107,728,o),
(50,645,o),
(50,477,cs),
(50,320,ls),
(50,94,o),
(147,-14,o),
(324,-14,cs)
);
},
{
closed = 1;
nodes = (
(185,420,o),
(165,445,o),
(165,522,cs),
(165,600,o),
(185,625,o),
(214,625,cs),
(243,625,o),
(262,600,o),
(262,524,cs),
(262,448,o),
(244,420,o),
(215,420,cs)
);
}
);
width = 649;
}
);
metricLeft = "te-canadian";
metricRight = "te-canadian";
note = uni155E;
unicode = 5470;
},
{
glyphname = "theNCree-canadian";
lastChange = "2023-01-13 15:28:12 +0000";
layers = (
{
layerId = "86DE26EB-3058-4E6D-9480-BC9D8886A6AA";
shapes = (
{
closed = 1;
nodes = (
(502,-14,o),
(599,88,o),
(599,309,cs),
(599,477,ls),
(599,645,o),
(542,728,o),
(432,728,cs),
(327,728,o),
(272,644,o),
(272,522,cs),
(272,398,o),
(335,316,o),
(430,316,cs),
(466,316,o),
(500,339,o),
(517,371,c),
(453,418,l),
(453,278,ls),
(453,168,o),
(407,117,o),
(325,117,cs),
(241,117,o),
(198,168,o),
(198,275,cs),
(198,714,l),
(50,714,l),
(50,280,ls),
(50,88,o),
(150,-14,o),
(325,-14,cs)
);
},
{
closed = 1;
nodes = (
(405,420,o),
(387,448,o),
(387,524,cs),
(387,600,o),
(405,625,o),
(435,625,cs),
(464,625,o),
(484,600,o),
(484,522,cs),
(484,445,o),
(464,420,o),
(434,420,cs)
);
}
);
width = 649;
}
);
metricLeft = "te-canadian";
metricRight = "te-canadian";
note = uni155F;
unicode = 5471;
},
{
glyphname = "thi-canadian";
lastChange = "2023-01-13 15:28:12 +0000";
layers = (
{
anchors = (
{
name = top_center_can;
pos = (320,714);
}
);
layerId = "86DE26EB-3058-4E6D-9480-BC9D8886A6AA";
shapes = (
{
closed = 1;
nodes = (
(322,-14,o),
(377,70,o),
(377,192,cs),
(377,316,o),
(314,398,o),
(219,398,cs),
(183,398,o),
(149,375,o),
(132,343,c),
(196,296,l),
(196,436,ls),
(196,546,o),
(242,597,o),
(324,597,cs),
(408,597,o),
(451,546,o),
(451,439,cs),
(451,0,l),
(599,0,l),
(599,434,ls),
(599,626,o),
(499,728,o),
(324,728,cs),
(147,728,o),
(50,626,o),
(50,405,cs),
(50,237,ls),
(50,69,o),
(107,-14,o),
(217,-14,cs)
);
},
{
closed = 1;
nodes = (
(185,89,o),
(165,114,o),
(165,192,cs),
(165,269,o),
(185,294,o),
(215,294,cs),
(244,294,o),
(262,266,o),
(262,190,cs),
(262,114,o),
(243,89,o),
(214,89,cs)
);
}
);
width = 649;
}
);
metricLeft = "te-canadian";
metricRight = "te-canadian";
note = uni1560;
unicode = 5472;
},
{
glyphname = "thiNCree-canadian";
lastChange = "2023-01-13 15:28:12 +0000";
layers = (
{
anchors = (
{
name = top_center_can;
pos = (320,714);
}
);
layerId = "86DE26EB-3058-4E6D-9480-BC9D8886A6AA";
shapes = (
{
closed = 1;
nodes = (
(542,-14,o),
(599,69,o),
(599,237,cs),
(599,405,ls),
(599,626,o),
(502,728,o),
(325,728,cs),
(150,728,o),
(50,626,o),
(50,434,cs),
(50,0,l),
(198,0,l),
(198,439,ls),
(198,546,o),
(241,597,o),
(325,597,cs),
(407,597,o),
(453,546,o),
(453,436,cs),
(453,296,l),
(517,343,l),
(500,375,o),
(466,398,o),
(430,398,cs),
(335,398,o),
(272,316,o),
(272,192,cs),
(272,70,o),
(327,-14,o),
(432,-14,cs)
);
},
{
closed = 1;
nodes = (
(405,89,o),
(387,114,o),
(387,190,cs),
(387,266,o),
(405,294,o),
(434,294,cs),
(464,294,o),
(484,269,o),
(484,192,cs),
(484,114,o),
(464,89,o),
(435,89,cs)
);
}
);
width = 649;
}
);
metricLeft = "te-canadian";
metricRight = "te-canadian";
note = uni1561;
unicode = 5473;
},
{
glyphname = "tho-canadian";
lastChange = "2023-01-13 15:28:12 +0000";
layers = (
{
anchors = (
{
name = top_center_can;
pos = (263,714);
}
);
layerId = "86DE26EB-3058-4E6D-9480-BC9D8886A6AA";
shapes = (
{
closed = 1;
nodes = (
(219,0,ls),
(431,0,o),
(549,120,o),
(549,366,cs),
(549,590,o),
(436,728,o),
(269,728,cs),
(126,728,o),
(40,632,o),
(40,497,cs),
(40,367,o),
(103,289,o),
(200,289,cs),
(300,289,o),
(353,366,o),
(353,475,cs),
(353,580,o),
(315,662,o),
(230,669,c),
(200,625,l),
(211,632,o),
(230,635,o),
(245,635,cs),
(346,635,o),
(406,530,o),
(406,376,cs),
(406,202,o),
(343,134,o),
(212,134,cs),
(70,134,l),
(70,0,l)
);
},
{
closed = 1;
nodes = (
(175,392,o),
(155,418,o),
(155,501,cs),
(155,584,o),
(177,611,o),
(205,611,cs),
(233,611,o),
(252,585,o),
(252,502,cs),
(252,421,o),
(234,392,o),
(204,392,cs)
);
}
);
width = 594;
}
);
metricRight = "to-canadian";
note = uni1564;
unicode = 5476;
},
{
glyphname = "tha-canadian";
lastChange = "2023-01-13 15:31:04 +0000";
layers = (
{
anchors = (
{
name = top_center_can;
pos = (335,714);
}
);
layerId = "86DE26EB-3058-4E6D-9480-BC9D8886A6AA";
shapes = (
{
closed = 1;
nodes = (
(525,0,l),
(525,134,l),
(382,134,ls),
(252,134,o),
(189,202,o),
(189,376,cs),
(189,530,o),
(248,635,o),
(350,635,cs),
(364,635,o),
(384,632,o),
(394,625,c),
(364,669,l),
(280,662,o),
(241,580,o),
(241,475,cs),
(241,366,o),
(295,289,o),
(395,289,cs),
(492,289,o),
(554,367,o),
(554,497,cs),
(554,632,o),
(468,728,o),
(326,728,cs),
(159,728,o),
(45,590,o),
(45,366,cs),
(45,126,o),
(158,0,o),
(376,0,cs)
);
},
{
closed = 1;
nodes = (
(361,392,o),
(342,421,o),
(342,502,cs),
(342,585,o),
(362,611,o),
(390,611,cs),
(418,611,o),
(439,584,o),
(439,501,cs),
(439,418,o),
(420,392,o),
(390,392,cs)
);
}
);
width = 594;
}
);
metricLeft = "=|theCarrier-canadian";
metricRight = "=|tho-canadian";
note = uni1566;
unicode = 5478;
},
{
glyphname = "th-canadian";
kernLeft = mwestleft;
kernRight = mwestright;
lastChange = "2023-01-13 15:28:12 +0000";
layers = (
{
layerId = "86DE26EB-3058-4E6D-9480-BC9D8886A6AA";
shapes = (
{
closed = 1;
nodes = (
(279,357,l),
(279,438,l),
(219,438,ls),
(155,438,o),
(122,471,o),
(122,543,cs),
(122,615,o),
(153,662,o),
(204,662,cs),
(210,662,o),
(217,661,o),
(222,659,c),
(198,684,l),
(164,680,o),
(140,643,o),
(140,599,cs),
(140,532,o),
(172,497,o),
(216,497,cs),
(262,497,o),
(294,533,o),
(294,601,cs),
(294,681,o),
(248,720,o),
(186,720,cs),
(102,720,o),
(41,655,o),
(41,536,cs),
(41,424,o),
(99,357,o),
(212,357,cs)
);
},
{
closed = 1;
nodes = (
(200,548,o),
(191,562,o),
(191,597,cs),
(191,636,o),
(200,650,o),
(214,650,cs),
(229,650,o),
(238,637,o),
(238,597,cs),
(238,562,o),
(230,548,o),
(215,548,cs)
);
}
);
width = 334;
}
);
metricLeft = "t-canadian";
note = uni156A;
unicode = 5482;
},
{
glyphname = "tthe-canadian";
lastChange = "2023-01-13 15:31:04 +0000";
layers = (
{
anchors = (
{
name = middle_right_can;
pos = (716,357);
},
{
name = top_center_can;
pos = (320,714);
},
{
name = top_left_can;
pos = (125,714);
},
{
name = top_right_can;
pos = (517,714);
}
);
layerId = "86DE26EB-3058-4E6D-9480-BC9D8886A6AA";
shapes = (
{
closed = 1;
nodes = (
(494,-14,o),
(590,88,o),
(590,281,cs),
(590,714,l),
(453,714,l),
(453,279,ls),
(453,169,o),
(401,121,o),
(320,121,cs),
(242,121,o),
(188,172,o),
(188,279,cs),
(188,714,l),
(50,714,l),
(50,280,ls),
(50,88,o),
(150,-14,o),
(321,-14,cs)
);
},
{
closed = 1;
nodes = (
(375,395,l),
(375,714,l),
(265,714,l),
(265,395,l)
);
}
);
width = 640;
}
);
metricLeft = "te-canadian";
metricRight = "te-canadian";
note = uni156B;
unicode = 5483;
},
{
glyphname = "tthi-canadian";
lastChange = "2023-01-13 15:31:04 +0000";
layers = (
{
layerId = "86DE26EB-3058-4E6D-9480-BC9D8886A6AA";
shapes = (
{
closed = 1;
nodes = (
(188,0,l),
(188,435,ls),
(188,544,o),
(240,593,o),
(321,593,cs),
(399,593,o),
(453,542,o),
(453,435,cs),
(453,0,l),
(590,0,l),
(590,434,ls),
(590,626,o),
(491,728,o),
(321,728,cs),
(148,728,o),
(50,626,o),
(50,434,cs),
(50,0,l)
);
},
{
closed = 1;
nodes = (
(375,0,l),
(375,319,l),
(265,319,l),
(265,0,l)
);
}
);
width = 640;
}
);
metricLeft = "te-canadian";
metricRight = "te-canadian";
note = uni156C;
unicode = 5484;
},
{
glyphname = "ttho-canadian";
lastChange = "2023-01-13 15:28:12 +0000";
layers = (
{
anchors = (
{
name = top_center_can;
pos = (279,714);
},
{
name = top_left_can;
pos = (124,714);
},
{
name = top_right_can;
pos = (435,714);
}
);
layerId = "86DE26EB-3058-4E6D-9480-BC9D8886A6AA";
shapes = (
{
closed = 1;
nodes = (
(165,0,ls),
(383,0,o),
(507,120,o),
(507,358,cs),
(507,596,o),
(383,714,o),
(163,714,cs),
(50,714,l),
(50,580,l),
(164,580,ls),
(288,580,o),
(359,515,o),
(359,358,cs),
(359,201,o),
(288,134,o),
(165,134,cs),
(50,134,l),
(50,0,l)
);
},
{
closed = 1;
nodes = (
(248,297,l),
(248,419,l),
(50,419,l),
(50,297,l)
);
}
);
width = 552;
}
);
metricRight = "to-canadian";
note = uni156D;
unicode = 5485;
},
{
glyphname = "ttha-canadian";
lastChange = "2023-01-13 15:31:04 +0000";
layers = (
{
anchors = (
{
name = top_center_can;
pos = (274,714);
},
{
name = top_left_can;
pos = (119,714);
},
{
name = top_right_can;
pos = (430,714);
}
);
layerId = "86DE26EB-3058-4E6D-9480-BC9D8886A6AA";
shapes = (
{
closed = 1;
nodes = (
(502,0,l),
(502,134,l),
(389,134,ls),
(265,134,o),
(193,200,o),
(193,357,cs),
(193,514,o),
(265,580,o),
(388,580,cs),
(502,580,l),
(502,714,l),
(388,714,ls),
(170,714,o),
(45,595,o),
(45,357,cs),
(45,120,o),
(170,0,o),
(389,0,cs)
);
},
{
closed = 1;
nodes = (
(502,297,l),
(502,419,l),
(305,419,l),
(305,297,l)
);
}
);
width = 552;
}
);
metricLeft = "=|to-canadian";
metricRight = "=|ttho-canadian";
note = uni156E;
unicode = 5486;
},
{
glyphname = "tth-canadian";
lastChange = "2023-01-13 15:28:12 +0000";
layers = (
{
layerId = "86DE26EB-3058-4E6D-9480-BC9D8886A6AA";
shapes = (
{
closed = 1;
nodes = (
(579,496,l),
(543,496,l),
(627,373,l),
(693,422,l),
(607,542,l),
(596,508,l),
(724,557,l),
(696,630,l),
(570,580,l),
(603,560,l),
(603,714,l),
(520,714,l),
(520,560,l),
(552,580,l),
(426,630,l),
(398,557,l),
(526,508,l),
(515,542,l),
(429,422,l),
(496,373,l)
);
},
{
closed = 1;
nodes = (
(213,496,l),
(176,496,l),
(261,373,l),
(328,422,l),
(240,542,l),
(230,508,l),
(358,557,l),
(329,630,l),
(204,580,l),
(236,560,l),
(236,714,l),
(153,714,l),
(153,560,l),
(186,580,l),
(60,630,l),
(32,557,l),
(160,508,l),
(148,542,l),
(62,422,l),
(128,373,l)
);
}
);
width = 756;
}
);
metricRight = "=|";
note = uni156F;
unicode = 5487;
},
{
glyphname = "tye-canadian";
lastChange = "2023-01-13 15:31:04 +0000";
layers = (
{
layerId = "86DE26EB-3058-4E6D-9480-BC9D8886A6AA";
shapes = (
{
closed = 1;
nodes = (
(494,-14,o),
(590,88,o),
(590,281,cs),
(590,714,l),
(453,714,l),
(453,289,ls),
(453,169,o),
(401,121,o),
(320,121,cs),
(242,121,o),
(188,172,o),
(188,289,cs),
(188,714,l),
(50,714,l),
(50,280,ls),
(50,88,o),
(150,-14,o),
(321,-14,cs)
);
},
{
closed = 1;
nodes = (
(381,425,o),
(413,465,o),
(413,527,cs),
(413,714,l),
(351,714,l),
(351,530,ls),
(351,503,o),
(340,490,o),
(320,490,cs),
(301,490,o),
(290,503,o),
(290,530,cs),
(290,714,l),
(228,714,l),
(228,527,ls),
(228,464,o),
(261,425,o),
(321,425,cs)
);
}
);
width = 640;
}
);
metricLeft = "te-canadian";
metricRight = "te-canadian";
note = uni1570;
unicode = 5488;
},
{
glyphname = "tyi-canadian";
lastChange = "2023-01-13 15:31:04 +0000";
layers = (
{
layerId = "86DE26EB-3058-4E6D-9480-BC9D8886A6AA";
shapes = (
{
closed = 1;
nodes = (
(188,0,l),
(188,425,ls),
(188,544,o),
(240,593,o),
(321,593,cs),
(399,593,o),
(453,542,o),
(453,425,cs),
(453,0,l),
(590,0,l),
(590,434,ls),
(590,626,o),
(491,728,o),
(321,728,cs),
(148,728,o),
(50,626,o),
(50,434,cs),
(50,0,l)
);
},
{
closed = 1;
nodes = (
(290,0,l),
(290,183,ls),
(290,211,o),
(301,224,o),
(321,224,cs),
(340,224,o),
(351,211,o),
(351,183,cs),
(351,0,l),
(413,0,l),
(413,187,ls),
(413,250,o),
(380,289,o),
(320,289,cs),
(260,289,o),
(228,249,o),
(228,187,cs),
(228,0,l)
);
}
);
width = 640;
}
);
metricLeft = "te-canadian";
metricRight = "te-canadian";
note = uni1571;
unicode = 5489;
},
{
glyphname = "tyo-canadian";
lastChange = "2023-01-13 15:31:04 +0000";
layers = (
{
layerId = "86DE26EB-3058-4E6D-9480-BC9D8886A6AA";
shapes = (
{
closed = 1;
nodes = (
(167,0,ls),
(379,0,o),
(510,120,o),
(510,358,cs),
(510,596,o),
(379,714,o),
(166,714,cs),
(53,714,l),
(53,583,l),
(153,583,ls),
(289,583,o),
(363,517,o),
(363,358,cs),
(363,199,o),
(289,131,o),
(155,131,cs),
(53,131,l),
(53,0,l)
);
},
{
closed = 1;
nodes = (
(118,223,ls),
(200,223,o),
(250,270,o),
(250,357,cs),
(250,445,o),
(200,491,o),
(118,491,cs),
(53,491,l),
(53,417,l),
(107,417,ls),
(152,417,o),
(171,397,o),
(171,357,cs),
(171,317,o),
(152,297,o),
(107,297,cs),
(53,297,l),
(53,223,l)
);
}
);
width = 555;
}
);
metricLeft = "nunavuth-canadian";
metricRight = "theCarrier-canadian";
note = uni1572;
unicode = 5490;
},
{
glyphname = "tya-canadian";
lastChange = "2023-01-13 15:31:04 +0000";
layers = (
{
layerId = "86DE26EB-3058-4E6D-9480-BC9D8886A6AA";
shapes = (
{
closed = 1;
nodes = (
(502,0,l),
(502,131,l),
(402,131,ls),
(266,131,o),
(193,198,o),
(193,357,cs),
(193,516,o),
(266,583,o),
(401,583,cs),
(502,583,l),
(502,714,l),
(388,714,ls),
(177,714,o),
(45,595,o),
(45,357,cs),
(45,120,o),
(177,0,o),
(389,0,cs)
);
},
{
closed = 1;
nodes = (
(502,223,l),
(502,297,l),
(449,297,ls),
(403,297,o),
(385,317,o),
(385,357,cs),
(385,397,o),
(403,417,o),
(448,417,cs),
(502,417,l),
(502,491,l),
(437,491,ls),
(355,491,o),
(306,444,o),
(306,357,cs),
(306,269,o),
(355,223,o),
(437,223,cs)
);
}
);
width = 555;
}
);
metricLeft = "=|theCarrier-canadian";
metricRight = "nunavuth-canadian";
note = uni1573;
unicode = 5491;
},
{
glyphname = "heNunavik-canadian";
lastChange = "2023-01-13 15:28:12 +0000";
layers = (
{
layerId = "86DE26EB-3058-4E6D-9480-BC9D8886A6AA";
shapes = (
{
closed = 1;
nodes = (
(463,0,l),
(675,206,l),
(588,299,l),
(386,104,l),
(479,97,l),
(479,456,ls),
(479,629,o),
(403,728,o),
(264,728,cs),
(125,728,o),
(40,626,o),
(40,457,cs),
(40,297,o),
(120,193,o),
(239,193,cs),
(294,193,o),
(335,226,o),
(345,262,c),
(333,284,l),
(333,0,l)
);
},
{
closed = 1;
nodes = (
(215,318,o),
(184,360,o),
(184,461,cs),
(184,562,o),
(212,604,o),
(259,604,cs),
(306,604,o),
(335,563,o),
(335,461,cs),
(335,359,o),
(304,318,o),
(259,318,cs)
);
}
);
width = 691;
}
);
metricLeft = "ke-canadian";
note = uni1574;
unicode = 5492;
},
{
glyphname = "hiNunavik-canadian";
lastChange = "2023-01-13 15:28:12 +0000";
layers = (
{
anchors = (
{
name = top_center_can;
pos = (428,714);
}
);
layerId = "86DE26EB-3058-4E6D-9480-BC9D8886A6AA";
shapes = (
{
closed = 1;
nodes = (
(358,0,l),
(358,284,l),
(346,262,l),
(356,226,o),
(397,193,o),
(452,193,cs),
(571,193,o),
(651,298,o),
(651,457,cs),
(651,626,o),
(566,728,o),
(428,728,cs),
(289,728,o),
(212,629,o),
(212,456,cs),
(212,100,l),
(305,104,l),
(103,299,l),
(16,206,l),
(228,0,l)
);
},
{
closed = 1;
nodes = (
(387,318,o),
(356,359,o),
(356,461,cs),
(356,563,o),
(385,604,o),
(431,604,cs),
(479,604,o),
(507,562,o),
(507,461,cs),
(507,360,o),
(476,318,o),
(431,318,cs)
);
}
);
width = 691;
}
);
metricLeft = "=|heNunavik-canadian";
metricRight = "=|ke-canadian";
note = uni1575;
unicode = 5493;
},
{
glyphname = "hoNunavik-canadian";
lastChange = "2023-01-13 15:28:12 +0000";
layers = (
{
anchors = (
{
name = top_center_can;
pos = (258,714);
},
{
name = top_right_can;
pos = (406,714);
}
);
layerId = "86DE26EB-3058-4E6D-9480-BC9D8886A6AA";
shapes = (
{
closed = 1;
nodes = (
(403,-14,o),
(479,85,o),
(479,258,cs),
(479,617,l),
(386,610,l),
(588,415,l),
(675,508,l),
(463,714,l),
(333,714,l),
(333,430,l),
(345,452,l),
(335,488,o),
(294,521,o),
(239,521,cs),
(120,521,o),
(40,416,o),
(40,256,cs),
(40,88,o),
(124,-14,o),
(263,-14,cs)
);
},
{
closed = 1;
nodes = (
(212,110,o),
(184,152,o),
(184,253,cs),
(184,354,o),
(215,396,o),
(259,396,cs),
(304,396,o),
(335,355,o),
(335,253,cs),
(335,151,o),
(306,110,o),
(259,110,cs)
);
}
);
width = 691;
}
);
metricLeft = "ke-canadian";
metricRight = "heNunavik-canadian";
note = uni1577;
unicode = 5495;
},
{
glyphname = "haNunavik-canadian";
lastChange = "2023-01-13 15:28:12 +0000";
layers = (
{
anchors = (
{
name = top_center_can;
pos = (433,714);
},
{
name = top_left_can;
pos = (285,714);
}
);
layerId = "86DE26EB-3058-4E6D-9480-BC9D8886A6AA";
shapes = (
{
closed = 1;
nodes = (
(566,-14,o),
(651,88,o),
(651,257,cs),
(651,416,o),
(571,521,o),
(453,521,cs),
(397,521,o),
(357,488,o),
(346,452,c),
(358,430,l),
(358,714,l),
(228,714,l),
(16,508,l),
(103,415,l),
(305,610,l),
(212,614,l),
(212,258,ls),
(212,85,o),
(288,-14,o),
(427,-14,cs)
);
},
{
closed = 1;
nodes = (
(385,110,o),
(356,151,o),
(356,253,cs),
(356,355,o),
(387,396,o),
(431,396,cs),
(476,396,o),
(507,354,o),
(507,253,cs),
(507,152,o),
(479,110,o),
(431,110,cs)
);
}
);
width = 691;
}
);
metricLeft = "=|heNunavik-canadian";
metricRight = "=|ke-canadian";
note = uni1579;
unicode = 5497;
},
{
glyphname = "hNunavik-canadian";
kernLeft = mwestleft;
kernRight = mwestright;
lastChange = "2023-01-13 15:28:12 +0000";
layers = (
{
layerId = "86DE26EB-3058-4E6D-9480-BC9D8886A6AA";
shapes = (
{
closed = 1;
nodes = (
(316,351,o),
(370,396,o),
(370,492,cs),
(370,575,o),
(326,622,o),
(269,622,cs),
(232,622,o),
(205,599,o),
(199,565,c),
(220,565,l),
(220,714,l),
(130,714,l),
(25,611,l),
(73,562,l),
(178,666,l),
(122,666,l),
(122,487,ls),
(122,404,o),
(168,351,o),
(249,351,cs)
);
},
{
closed = 1;
nodes = (
(227,422,o),
(212,438,o),
(212,486,cs),
(212,534,o),
(228,551,o),
(248,551,cs),
(267,551,o),
(284,535,o),
(284,486,cs),
(284,438,o),
(268,422,o),
(248,422,cs)
);
}
);
width = 405;
}
);
metricRight = "k-canadian";
note = uni157B;
unicode = 5499;
},
{
color = 4;
glyphname = "nunavuth-canadian";
lastChange = "2023-01-13 15:28:12 +0000";
layers = (
{
layerId = "86DE26EB-3058-4E6D-9480-BC9D8886A6AA";
shapes = (
{
closed = 1;
nodes = (
(200,303,l),
(420,303,l),
(420,0,l),
(567,0,l),
(567,714,l),
(420,714,l),
(420,434,l),
(200,434,l),
(200,714,l),
(53,714,l),
(53,0,l),
(200,0,l)
);
}
);
width = 620;
}
);
metricRight = "=|";
note = uni157C;
unicode = 5500;
},
{
glyphname = "tlhe-canadian";
lastChange = "2023-01-13 15:31:04 +0000";
layers = (
{
anchors = (
{
name = top_center_can;
pos = (273,714);
}
);
layerId = "86DE26EB-3058-4E6D-9480-BC9D8886A6AA";
shapes = (
{
closed = 1;
nodes = (
(203,0,l),
(307,275,l),
(199,233,l),
(213,228,o),
(231,226,o),
(248,226,cs),
(311,226,o),
(352,263,o),
(358,296,c),
(347,339,l),
(347,0,l),
(492,0,l),
(492,473,ls),
(492,633,o),
(415,728,o),
(274,728,cs),
(131,728,o),
(47,628,o),
(47,473,cs),
(47,371,o),
(86,295,o),
(149,259,c),
(50,0,l)
);
},
{
closed = 1;
nodes = (
(223,350,o),
(191,388,o),
(191,477,cs),
(191,566,o),
(221,604,o),
(270,604,cs),
(318,604,o),
(348,566,o),
(348,477,cs),
(348,388,o),
(316,350,o),
(270,350,cs)
);
}
);
width = 542;
}
);
metricRight = "te-canadian";
note = uni1586;
unicode = 5510;
},
{
glyphname = "tlhi-canadian";
lastChange = "2023-01-13 15:28:12 +0000";
layers = (
{
layerId = "86DE26EB-3058-4E6D-9480-BC9D8886A6AA";
shapes = (
{
closed = 1;
nodes = (
(196,0,l),
(196,339,l),
(184,298,l),
(188,265,o),
(230,226,o),
(294,226,c),
(235,275,l),
(339,0,l),
(493,0,l),
(394,259,l),
(457,295,o),
(496,371,o),
(496,473,cs),
(496,628,o),
(412,728,o),
(269,728,cs),
(127,728,o),
(50,633,o),
(50,473,cs),
(50,0,l)
);
},
{
closed = 1;
nodes = (
(227,350,o),
(195,388,o),
(195,477,cs),
(195,566,o),
(225,604,o),
(273,604,cs),
(322,604,o),
(352,566,o),
(352,477,cs),
(352,388,o),
(320,350,o),
(273,350,cs)
);
}
);
width = 543;
}
);
metricLeft = "te-canadian";
metricRight = "=|tlhe-canadian";
note = uni1587;
unicode = 5511;
},
{
glyphname = "tlho-canadian";
lastChange = "2023-01-13 15:31:04 +0000";
layers = (
{
anchors = (
{
name = top_center_can;
pos = (278,714);
}
);
layerId = "86DE26EB-3058-4E6D-9480-BC9D8886A6AA";
shapes = (
{
closed = 1;
nodes = (
(415,-14,o),
(492,81,o),
(492,241,cs),
(492,714,l),
(347,714,l),
(347,375,l),
(359,416,l),
(355,449,o),
(313,488,o),
(248,488,c),
(307,439,l),
(203,714,l),
(50,714,l),
(149,455,l),
(86,419,o),
(47,343,o),
(47,241,cs),
(47,86,o),
(131,-14,o),
(274,-14,cs)
);
},
{
closed = 1;
nodes = (
(221,110,o),
(191,148,o),
(191,237,cs),
(191,326,o),
(223,364,o),
(270,364,cs),
(316,364,o),
(348,326,o),
(348,237,cs),
(348,148,o),
(318,110,o),
(270,110,cs)
);
}
);
width = 542;
}
);
metricLeft = "tlhe-canadian";
metricRight = "te-canadian";
note = uni1588;
unicode = 5512;
},
{
glyphname = "tlha-canadian";
lastChange = "2023-01-13 15:28:12 +0000";
layers = (
{
layerId = "86DE26EB-3058-4E6D-9480-BC9D8886A6AA";
shapes = (
{
closed = 1;
nodes = (
(412,-14,o),
(496,86,o),
(496,241,cs),
(496,343,o),
(457,419,o),
(394,455,c),
(493,714,l),
(339,714,l),
(235,439,l),
(344,481,l),
(329,486,o),
(312,488,o),
(294,488,cs),
(230,488,o),
(188,449,o),
(184,416,c),
(196,375,l),
(196,714,l),
(50,714,l),
(50,241,ls),
(50,81,o),
(127,-14,o),
(269,-14,cs)
);
},
{
closed = 1;
nodes = (
(225,110,o),
(195,148,o),
(195,237,cs),
(195,326,o),
(227,364,o),
(273,364,cs),
(320,364,o),
(352,326,o),
(352,237,cs),
(352,148,o),
(322,110,o),
(273,110,cs)
);
}
);
width = 543;
}
);
metricLeft = "te-canadian";
note = uni1589;
unicode = 5513;
},
{
glyphname = "reWestCree-canadian";
lastChange = "2023-01-13 15:28:12 +0000";
layers = (
{
layerId = "86DE26EB-3058-4E6D-9480-BC9D8886A6AA";
shapes = (
{
closed = 1;
nodes = (
(453,0,l),
(665,206,l),
(578,299,l),
(376,104,l),
(469,97,l),
(469,467,ls),
(469,631,o),
(395,728,o),
(256,728,cs),
(120,728,o),
(37,637,o),
(37,468,cs),
(37,395,l),
(183,395,l),
(183,494,ls),
(183,563,o),
(207,600,o),
(254,600,cs),
(298,600,o),
(323,565,o),
(323,492,cs),
(323,0,l)
);
}
);
width = 681;
}
);
metricLeft = "ce-canadian";
metricRight = "heNunavik-canadian";
note = uni158A;
unicode = 5514;
},
{
glyphname = "riWestCree-canadian";
lastChange = "2023-01-13 15:28:12 +0000";
layers = (
{
layerId = "86DE26EB-3058-4E6D-9480-BC9D8886A6AA";
shapes = (
{
closed = 1;
nodes = (
(358,0,l),
(358,492,ls),
(358,565,o),
(383,600,o),
(428,600,cs),
(474,600,o),
(498,563,o),
(498,494,cs),
(498,395,l),
(644,395,l),
(644,468,ls),
(644,637,o),
(562,728,o),
(426,728,cs),
(286,728,o),
(212,630,o),
(212,467,cs),
(212,97,l),
(305,104,l),
(103,299,l),
(16,206,l),
(228,0,l)
);
}
);
width = 681;
}
);
metricLeft = "=|heNunavik-canadian";
metricRight = "=|ce-canadian";
note = uni158B;
unicode = 5515;
},
{
glyphname = "roWestCree-canadian";
lastChange = "2023-01-13 15:28:12 +0000";
layers = (
{
layerId = "86DE26EB-3058-4E6D-9480-BC9D8886A6AA";
shapes = (
{
closed = 1;
nodes = (
(395,-14,o),
(469,83,o),
(469,247,cs),
(469,617,l),
(376,610,l),
(578,415,l),
(665,508,l),
(453,714,l),
(323,714,l),
(323,222,ls),
(323,149,o),
(298,114,o),
(254,114,cs),
(207,114,o),
(183,151,o),
(183,221,cs),
(183,319,l),
(37,319,l),
(37,246,ls),
(37,77,o),
(118,-14,o),
(256,-14,cs)
);
}
);
width = 681;
}
);
metricLeft = "ce-canadian";
metricRight = "heNunavik-canadian";
note = uni158C;
unicode = 5516;
},
{
glyphname = "raWestCree-canadian";
lastChange = "2023-01-13 15:28:12 +0000";
layers = (
{
layerId = "86DE26EB-3058-4E6D-9480-BC9D8886A6AA";
shapes = (
{
closed = 1;
nodes = (
(562,-14,o),
(644,77,o),
(644,246,cs),
(644,319,l),
(498,319,l),
(498,221,ls),
(498,151,o),
(474,114,o),
(427,114,cs),
(383,114,o),
(358,149,o),
(358,222,cs),
(358,714,l),
(228,714,l),
(16,508,l),
(103,415,l),
(305,610,l),
(212,617,l),
(212,247,ls),
(212,83,o),
(285,-14,o),
(426,-14,cs)
);
}
);
width = 681;
}
);
metricLeft = "=|heNunavik-canadian";
metricRight = "=|ce-canadian";
note = uni158D;
unicode = 5517;
},
{
glyphname = "ng-canadian";
kernLeft = mwestleft;
kernRight = mwestright;
lastChange = "2023-01-13 15:28:12 +0000";
layers = (
{
layerId = "86DE26EB-3058-4E6D-9480-BC9D8886A6AA";
shapes = (
{
closed = 1;
nodes = (
(479,225,o),
(526,271,o),
(526,355,cs),
(526,381,l),
(436,381,l),
(436,346,ls),
(436,315,o),
(424,301,o),
(403,301,cs),
(383,301,o),
(373,315,o),
(373,347,cs),
(373,542,l),
(246,542,l),
(248,500,l),
(264,512,o),
(278,548,o),
(278,590,cs),
(278,670,o),
(235,720,o),
(157,720,cs),
(80,720,o),
(35.005,668.007,o),
(35,585,cs),
(35,503,o),
(80,449,o),
(162,449,cs),
(296,449,l),
(276,473,l),
(276,359,ls),
(276,272,o),
(320,225,o),
(402,225,cs)
);
},
{
closed = 1;
nodes = (
(135,520,o),
(121,539,o),
(121,585,cs),
(121,631,o),
(135,649,o),
(157,649,cs),
(179,649,o),
(192,629,o),
(192,584,cs),
(192,540,o),
(179,520,o),
(157,520,cs)
);
}
);
width = 550;
}
);
metricLeft = "n-canadian";
metricRight = "c-canadian";
note = uni1595;
unicode = 5525;
},
{
glyphname = "nng-canadian";
kernLeft = mwestleft;
kernRight = mwestright;
lastChange = "2023-01-13 15:28:12 +0000";
layers = (
{
layerId = "86DE26EB-3058-4E6D-9480-BC9D8886A6AA";
shapes = (
{
closed = 1;
nodes = (
(749,225,o),
(797,271,o),
(797,355,cs),
(797,381,l),
(706,381,l),
(706,346,ls),
(706,315,o),
(694,301,o),
(674,301,cs),
(654,301,o),
(644,315,o),
(644,347,cs),
(644,542,l),
(521,542,l),
(521,500,l),
(537,512,o),
(551,548,o),
(551,590,cs),
(551,673,o),
(508,720,o),
(430,720,cs),
(353,720,o),
(308,668,o),
(308,586,cs),
(308,546,o),
(322,509,o),
(338,497,c),
(339,542,l),
(247,542,l),
(248,500,l),
(264,512,o),
(278,548,o),
(278,590,cs),
(278,670,o),
(235,720,o),
(157,720,cs),
(80,720,o),
(35.005,668.007,o),
(35,585,cs),
(35,503,o),
(80,449,o),
(162,449,cs),
(547,449,l),
(547,359,ls),
(547,272,o),
(591,225,o),
(673,225,cs)
);
},
{
closed = 1;
nodes = (
(135,520,o),
(121,539,o),
(121,585,cs),
(121,631,o),
(135,649,o),
(157,649,cs),
(179,649,o),
(192,629,o),
(192,584,cs),
(192,540,o),
(179,520,o),
(157,520,cs)
);
},
{
closed = 1;
nodes = (
(408,520,o),
(394,539,o),
(394,585,cs),
(394,631,o),
(408,649,o),
(430,649,cs),
(452,649,o),
(465,629,o),
(465,584,cs),
(465,540,o),
(452,520,o),
(430,520,cs)
);
}
);
width = 821;
}
);
metricLeft = "n-canadian";
metricRight = "c-canadian";
note = uni1596;
unicode = 5526;
},
{
glyphname = "sheSayisi-canadian";
lastChange = "2023-01-13 15:28:12 +0000";
layers = (
{
anchors = (
{
name = middle_right_can;
pos = (613,357);
},
{
name = top_center_can;
pos = (269,714);
}
);
layerId = "86DE26EB-3058-4E6D-9480-BC9D8886A6AA";
shapes = (
{
closed = 1;
nodes = (
(489,0,l),
(489,462,ls),
(489,629,o),
(414,728,o),
(269,728,cs),
(126,728,o),
(40,625,o),
(40,447,cs),
(40,275,o),
(106,194,o),
(191,194,cs),
(278,194,o),
(319,259,o),
(311,428,c),
(253,428,l),
(257,332,o),
(242,314,o),
(222,314,cs),
(197,314,o),
(181,340,o),
(181,451,cs),
(181,562,o),
(211,604,o),
(264,604,cs),
(315,604,o),
(341,563,o),
(341,452,cs),
(341,0,l)
);
}
);
width = 539;
}
);
metricLeft = "ke-canadian";
metricRight = "te-canadian";
note = uni1597;
unicode = 5527;
},
{
glyphname = "shiSayisi-canadian";
lastChange = "2023-01-13 15:28:12 +0000";
layers = (
{
layerId = "86DE26EB-3058-4E6D-9480-BC9D8886A6AA";
shapes = (
{
closed = 1;
nodes = (
(198,0,l),
(198,452,ls),
(198,563,o),
(225,604,o),
(276,604,cs),
(329,604,o),
(359,562,o),
(359,451,cs),
(359,341,o),
(342,314,o),
(317,314,cs),
(297,314,o),
(283,332,o),
(287,428,c),
(228,428,l),
(220,259,o),
(261,194,o),
(348,194,cs),
(433,194,o),
(499,275,o),
(499,447,cs),
(499,625,o),
(414,728,o),
(272,728,cs),
(126,728,o),
(50,629,o),
(50,462,cs),
(50,0,l)
);
}
);
width = 539;
}
);
metricLeft = "te-canadian";
metricRight = "=|ke-canadian";
note = uni1598;
unicode = 5528;
},
{
glyphname = "shoSayisi-canadian";
lastChange = "2023-01-13 15:28:12 +0000";
layers = (
{
anchors = (
{
name = top_center_can;
pos = (264,714);
},
{
name = top_left_can;
pos = (110,714);
},
{
name = top_right_can;
pos = (416,714);
}
);
layerId = "86DE26EB-3058-4E6D-9480-BC9D8886A6AA";
shapes = (
{
closed = 1;
nodes = (
(413,-14,o),
(489,85,o),
(489,252,cs),
(489,714,l),
(341,714,l),
(341,262,ls),
(341,151,o),
(315,110,o),
(264,110,cs),
(211,110,o),
(181,152,o),
(181,263,cs),
(181,373,o),
(197,400,o),
(222,400,cs),
(242,400,o),
(257,382,o),
(253,286,c),
(311,286,l),
(319,455,o),
(279,520,o),
(191,520,cs),
(106,520,o),
(40,439,o),
(40,266,cs),
(40,89,o),
(125,-14,o),
(267,-14,cs)
);
}
);
width = 539;
}
);
metricLeft = "ke-canadian";
metricRight = "te-canadian";
note = uni1599;
unicode = 5529;
},
{
glyphname = "shaSayisi-canadian";
lastChange = "2023-01-13 15:28:12 +0000";
layers = (
{
layerId = "86DE26EB-3058-4E6D-9480-BC9D8886A6AA";
shapes = (
{
closed = 1;
nodes = (
(413,-14,o),
(499,89,o),
(499,267,cs),
(499,439,o),
(434,520,o),
(349,520,cs),
(262,520,o),
(220,455,o),
(228,286,c),
(287,286,l),
(283,382,o),
(297,400,o),
(317,400,cs),
(342,400,o),
(359,374,o),
(359,263,cs),
(359,152,o),
(328,110,o),
(275,110,cs),
(224,110,o),
(198,151,o),
(198,262,cs),
(198,714,l),
(50,714,l),
(50,252,ls),
(50,85,o),
(125,-14,o),
(270,-14,cs)
);
}
);
width = 539;
}
);
metricLeft = "te-canadian";
metricRight = "=|ke-canadian";
note = uni159A;
unicode = 5530;
},
{
glyphname = "theWoodScree-canadian";
lastChange = "2023-01-13 15:28:12 +0000";
layers = (
{
layerId = "86DE26EB-3058-4E6D-9480-BC9D8886A6AA";
shapes = (
{
closed = 1;
nodes = (
(582,-14,o),
(673,75,o),
(673,246,cs),
(673,419,o),
(585,506,o),
(429,506,cs),
(43,506,l),
(43,385,l),
(288,385,l),
(277,408,l),
(245,371,o),
(228,305,o),
(228,239,cs),
(228,74,o),
(314,-14,o),
(450,-14,cs)
);
},
{
closed = 1;
nodes = (
(401,110,o),
(372,152,o),
(372,247,cs),
(372,340,o),
(401,384,o),
(450,384,cs),
(499,384,o),
(529,342,o),
(529,247,cs),
(529,152,o),
(499,110,o),
(450,110,cs)
);
},
{
closed = 1;
nodes = (
(663,593,l),
(663,714,l),
(43,714,l),
(43,593,l)
);
}
);
width = 716;
}
);
note = uni159B;
unicode = 5531;
},
{
glyphname = "thiWoodScree-canadian";
kernRight = niright;
lastChange = "2023-01-13 15:28:12 +0000";
layers = (
{
layerId = "86DE26EB-3058-4E6D-9480-BC9D8886A6AA";
shapes = (
{
closed = 1;
nodes = (
(403,-14,o),
(489,74,o),
(489,239,cs),
(489,305,o),
(471,371,o),
(439,408,c),
(428,385,l),
(673,385,l),
(673,506,l),
(288,506,ls),
(131,506,o),
(43,417,o),
(43,246,cs),
(43,75,o),
(134,-14,o),
(266,-14,cs)
);
},
{
closed = 1;
nodes = (
(217,110,o),
(188,152,o),
(188,247,cs),
(188,342,o),
(217,384,o),
(266,384,cs),
(315,384,o),
(344,340,o),
(344,247,cs),
(344,152,o),
(316,110,o),
(266,110,cs)
);
},
{
closed = 1;
nodes = (
(673,593,l),
(673,714,l),
(54,714,l),
(54,593,l)
);
}
);
width = 716;
}
);
metricLeft = "theWoodScree-canadian";
metricRight = "theWoodScree-canadian";
note = uni159C;
unicode = 5532;
},
{
glyphname = "thoWoodScree-canadian";
lastChange = "2023-01-13 15:28:12 +0000";
layers = (
{
layerId = "86DE26EB-3058-4E6D-9480-BC9D8886A6AA";
shapes = (
{
closed = 1;
nodes = (
(431,0,ls),
(585,0,o),
(673,88,o),
(673,260,cs),
(673,431,o),
(583,521,o),
(450,521,cs),
(314,521,o),
(228,431,o),
(228,267,cs),
(228,202,o),
(245,136,o),
(277,99,c),
(288,121,l),
(43,121,l),
(43,0,l)
);
},
{
closed = 1;
nodes = (
(401,123,o),
(372,167,o),
(372,259,cs),
(372,354,o),
(401,396,o),
(450,396,cs),
(499,396,o),
(529,355,o),
(529,259,cs),
(529,164,o),
(499,123,o),
(450,123,cs)
);
},
{
closed = 1;
nodes = (
(663,593,l),
(663,714,l),
(43,714,l),
(43,593,l)
);
}
);
width = 716;
}
);
metricLeft = "theWoodScree-canadian";
metricRight = "theWoodScree-canadian";
note = uni159D;
unicode = 5533;
},
{
glyphname = "thaWoodScree-canadian";
lastChange = "2023-01-13 15:28:12 +0000";
layers = (
{
layerId = "86DE26EB-3058-4E6D-9480-BC9D8886A6AA";
shapes = (
{
closed = 1;
nodes = (
(673,0,l),
(673,121,l),
(428,121,l),
(439,98,l),
(471,135,o),
(489,201,o),
(489,267,cs),
(489,432,o),
(403,521,o),
(266,521,cs),
(134,521,o),
(43,431,o),
(43,260,cs),
(43,89,o),
(131,0,o),
(286,0,cs)
);
},
{
closed = 1;
nodes = (
(217,123,o),
(188,164,o),
(188,259,cs),
(188,355,o),
(217,396,o),
(266,396,cs),
(316,396,o),
(344,354,o),
(344,259,cs),
(344,167,o),
(315,123,o),
(266,123,cs)
);
},
{
closed = 1;
nodes = (
(673,593,l),
(673,714,l),
(54,714,l),
(54,593,l)
);
}
);
width = 716;
}
);
metricLeft = "theWoodScree-canadian";
metricRight = "theWoodScree-canadian";
note = uni159E;
unicode = 5534;
},
{
glyphname = "thWoodScree-canadian";
lastChange = "2023-01-13 15:28:12 +0000";
layers = (
{
layerId = "86DE26EB-3058-4E6D-9480-BC9D8886A6AA";
shapes = (
{
closed = 1;
nodes = (
(387,356,l),
(387,441,l),
(252,441,l),
(257,406,l),
(274,418,o),
(288,454,o),
(288,497,cs),
(288,577,o),
(245,627,o),
(167,627,cs),
(90,627,o),
(45,575,o),
(45,492,cs),
(45,410,o),
(90,356,o),
(172,356,cs)
);
},
{
closed = 1;
nodes = (
(145,427,o),
(131,446,o),
(131,492,cs),
(131,538,o),
(145,556,o),
(167,556,cs),
(189,556,o),
(202,536,o),
(202,491,cs),
(202,447,o),
(189,427,o),
(167,427,cs)
);
},
{
closed = 1;
nodes = (
(377,670,l),
(377,755,l),
(49,755,l),
(49,670,l)
);
}
);
width = 432;
}
);
metricRight = "=|";
note = uni159F;
unicode = 5535;
},
{
glyphname = "lhi-canadian";
kernRight = niright;
lastChange = "2023-01-13 15:31:04 +0000";
layers = (
{
anchors = (
{
name = top_center_can;
pos = (374,714);
},
{
name = top_right_can;
pos = (478,714);
}
);
layerId = "86DE26EB-3058-4E6D-9480-BC9D8886A6AA";
shapes = (
{
closed = 1;
nodes = (
(331,0,l),
(331,129,l),
(307,129,ls),
(227,129,o),
(186,170,o),
(186,250,cs),
(186,332,o),
(226,373,o),
(303,373,cs),
(669,373,l),
(669,491,l),
(509,763,l),
(398,697,l),
(558,425,l),
(556,506,l),
(295,506,ls),
(140,506,o),
(40,418,o),
(40,252,cs),
(40,88,o),
(138,0,o),
(295,0,cs)
);
}
);
width = 707;
}
);
metricLeft = "ke-canadian";
metricRight = "=|ne-canadian";
note = uni15A0;
unicode = 5536;
},
{
glyphname = "lho-canadian";
kernLeft = noleft;
lastChange = "2023-01-13 15:28:12 +0000";
layers = (
{
anchors = (
{
name = top_center_can;
pos = (352,524);
},
{
name = top_right_can;
pos = (443,524);
}
);
layerId = "86DE26EB-3058-4E6D-9480-BC9D8886A6AA";
shapes = (
{
closed = 1;
nodes = (
(310,-192,l),
(150,81,l),
(151,0,l),
(413,0,ls),
(568,0,o),
(668,88,o),
(668,254,cs),
(668,419,o),
(570,506,o),
(414,506,cs),
(377,506,l),
(377,377,l),
(401,377,ls),
(481,377,o),
(522,336,o),
(522,256,cs),
(522,174,o),
(481,133,o),
(405,133,cs),
(38,133,l),
(38,15,l),
(199,-258,l)
);
}
);
width = 708;
}
);
metricLeft = "ne-canadian";
metricRight = "=|ke-canadian";
note = uni15A2;
unicode = 5538;
},
{
glyphname = "lha-canadian";
kernRight = naright;
lastChange = "2023-01-13 15:31:04 +0000";
layers = (
{
anchors = (
{
name = top_center_can;
pos = (358,524);
},
{
name = top_left_can;
pos = (266,524);
}
);
layerId = "86DE26EB-3058-4E6D-9480-BC9D8886A6AA";
shapes = (
{
closed = 1;
nodes = (
(669,15,l),
(669,133,l),
(303,133,ls),
(227,133,o),
(186,174,o),
(186,256,cs),
(186,336,o),
(227,377,o),
(306,377,cs),
(331,377,l),
(331,506,l),
(294,506,ls),
(137,506,o),
(40,418,o),
(40,253,cs),
(40,88,o),
(140,0,o),
(295,0,cs),
(556,0,l),
(558,82,l),
(398,-192,l),
(509,-258,l)
);
}
);
width = 707;
}
);
metricLeft = "ke-canadian";
metricRight = "=|ne-canadian";
note = uni15A4;
unicode = 5540;
},
{
glyphname = "lh-canadian";
kernLeft = mwestleft;
kernRight = mwestright;
lastChange = "2023-01-13 15:31:04 +0000";
layers = (
{
layerId = "86DE26EB-3058-4E6D-9480-BC9D8886A6AA";
shapes = (
{
closed = 1;
nodes = (
(375,367,l),
(375,449,l),
(222,449,ls),
(166,449,o),
(138,480,o),
(138,535,cs),
(138,591,o),
(166,623,o),
(213,623,cs),
(222,623,l),
(222,714,l),
(206,714,ls),
(100,714,o),
(41,640,o),
(41,536,cs),
(41,426,o),
(100,356,o),
(221,356,cs),
(311,356,l),
(303,411,l),
(210,259,l),
(284,214,l)
);
}
);
width = 416;
}
);
metricLeft = "t-canadian";
metricRight = "=|";
note = uni15A6;
unicode = 5542;
},
{
glyphname = "theThCree-canadian";
lastChange = "2023-01-13 15:28:12 +0000";
layers = (
{
anchors = (
{
name = top_left_can;
pos = (100,714);
},
{
name = top_right_can;
pos = (384,714);
}
);
layerId = "86DE26EB-3058-4E6D-9480-BC9D8886A6AA";
shapes = (
{
closed = 1;
nodes = (
(457,0,l),
(457,85,l),
(518,85,l),
(518,165,l),
(457,165,l),
(457,357,l),
(196,357,l),
(224,311,l),
(482,644,l),
(377,726,l),
(27,267,l),
(27,229,l),
(310,229,l),
(310,165,l),
(129,165,l),
(129,85,l),
(310,85,l),
(310,0,l)
);
}
);
width = 543;
}
);
metricLeft = "ye-canadian";
note = uni15A7;
unicode = 5543;
},
{
glyphname = "thiThCree-canadian";
kernRight = yiright;
lastChange = "2023-01-13 15:28:12 +0000";
layers = (
{
anchors = (
{
name = top_left_can;
pos = (160,714);
},
{
name = top_right_can;
pos = (444,714);
}
);
layerId = "86DE26EB-3058-4E6D-9480-BC9D8886A6AA";
shapes = (
{
closed = 1;
nodes = (
(233,0,l),
(233,85,l),
(415,85,l),
(415,165,l),
(233,165,l),
(233,229,l),
(516,229,l),
(516,267,l),
(166,726,l),
(61,644,l),
(329,298,l),
(347,357,l),
(86,357,l),
(86,165,l),
(25,165,l),
(25,85,l),
(86,85,l),
(86,0,l)
);
}
);
width = 543;
}
);
metricLeft = "=|theThCree-canadian";
metricRight = "=|ye-canadian";
note = uni15A8;
unicode = 5544;
},
{
glyphname = "thoThCree-canadian";
kernLeft = yoleft;
lastChange = "2023-01-13 15:28:12 +0000";
layers = (
{
anchors = (
{
name = top_left_can;
pos = (100,714);
},
{
name = top_right_can;
pos = (384,714);
}
);
layerId = "86DE26EB-3058-4E6D-9480-BC9D8886A6AA";
shapes = (
{
closed = 1;
nodes = (
(482,70,l),
(224,403,l),
(196,357,l),
(457,357,l),
(457,549,l),
(518,549,l),
(518,629,l),
(457,629,l),
(457,714,l),
(310,714,l),
(310,629,l),
(129,629,l),
(129,549,l),
(310,549,l),
(310,485,l),
(27,485,l),
(27,447,l),
(377,-12,l)
);
}
);
width = 543;
}
);
metricLeft = "ye-canadian";
metricRight = "theThCree-canadian";
note = uni15AA;
unicode = 5546;
},
{
glyphname = "thaThCree-canadian";
kernRight = yaright;
lastChange = "2023-01-13 15:28:12 +0000";
layers = (
{
anchors = (
{
name = top_left_can;
pos = (160,714);
},
{
name = top_right_can;
pos = (444,714);
}
);
layerId = "86DE26EB-3058-4E6D-9480-BC9D8886A6AA";
shapes = (
{
closed = 1;
nodes = (
(516,447,l),
(516,485,l),
(233,485,l),
(233,549,l),
(415,549,l),
(415,629,l),
(233,629,l),
(233,714,l),
(86,714,l),
(86,629,l),
(25,629,l),
(25,549,l),
(86,549,l),
(86,357,l),
(347,357,l),
(319,403,l),
(61,70,l),
(166,-12,l)
);
}
);
width = 543;
}
);
metricLeft = "=|theThCree-canadian";
metricRight = "=|ye-canadian";
note = uni15AC;
unicode = 5548;
},
{
glyphname = "thThCree-canadian";
kernLeft = mwestleft;
kernRight = mwestright;
lastChange = "2023-01-13 15:28:12 +0000";
layers = (
{
layerId = "86DE26EB-3058-4E6D-9480-BC9D8886A6AA";
shapes = (
{
closed = 1;
nodes = (
(295,573,l),
(295,600,l),
(162,600,l),
(162,636,l),
(243,636,l),
(243,677,l),
(162,677,l),
(162,714,l),
(65,714,l),
(65,677,l),
(33,677,l),
(33,636,l),
(65,636,l),
(65,519,l),
(215,519,l),
(191,577,l),
(59,397,l),
(131,348,l)
);
}
);
width = 316;
}
);
metricRight = "y-canadian";
note = uni15AE;
unicode = 5550;
},
{
glyphname = "bAivilik-canadian";
lastChange = "2023-01-13 15:28:12 +0000";
layers = (
{
layerId = "86DE26EB-3058-4E6D-9480-BC9D8886A6AA";
shapes = (
{
closed = 1;
nodes = (
(414,-14,o),
(494,90,o),
(494,257,cs),
(494,415,o),
(416,521,o),
(302,521,cs),
(240,521,o),
(199,488,o),
(189,452,c),
(200,419,l),
(200,714,l),
(53,714,l),
(53,0,l),
(188,0,l),
(188,77,l),
(183,61,l),
(199,19,o),
(236,-14,o),
(303,-14,cs)
);
},
{
closed = 1;
nodes = (
(228,110,o),
(199,151,o),
(199,253,cs),
(199,355,o),
(230,396,o),
(274,396,cs),
(319,396,o),
(350,354,o),
(350,253,cs),
(350,152,o),
(321,110,o),
(274,110,cs)
);
}
);
width = 534;
}
);
metricLeft = "nunavuth-canadian";
metricRight = "=|ke-canadian";
note = uni15AF;
unicode = 5551;
},
{
glyphname = "eBlackfoot-canadian";
lastChange = "2023-01-13 15:28:12 +0000";
layers = (
{
layerId = "86DE26EB-3058-4E6D-9480-BC9D8886A6AA";
shapes = (
{
closed = 1;
nodes = (
(200,0,l),
(200,414,l),
(227,377,o),
(268,356,o),
(317,356,cs),
(414,356,o),
(474,435,o),
(474,543,cs),
(474,650,o),
(414,728,o),
(317,728,cs),
(263,728,o),
(217,702,o),
(192,659,c),
(192,714,l),
(53,714,l),
(53,0,l)
);
}
);
width = 507;
}
);
metricLeft = "nunavuth-canadian";
note = uni15B0;
unicode = 5552;
},
{
glyphname = "iBlackfoot-canadian";
lastChange = "2023-01-13 15:28:12 +0000";
layers = (
{
layerId = "86DE26EB-3058-4E6D-9480-BC9D8886A6AA";
shapes = (
{
closed = 1;
nodes = (
(244,-14,o),
(290,12,o),
(314,55,c),
(314,0,l),
(454,0,l),
(454,714,l),
(306,714,l),
(306,300,l),
(280,337,o),
(239,358,o),
(190,358,cs),
(92,358,o),
(33,279,o),
(33,171,cs),
(33,64,o),
(92,-14,o),
(190,-14,cs)
);
}
);
width = 507;
}
);
metricLeft = "=|eBlackfoot-canadian";
metricRight = "nunavuth-canadian";
note = uni15B1;
unicode = 5553;
},
{
glyphname = "oBlackfoot-canadian";
lastChange = "2023-01-13 15:28:12 +0000";
layers = (
{
layerId = "86DE26EB-3058-4E6D-9480-BC9D8886A6AA";
shapes = (
{
closed = 1;
nodes = (
(414,-14,o),
(474,64,o),
(474,171,cs),
(474,279,o),
(414,358,o),
(317,358,cs),
(268,358,o),
(227,337,o),
(200,300,c),
(200,714,l),
(53,714,l),
(53,0,l),
(192,0,l),
(192,55,l),
(217,12,o),
(263,-14,o),
(317,-14,cs)
);
}
);
width = 507;
}
);
metricLeft = "nunavuth-canadian";
metricRight = "eBlackfoot-canadian";
note = uni15B2;
unicode = 5554;
},
{
glyphname = "aBlackfoot-canadian";
lastChange = "2023-01-13 15:28:12 +0000";
layers = (
{
layerId = "86DE26EB-3058-4E6D-9480-BC9D8886A6AA";
shapes = (
{
closed = 1;
nodes = (
(454,0,l),
(454,714,l),
(314,714,l),
(314,659,l),
(290,702,o),
(244,728,o),
(190,728,cs),
(92,728,o),
(33,650,o),
(33,543,cs),
(33,435,o),
(92,356,o),
(190,356,cs),
(239,356,o),
(280,377,o),
(306,414,c),
(306,0,l)
);
}
);
width = 507;
}
);
metricLeft = "=|eBlackfoot-canadian";
metricRight = "nunavuth-canadian";
note = uni15B3;
unicode = 5555;
},
{
glyphname = "weBlackfoot-canadian";
lastChange = "2023-01-13 15:28:12 +0000";
layers = (
{
layerId = "86DE26EB-3058-4E6D-9480-BC9D8886A6AA";
shapes = (
{
closed = 1;
nodes = (
(200,292,l),
(479,292,l),
(479,418,l),
(200,418,l),
(200,589,l),
(479,589,l),
(479,714,l),
(53,714,l),
(53,0,l),
(200,0,l)
);
}
);
width = 524;
}
);
metricLeft = "nunavuth-canadian";
note = uni15B4;
unicode = 5556;
},
{
glyphname = "wiBlackfoot-canadian";
lastChange = "2023-01-13 15:31:04 +0000";
layers = (
{
layerId = "86DE26EB-3058-4E6D-9480-BC9D8886A6AA";
shapes = (
{
closed = 1;
nodes = (
(472,0,l),
(472,714,l),
(324,714,l),
(324,422,l),
(45,422,l),
(45,296,l),
(324,296,l),
(324,125,l),
(45,125,l),
(45,0,l)
);
}
);
width = 525;
}
);
metricLeft = "=|weBlackfoot-canadian";
metricRight = "nunavuth-canadian";
note = uni15B5;
unicode = 5557;
},
{
glyphname = "woBlackfoot-canadian";
lastChange = "2023-01-13 15:28:12 +0000";
layers = (
{
layerId = "86DE26EB-3058-4E6D-9480-BC9D8886A6AA";
shapes = (
{
closed = 1;
nodes = (
(479,0,l),
(479,125,l),
(200,125,l),
(200,296,l),
(479,296,l),
(479,422,l),
(200,422,l),
(200,714,l),
(53,714,l),
(53,0,l)
);
}
);
width = 524;
}
);
metricLeft = "nunavuth-canadian";
metricRight = "weBlackfoot-canadian";
note = uni15B6;
unicode = 5558;
},
{
glyphname = "waBlackfoot-canadian";
lastChange = "2023-01-13 15:31:04 +0000";
layers = (
{
layerId = "86DE26EB-3058-4E6D-9480-BC9D8886A6AA";
shapes = (
{
closed = 1;
nodes = (
(472,0,l),
(472,714,l),
(45,714,l),
(45,589,l),
(324,589,l),
(324,418,l),
(45,418,l),
(45,292,l),
(324,292,l),
(324,0,l)
);
}
);
width = 525;
}
);
metricLeft = "=|weBlackfoot-canadian";
metricRight = "nunavuth-canadian";
note = uni15B7;
unicode = 5559;
},
{
glyphname = "neBlackfoot-canadian";
lastChange = "2023-01-13 15:28:12 +0000";
layers = (
{
layerId = "86DE26EB-3058-4E6D-9480-BC9D8886A6AA";
shapes = (
{
closed = 1;
nodes = (
(200,0,l),
(200,607,l),
(252,607,l),
(213,690,l),
(213,669,ls),
(213,498,o),
(289,400,o),
(429,400,cs),
(567,400,o),
(652,502,o),
(652,667,cs),
(652,714,l),
(508,714,l),
(508,651,ls),
(508,572,o),
(482,528,o),
(433,528,cs),
(383,528,o),
(357,571,o),
(357,650,cs),
(357,714,l),
(53,714,l),
(53,0,l)
);
}
);
width = 677;
}
);
metricLeft = "nunavuth-canadian";
note = uni15B8;
unicode = 5560;
},
{
glyphname = "niBlackfoot-canadian";
lastChange = "2023-01-13 15:28:12 +0000";
layers = (
{
layerId = "86DE26EB-3058-4E6D-9480-BC9D8886A6AA";
shapes = (
{
closed = 1;
nodes = (
(169,0,l),
(169,63,ls),
(169,142,o),
(195,186,o),
(245,186,cs),
(294,186,o),
(320,143,o),
(320,64,cs),
(320,0,l),
(624,0,l),
(624,714,l),
(477,714,l),
(477,107,l),
(425,107,l),
(464,24,l),
(464,45,ls),
(464,216,o),
(388,314,o),
(249,314,cs),
(110,314,o),
(25,212,o),
(25,47,cs),
(25,0,l)
);
}
);
width = 677;
}
);
metricLeft = "=|neBlackfoot-canadian";
metricRight = "nunavuth-canadian";
note = uni15B9;
unicode = 5561;
},
{
glyphname = "noBlackfoot-canadian";
lastChange = "2023-01-13 15:28:12 +0000";
layers = (
{
layerId = "86DE26EB-3058-4E6D-9480-BC9D8886A6AA";
shapes = (
{
closed = 1;
nodes = (
(357,0,l),
(357,64,ls),
(357,143,o),
(383,186,o),
(433,186,cs),
(482,186,o),
(508,142,o),
(508,63,cs),
(508,0,l),
(652,0,l),
(652,47,ls),
(652,212,o),
(567,314,o),
(429,314,cs),
(289,314,o),
(213,216,o),
(213,45,cs),
(213,24,l),
(252,107,l),
(200,107,l),
(200,714,l),
(53,714,l),
(53,0,l)
);
}
);
width = 677;
}
);
metricLeft = "nunavuth-canadian";
metricRight = "neBlackfoot-canadian";
note = uni15BA;
unicode = 5562;
},
{
glyphname = "naBlackfoot-canadian";
lastChange = "2023-01-13 15:28:12 +0000";
layers = (
{
layerId = "86DE26EB-3058-4E6D-9480-BC9D8886A6AA";
shapes = (
{
closed = 1;
nodes = (
(624,0,l),
(624,714,l),
(320,714,l),
(320,650,ls),
(320,571,o),
(294,528,o),
(245,528,cs),
(195,528,o),
(169,572,o),
(169,651,cs),
(169,714,l),
(25,714,l),
(25,667,ls),
(25,502,o),
(110,400,o),
(249,400,cs),
(388,400,o),
(464,498,o),
(464,669,cs),
(464,690,l),
(425,607,l),
(477,607,l),
(477,0,l)
);
}
);
width = 677;
}
);
metricLeft = "=|neBlackfoot-canadian";
metricRight = "nunavuth-canadian";
note = uni15BB;
unicode = 5563;
},
{
glyphname = "keBlackfoot-canadian";
lastChange = "2023-01-13 15:28:12 +0000";
layers = (
{
layerId = "86DE26EB-3058-4E6D-9480-BC9D8886A6AA";
shapes = (
{
closed = 1;
nodes = (
(200,0,l),
(200,544,l),
(153,544,l),
(283,260,l),
(344,260,l),
(553,714,l),
(406,714,l),
(271,417.991,l),
(326,418,l),
(191,714,l),
(53,714,l),
(53,0,l)
);
}
);
width = 562;
}
);
metricLeft = "nunavuth-canadian";
note = uni15BC;
unicode = 5564;
},
{
glyphname = "kiBlackfoot-canadian";
lastChange = "2023-01-13 15:28:12 +0000";
layers = (
{
layerId = "86DE26EB-3058-4E6D-9480-BC9D8886A6AA";
shapes = (
{
closed = 1;
nodes = (
(156,0,l),
(291,296,l),
(236,296,l),
(371,0,l),
(509,0,l),
(509,714,l),
(361,714,l),
(361,170,l),
(409,170,l),
(279,454,l),
(218,454,l),
(9.007,0,l)
);
}
);
width = 562;
}
);
metricLeft = "=|keBlackfoot-canadian";
metricRight = "nunavuth-canadian";
note = uni15BD;
unicode = 5565;
},
{
glyphname = "koBlackfoot-canadian";
lastChange = "2023-01-13 15:28:12 +0000";
layers = (
{
layerId = "86DE26EB-3058-4E6D-9480-BC9D8886A6AA";
shapes = (
{
closed = 1;
nodes = (
(191,0,l),
(326,296,l),
(271,296.009,l),
(406,0,l),
(553,0,l),
(344,454,l),
(283,454,l),
(153,170,l),
(200,170,l),
(200,714,l),
(53,714,l),
(53,0,l)
);
}
);
width = 562;
}
);
metricLeft = "nunavuth-canadian";
metricRight = "keBlackfoot-canadian";
note = uni15BE;
unicode = 5566;
},
{
glyphname = "kaBlackfoot-canadian";
lastChange = "2023-01-13 15:28:12 +0000";
layers = (
{
layerId = "86DE26EB-3058-4E6D-9480-BC9D8886A6AA";
shapes = (
{
closed = 1;
nodes = (
(509,0,l),
(509,714,l),
(371,714,l),
(236,418,l),
(291,418,l),
(156,714,l),
(9.007,714,l),
(218,260,l),
(279,260,l),
(409,544,l),
(361,544,l),
(361,0,l)
);
}
);
width = 562;
}
);
metricLeft = "=|keBlackfoot-canadian";
metricRight = "nunavuth-canadian";
note = uni15BF;
unicode = 5567;
},
{
color = 9;
glyphname = "heSayisi-canadian";
lastChange = "2023-01-13 15:28:12 +0000";
layers = (
{
anchors = (
{
name = top_right_can;
pos = (490,714);
}
);
layerId = "86DE26EB-3058-4E6D-9480-BC9D8886A6AA";
shapes = (
{
closed = 1;
nodes = (
(563,0,l),
(563,714,l),
(417,714,l),
(417,366,l),
(440,366,l),
(436,604,o),
(343,728,o),
(225,728,cs),
(109,728,o),
(36,635,o),
(36,455,cs),
(36,419,o),
(39,380,o),
(46,342,c),
(186,342,l),
(181,373,o),
(178,411,o),
(178,436,cs),
(178,557,o),
(212,600,o),
(261,600,cs),
(342,600,o),
(412,468,o),
(415,0,c)
);
}
);
width = 616;
}
);
metricRight = "nunavuth-canadian";
note = uni15C0;
unicode = 5568;
},
{
color = 9;
glyphname = "hiSayisi-canadian";
lastChange = "2023-01-13 15:28:12 +0000";
layers = (
{
layerId = "86DE26EB-3058-4E6D-9480-BC9D8886A6AA";
shapes = (
{
closed = 1;
nodes = (
(200,0,l),
(204,468,o),
(274,600,o),
(355,600,cs),
(404,600,o),
(438,557,o),
(438,436,cs),
(438,411,o),
(435,373,o),
(430,342,c),
(570,342,l),
(577,380,o),
(580,419,o),
(580,455,cs),
(580,635,o),
(507,728,o),
(391,728,cs),
(273,728,o),
(180,604,o),
(176,366,c),
(199,366,l),
(199,714,l),
(53,714,l),
(53,0,l)
);
}
);
width = 616;
}
);
metricLeft = "nunavuth-canadian";
metricRight = "=|heSayisi-canadian";
note = uni15C1;
unicode = 5569;
},
{
color = 9;
glyphname = "hoSayisi-canadian";
lastChange = "2023-01-13 15:28:12 +0000";
layers = (
{
anchors = (
{
name = top_center_can;
pos = (303,714);
},
{
name = top_left_can;
pos = (116,714);
},
{
name = top_right_can;
pos = (490,714);
}
);
layerId = "86DE26EB-3058-4E6D-9480-BC9D8886A6AA";
shapes = (
{
closed = 1;
nodes = (
(343,-14,o),
(436,110,o),
(440,348,c),
(417,348,l),
(417,0,l),
(563,0,l),
(563,714,l),
(415,714,l),
(412,246,o),
(342,114,o),
(261,114,cs),
(212,114,o),
(178,157,o),
(178,278,cs),
(178,303,o),
(181,341,o),
(186,372,c),
(46,372,l),
(39,334,o),
(36,295,o),
(36,259,cs),
(36,79,o),
(109,-14,o),
(225,-14,cs)
);
}
);
width = 616;
}
);
metricLeft = "heSayisi-canadian";
metricRight = "nunavuth-canadian";
note = uni15C2;
unicode = 5570;
},
{
color = 9;
glyphname = "haSayisi-canadian";
lastChange = "2023-01-13 15:28:12 +0000";
layers = (
{
layerId = "86DE26EB-3058-4E6D-9480-BC9D8886A6AA";
shapes = (
{
closed = 1;
nodes = (
(507,-14,o),
(580,79,o),
(580,259,cs),
(580,295,o),
(577,334,o),
(570,372,c),
(430,372,l),
(435,341,o),
(438,303,o),
(438,278,cs),
(438,157,o),
(404,114,o),
(355,114,cs),
(274,114,o),
(204,246,o),
(200,714,c),
(53,714,l),
(53,0,l),
(199,0,l),
(199,348,l),
(176,348,l),
(180,110,o),
(273,-14,o),
(391,-14,cs)
);
}
);
width = 616;
}
);
metricLeft = "nunavuth-canadian";
metricRight = "=|heSayisi-canadian";
note = uni15C3;
unicode = 5571;
},
{
color = 9;
glyphname = "ghuCarrier-canadian";
lastChange = "2023-01-13 15:28:12 +0000";
layers = (
{
layerId = "86DE26EB-3058-4E6D-9480-BC9D8886A6AA";
shapes = (
{
closed = 1;
nodes = (
(339,0,l),
(617,678,l),
(617,714,l),
(498,714,l),
(420,516,l),
(493,536,l),
(147,536,l),
(222,513,l),
(142,714,l),
(19,714,l),
(19,678,l),
(297,0,l)
);
},
{
closed = 1;
nodes = (
(458,428,l),
(398,442,l),
(295,182,l),
(345,182,l),
(242,446,l),
(183,428,l)
);
}
);
width = 636;
}
);
metricLeft = "e-canadian";
metricRight = "e-canadian";
note = uni15C4;
unicode = 5572;
},
{
color = 9;
glyphname = "ghoCarrier-canadian";
lastChange = "2023-01-13 15:28:12 +0000";
layers = (
{
layerId = "86DE26EB-3058-4E6D-9480-BC9D8886A6AA";
shapes = (
{
closed = 1;
nodes = (
(142,0,l),
(222,201,l),
(147,178,l),
(493,178,l),
(420,198,l),
(498,0,l),
(617,0,l),
(617,36,l),
(339,714,l),
(297,714,l),
(19,36,l),
(19,0,l)
);
},
{
closed = 1;
nodes = (
(345,532,l),
(295,532,l),
(398,272,l),
(458,286,l),
(183,286,l),
(242,268,l)
);
}
);
width = 636;
}
);
metricLeft = "e-canadian";
metricRight = "e-canadian";
note = uni15C5;
unicode = 5573;
},
{
color = 9;
glyphname = "gheCarrier-canadian";
lastChange = "2023-01-13 15:28:12 +0000";
layers = (
{
anchors = (
{
name = middle_center_can;
pos = (66,357);
}
);
layerId = "86DE26EB-3058-4E6D-9480-BC9D8886A6AA";
shapes = (
{
closed = 1;
nodes = (
(70,0,l),
(546,334,l),
(546,380,l),
(70,714,l),
(36,714,l),
(36,594,l),
(162,504,l),
(156,568,l),
(156,140,l),
(162,208,l),
(36,119,l),
(36,0,l)
);
},
{
closed = 1;
nodes = (
(257,519,l),
(235,469,l),
(444,320,l),
(444,395,l),
(235,247,l),
(257,197,l)
);
}
);
width = 573;
}
);
metricLeft = "po-canadian";
metricRight = "o-canadian";
note = uni15C6;
unicode = 5574;
},
{
color = 9;
glyphname = "ghaCarrier-canadian";
lastChange = "2023-01-13 15:28:12 +0000";
layers = (
{
layerId = "86DE26EB-3058-4E6D-9480-BC9D8886A6AA";
shapes = (
{
closed = 1;
nodes = (
(537,0,l),
(537,118,l),
(413,207,l),
(421,151,l),
(421,563,l),
(413,506,l),
(537,594,l),
(537,714,l),
(503,714,l),
(27,380,l),
(27,334,l),
(503,0,l)
);
},
{
closed = 1;
nodes = (
(341,244,l),
(130,394,l),
(130,319,l),
(341,469,l),
(319,495,l),
(319,228,l)
);
}
);
width = 573;
}
);
metricLeft = "=|o-canadian";
metricRight = "=|po-canadian";
note = uni15C9;
unicode = 5577;
},
{
color = 9;
glyphname = "ruCarrier-canadian";
lastChange = "2023-01-13 15:28:12 +0000";
layers = (
{
layerId = "86DE26EB-3058-4E6D-9480-BC9D8886A6AA";
shapes = (
{
closed = 1;
nodes = (
(339,0,l),
(617,678,l),
(617,714,l),
(499,714,l),
(465,628,l),
(495,645,l),
(143,645,l),
(178,627,l),
(144,714,l),
(19,714,l),
(19,678,l),
(297,0,l)
);
},
{
closed = 1;
nodes = (
(464,535,l),
(445,560,l),
(298,183,l),
(348,183,l),
(200,559,l),
(173,535,l)
);
}
);
width = 636;
}
);
metricLeft = "e-canadian";
metricRight = "e-canadian";
note = uni15CA;
unicode = 5578;
},
{
color = 9;
glyphname = "roCarrier-canadian";
lastChange = "2023-01-13 15:28:12 +0000";
layers = (
{
layerId = "86DE26EB-3058-4E6D-9480-BC9D8886A6AA";
shapes = (
{
closed = 1;
nodes = (
(143,0,l),
(177,86,l),
(145,69,l),
(496,69,l),
(463,87,l),
(498,0,l),
(617,0,l),
(617,36,l),
(339,714,l),
(297,714,l),
(19,36,l),
(19,0,l)
);
},
{
closed = 1;
nodes = (
(343,532,l),
(293,532,l),
(442,155,l),
(467,179,l),
(176,179,l),
(196,154,l)
);
}
);
width = 636;
}
);
metricLeft = "e-canadian";
metricRight = "e-canadian";
note = uni15CB;
unicode = 5579;
},
{
color = 9;
glyphname = "reCarrier-canadian";
lastChange = "2023-01-13 15:28:12 +0000";
layers = (
{
layerId = "86DE26EB-3058-4E6D-9480-BC9D8886A6AA";
shapes = (
{
closed = 1;
nodes = (
(71,0,l),
(546,334,l),
(546,380,l),
(71,714,l),
(36,714,l),
(36,591,l),
(104,542,l),
(89,577,l),
(89,136,l),
(104,172,l),
(36,122,l),
(36,0,l)
);
},
{
closed = 1;
nodes = (
(195,550,l),
(181,499,l),
(433,319,l),
(433,394,l),
(181,214,l),
(195,161,l)
);
}
);
width = 573;
}
);
metricLeft = "po-canadian";
metricRight = "o-canadian";
note = uni15CC;
unicode = 5580;
},
{
color = 9;
glyphname = "reeCarrier-canadian";
lastChange = "2023-01-13 15:28:12 +0000";
layers = (
{
layerId = "86DE26EB-3058-4E6D-9480-BC9D8886A6AA";
shapes = (
{
closed = 1;
nodes = (
(71,0,l),
(546,334,l),
(546,380,l),
(71,714,l),
(36,714,l),
(36,610,l),
(104,560,l),
(89,579,l),
(89,132,l),
(104,152,l),
(36,103,l),
(36,0,l)
);
},
{
closed = 1;
nodes = (
(179,553,l),
(169,526,l),
(462,319,l),
(462,394,l),
(167,185,l),
(179,163,l)
);
},
{
closed = 1;
nodes = (
(262,286,l),
(262,428,l),
(214,428,l),
(214,286,l)
);
}
);
width = 573;
}
);
metricLeft = "po-canadian";
metricRight = "o-canadian";
note = uni15CD;
unicode = 5581;
},
{
color = 9;
glyphname = "riCarrier-canadian";
lastChange = "2023-01-13 15:28:12 +0000";
layers = (
{
layerId = "86DE26EB-3058-4E6D-9480-BC9D8886A6AA";
shapes = (
{
closed = 1;
nodes = (
(71,0,l),
(546,334,l),
(546,380,l),
(71,714,l),
(36,714,l),
(36,610,l),
(104,560,l),
(89,579,l),
(89,132,l),
(104,152,l),
(36,103,l),
(36,0,l)
);
},
{
closed = 1;
nodes = (
(278,311,o),
(301,331,o),
(301,357,cs),
(301,383,o),
(278,403,o),
(254,403,cs),
(230,403,o),
(207,383,o),
(207,357,cs),
(207,331,o),
(230,311,o),
(254,311,cs)
);
},
{
closed = 1;
nodes = (
(179,553,l),
(169,526,l),
(462,319,l),
(462,394,l),
(167,185,l),
(179,163,l)
);
}
);
width = 573;
}
);
metricLeft = "po-canadian";
metricRight = "o-canadian";
note = uni15CE;
unicode = 5582;
},
{
color = 9;
glyphname = "raCarrier-canadian";
lastChange = "2023-01-13 15:28:12 +0000";
layers = (
{
layerId = "86DE26EB-3058-4E6D-9480-BC9D8886A6AA";
shapes = (
{
closed = 1;
nodes = (
(537,0,l),
(537,123,l),
(471,172,l),
(484,105,l),
(484,610,l),
(471,543,l),
(537,592,l),
(537,714,l),
(502,714,l),
(27,380,l),
(27,334,l),
(502,0,l)
);
},
{
closed = 1;
nodes = (
(394,501,l),
(379,553,l),
(379,162,l),
(394,214,l),
(140,395,l),
(140,320,l)
);
}
);
width = 573;
}
);
metricLeft = "=|o-canadian";
metricRight = "=|po-canadian";
note = uni15CF;
unicode = 5583;
},
{
color = 9;
glyphname = "wuCarrier-canadian";
lastChange = "2023-01-13 15:28:12 +0000";
layers = (
{
layerId = "86DE26EB-3058-4E6D-9480-BC9D8886A6AA";
shapes = (
{
closed = 1;
nodes = (
(347,0,l),
(633,678,l),
(633,714,l),
(522,714,l),
(357,278,l),
(386,278,l),
(386,714,l),
(277,714,l),
(277,278,l),
(307,278,l),
(137,714,l),
(19,714,l),
(19,678,l),
(305,0,l)
);
}
);
width = 652;
}
);
metricLeft = "e-canadian";
metricRight = "e-canadian";
note = uni15D0;
unicode = 5584;
},
{
color = 9;
glyphname = "woCarrier-canadian";
lastChange = "2023-01-13 15:28:12 +0000";
layers = (
{
layerId = "86DE26EB-3058-4E6D-9480-BC9D8886A6AA";
shapes = (
{
closed = 1;
nodes = (
(135,0,l),
(303,436,l),
(273,436,l),
(273,0,l),
(382,0,l),
(382,436,l),
(351,436,l),
(521,0,l),
(633,0,l),
(633,36,l),
(347,714,l),
(305,714,l),
(19,36,l),
(19,0,l)
);
}
);
width = 652;
}
);
metricLeft = "e-canadian";
metricRight = "e-canadian";
note = uni15D1;
unicode = 5585;
},
{
color = 9;
glyphname = "weCarrier-canadian";
lastChange = "2023-01-13 15:28:12 +0000";
layers = (
{
layerId = "86DE26EB-3058-4E6D-9480-BC9D8886A6AA";
shapes = (
{
closed = 1;
nodes = (
(87,0,l),
(563,334,l),
(563,380,l),
(87,714,l),
(53,714,l),
(53,595,l),
(348,391,l),
(348,412,l),
(60,412,l),
(60,302,l),
(349,302,l),
(349,322,l),
(53,118,l),
(53,0,l)
);
}
);
width = 590;
}
);
metricRight = "o-canadian";
note = uni15D2;
unicode = 5586;
},
{
color = 9;
glyphname = "weeCarrier-canadian";
lastChange = "2023-01-13 15:28:12 +0000";
layers = (
{
layerId = "86DE26EB-3058-4E6D-9480-BC9D8886A6AA";
shapes = (
{
closed = 1;
nodes = (
(87,0,l),
(563,334,l),
(563,380,l),
(87,714,l),
(53,714,l),
(53,605,l),
(405,365,l),
(416,401,l),
(192,401,l),
(192,464,l),
(116,464,l),
(116,401,l),
(53,401,l),
(53,314,l),
(116,314,l),
(116,251,l),
(192,251,l),
(192,314,l),
(416,314,l),
(405,350,l),
(53,108,l),
(53,0,l)
);
}
);
width = 590;
}
);
metricLeft = "weCarrier-canadian";
metricRight = "o-canadian";
note = uni15D3;
unicode = 5587;
},
{
color = 9;
glyphname = "wiCarrier-canadian";
lastChange = "2023-01-13 15:28:12 +0000";
layers = (
{
layerId = "86DE26EB-3058-4E6D-9480-BC9D8886A6AA";
shapes = (
{
closed = 1;
nodes = (
(87,0,l),
(563,334,l),
(563,380,l),
(87,714,l),
(53,714,l),
(53,605,l),
(405,365,l),
(416,401,l),
(249,401,l),
(235,426,o),
(208,443,o),
(177,443,cs),
(145,443,o),
(118,426,o),
(104,401,c),
(53,401,l),
(53,314,l),
(105,314,l),
(119,289,o),
(146,271,o),
(177,271,cs),
(207,271,o),
(234,289,o),
(248,314,c),
(416,314,l),
(405,350,l),
(53,108,l),
(53,0,l)
);
}
);
width = 590;
}
);
metricLeft = "weCarrier-canadian";
metricRight = "o-canadian";
note = uni15D4;
unicode = 5588;
},
{
color = 9;
glyphname = "waCarrier-canadian";
lastChange = "2023-01-13 15:28:12 +0000";
layers = (
{
layerId = "86DE26EB-3058-4E6D-9480-BC9D8886A6AA";
shapes = (
{
closed = 1;
nodes = (
(537,0,l),
(537,119,l),
(242,322,l),
(242,302,l),
(530,302,l),
(530,412,l),
(242,412,l),
(242,391,l),
(537,595,l),
(537,714,l),
(503,714,l),
(27,380,l),
(27,334,l),
(503,0,l)
);
}
);
width = 590;
}
);
metricLeft = "=|o-canadian";
metricRight = "=|weCarrier-canadian";
note = uni15D5;
unicode = 5589;
},
{
color = 9;
glyphname = "hwuCarrier-canadian";
lastChange = "2023-01-13 15:28:12 +0000";
layers = (
{
layerId = "86DE26EB-3058-4E6D-9480-BC9D8886A6AA";
shapes = (
{
closed = 1;
nodes = (
(347,0,l),
(633,678,l),
(633,714,l),
(529,714,l),
(460,546,l),
(496,555,l),
(370,555,l),
(370,714,l),
(285,714,l),
(285,555,l),
(153,555,l),
(195,548,l),
(127,714,l),
(19,714,l),
(19,678,l),
(305,0,l)
);
},
{
closed = 1;
nodes = (
(293,479,l),
(293,210,l),
(317,214,l),
(212,487,l),
(163,479,l)
);
},
{
closed = 1;
nodes = (
(363,479,l),
(487,479,l),
(444,487,l),
(339,214,l),
(363,210,l)
);
}
);
width = 652;
}
);
metricLeft = "e-canadian";
metricRight = "e-canadian";
note = uni15D6;
unicode = 5590;
},
{
color = 9;
glyphname = "hwoCarrier-canadian";
lastChange = "2023-01-13 15:28:12 +0000";
layers = (
{
layerId = "86DE26EB-3058-4E6D-9480-BC9D8886A6AA";
shapes = (
{
closed = 1;
nodes = (
(126,0,l),
(196,168,l),
(163,153,l),
(284,153,l),
(284,0,l),
(369,0,l),
(369,153,l),
(508,153,l),
(461,166,l),
(529,0,l),
(633,0,l),
(633,36,l),
(347,714,l),
(305,714,l),
(19,36,l),
(19,0,l)
);
},
{
closed = 1;
nodes = (
(312,493,l),
(292,497,l),
(292,241,l),
(193,241,l),
(211,227,l)
);
},
{
closed = 1;
nodes = (
(476,241,l),
(362,241,l),
(362,498,l),
(341,494,l),
(444,227,l)
);
}
);
width = 652;
}
);
metricLeft = "e-canadian";
metricRight = "e-canadian";
note = uni15D7;
unicode = 5591;
},
{
color = 9;
glyphname = "hweCarrier-canadian";
lastChange = "2023-01-13 15:28:12 +0000";
layers = (
{
layerId = "86DE26EB-3058-4E6D-9480-BC9D8886A6AA";
shapes = (
{
closed = 1;
nodes = (
(87,0,l),
(563,334,l),
(563,380,l),
(87,714,l),
(53,714,l),
(53,605,l),
(164,529,l),
(164,403,l),
(53,403,l),
(53,311,l),
(164,311,l),
(164,184,l),
(53,108,l),
(53,0,l)
);
},
{
closed = 1;
nodes = (
(234,321,l),
(385,321,l),
(234,220,l)
);
},
{
closed = 1;
nodes = (
(234,493,l),
(384,393,l),
(234,393,l)
);
}
);
width = 590;
}
);
metricLeft = "weCarrier-canadian";
metricRight = "o-canadian";
note = uni15D8;
unicode = 5592;
},
{
color = 9;
glyphname = "hweeCarrier-canadian";
lastChange = "2023-01-13 15:28:12 +0000";
layers = (
{
layerId = "86DE26EB-3058-4E6D-9480-BC9D8886A6AA";
shapes = (
{
closed = 1;
nodes = (
(87,0,l),
(563,334,l),
(563,380,l),
(87,714,l),
(53,714,l),
(53,611,l),
(205,507,l),
(205,396,l),
(162,396,l),
(162,461,l),
(102,461,l),
(102,396,l),
(53,396,l),
(53,319,l),
(102,319,l),
(102,253,l),
(162,253,l),
(162,319,l),
(205,319,l),
(205,205,l),
(53,101,l),
(53,0,l)
);
},
{
closed = 1;
nodes = (
(267,326,l),
(391,326,l),
(267,239,l)
);
},
{
closed = 1;
nodes = (
(267,474,l),
(390,389,l),
(267,389,l)
);
}
);
width = 590;
}
);
metricLeft = "weCarrier-canadian";
metricRight = "o-canadian";
note = uni15D9;
unicode = 5593;
},
{
color = 9;
glyphname = "hwiCarrier-canadian";
lastChange = "2023-01-13 15:28:12 +0000";
layers = (
{
layerId = "86DE26EB-3058-4E6D-9480-BC9D8886A6AA";
shapes = (
{
closed = 1;
nodes = (
(87,0,l),
(563,334,l),
(563,380,l),
(87,714,l),
(53,714,l),
(53,611,l),
(205,507,l),
(205,389,l),
(189,389,l),
(179,410,o),
(158,424,o),
(134,424,cs),
(110,424,o),
(90,409,o),
(79,389,c),
(53,389,l),
(53,326,l),
(79,326,l),
(90,305,o),
(110,290,o),
(134,290,cs),
(156,290,o),
(177,305,o),
(188,326,c),
(205,326,l),
(205,205,l),
(53,101,l),
(53,0,l)
);
},
{
closed = 1;
nodes = (
(267,326,l),
(391,326,l),
(267,239,l)
);
},
{
closed = 1;
nodes = (
(267,474,l),
(390,389,l),
(267,389,l)
);
}
);
width = 590;
}
);
metricLeft = "weCarrier-canadian";
metricRight = "o-canadian";
note = uni15DA;
unicode = 5594;
},
{
color = 9;
glyphname = "hwaCarrier-canadian";
lastChange = "2023-01-13 15:28:12 +0000";
layers = (
{
layerId = "86DE26EB-3058-4E6D-9480-BC9D8886A6AA";
shapes = (
{
closed = 1;
nodes = (
(537,0,l),
(537,108,l),
(427,184,l),
(427,311,l),
(537,311,l),
(537,403,l),
(427,403,l),
(427,529,l),
(537,605,l),
(537,714,l),
(503,714,l),
(27,380,l),
(27,334,l),
(503,0,l)
);
},
{
closed = 1;
nodes = (
(205,321,l),
(356,321,l),
(356,220,l)
);
},
{
closed = 1;
nodes = (
(356,493,l),
(356,393,l),
(206,393,l)
);
}
);
width = 590;
}
);
metricLeft = "=|o-canadian";
metricRight = "=|weCarrier-canadian";
note = uni15DB;
unicode = 5595;
},
{
color = 9;
glyphname = "thuCarrier-canadian";
lastChange = "2023-01-13 15:31:04 +0000";
layers = (
{
layerId = "86DE26EB-3058-4E6D-9480-BC9D8886A6AA";
shapes = (
{
closed = 1;
nodes = (
(494,-14,o),
(590,88,o),
(590,281,cs),
(590,714,l),
(50,714,l),
(50,280,ls),
(50,88,o),
(150,-14,o),
(321,-14,cs)
);
},
{
closed = 1;
nodes = (
(196,583,l),
(444,583,l),
(444,282,ls),
(444,169,o),
(401,121,o),
(320,121,cs),
(242,121,o),
(196,172,o),
(196,282,cs)
);
}
);
width = 640;
}
);
metricLeft = "te-canadian";
metricRight = "te-canadian";
note = uni15DC;
unicode = 5596;
},
{
color = 9;
glyphname = "thoCarrier-canadian";
lastChange = "2023-01-13 15:31:04 +0000";
layers = (
{
layerId = "86DE26EB-3058-4E6D-9480-BC9D8886A6AA";
shapes = (
{
closed = 1;
nodes = (
(590,0,l),
(590,434,ls),
(590,626,o),
(491,728,o),
(321,728,cs),
(148,728,o),
(50,626,o),
(50,434,cs),
(50,0,l)
);
},
{
closed = 1;
nodes = (
(196,432,ls),
(196,544,o),
(240,593,o),
(321,593,cs),
(399,593,o),
(444,542,o),
(444,432,cs),
(444,131,l),
(196,131,l)
);
}
);
width = 640;
}
);
metricLeft = "te-canadian";
metricRight = "te-canadian";
note = uni15DD;
unicode = 5597;
},
{
color = 9;
glyphname = "theCarrier-canadian";
lastChange = "2023-01-13 15:28:12 +0000";
layers = (
{
anchors = (
{
name = middle_center_can;
pos = (318,357);
}
);
layerId = "86DE26EB-3058-4E6D-9480-BC9D8886A6AA";
shapes = (
{
closed = 1;
nodes = (
(252,0,ls),
(469,0,o),
(594,120,o),
(594,358,cs),
(594,596,o),
(469,714,o),
(250,714,cs),
(53,714,l),
(53,0,l)
);
},
{
closed = 1;
nodes = (
(200,623,l),
(162,585,l),
(249,585,ls),
(380,585,o),
(447,518,o),
(447,358,cs),
(447,198,o),
(380,129,o),
(250,129,cs),
(162,129,l),
(200,91,l)
);
}
);
width = 639;
}
);
metricLeft = "nunavuth-canadian";
metricRight = "to-canadian";
note = uni15DE;
unicode = 5598;
},
{
color = 9;
glyphname = "thaCarrier-canadian";
lastChange = "2023-01-13 15:31:04 +0000";
layers = (
{
layerId = "86DE26EB-3058-4E6D-9480-BC9D8886A6AA";
shapes = (
{
closed = 1;
nodes = (
(587,0,l),
(587,714,l),
(388,714,ls),
(170,714,o),
(45,594,o),
(45,356,cs),
(45,118,o),
(170,0,o),
(389,0,cs)
);
},
{
closed = 1;
nodes = (
(193,516,o),
(258,585,o),
(388,585,cs),
(477,585,l),
(439,623,l),
(439,91,l),
(477,129,l),
(389,129,ls),
(258,129,o),
(193,196,o),
(193,356,cs)
);
}
);
width = 640;
}
);
metricLeft = "=|theCarrier-canadian";
metricRight = "nunavuth-canadian";
note = uni15E1;
unicode = 5601;
},
{
color = 9;
glyphname = "ttuCarrier-canadian";
lastChange = "2023-01-13 15:31:04 +0000";
layers = (
{
layerId = "86DE26EB-3058-4E6D-9480-BC9D8886A6AA";
shapes = (
{
closed = 1;
nodes = (
(494,-14,o),
(590,88,o),
(590,281,cs),
(590,714,l),
(549,714,l),
(302,533,l),
(340,533,l),
(93,714,l),
(50,714,l),
(50,280,ls),
(50,88,o),
(150,-14,o),
(321,-14,cs)
);
},
{
closed = 1;
nodes = (
(242,121,o),
(196,172,o),
(196,282,cs),
(196,597,l),
(63,593,l),
(309,412,l),
(333,412,l),
(579,593,l),
(444,597,l),
(444,282,ls),
(444,169,o),
(401,121,o),
(320,121,cs)
);
}
);
width = 640;
}
);
metricLeft = "te-canadian";
metricRight = "te-canadian";
note = uni15E2;
unicode = 5602;
},
{
color = 9;
glyphname = "ttoCarrier-canadian";
lastChange = "2023-01-13 15:31:04 +0000";
layers = (
{
layerId = "86DE26EB-3058-4E6D-9480-BC9D8886A6AA";
shapes = (
{
closed = 1;
nodes = (
(92,0,l),
(339,181,l),
(301,181,l),
(547,0,l),
(590,0,l),
(590,434,ls),
(590,626,o),
(491,728,o),
(320,728,cs),
(147,728,o),
(50,626,o),
(50,433,cs),
(50,0,l)
);
},
{
closed = 1;
nodes = (
(399,593,o),
(444,542,o),
(444,432,cs),
(444,117,l),
(578,121,l),
(332,302,l),
(308,302,l),
(62,121,l),
(196,117,l),
(196,432,ls),
(196,545,o),
(239,593,o),
(321,593,cs)
);
}
);
width = 640;
}
);
metricLeft = "te-canadian";
metricRight = "te-canadian";
note = uni15E3;
unicode = 5603;
},
{
color = 9;
glyphname = "tteCarrier-canadian";
lastChange = "2023-01-13 15:31:04 +0000";
layers = (
{
anchors = (
{
name = middle_center_can;
pos = (365,357);
}
);
layerId = "86DE26EB-3058-4E6D-9480-BC9D8886A6AA";
shapes = (
{
closed = 1;
nodes = (
(262,0,ls),
(480,0,o),
(605,120,o),
(605,358,cs),
(605,596,o),
(480,714,o),
(261,714,cs),
(48,714,l),
(48,678,l),
(155,339,l),
(155,374,l),
(48,36,l),
(48,0,l)
);
},
{
closed = 1;
nodes = (
(290,345,l),
(290,365,l),
(182,704,l),
(182,585,l),
(261,585,ls),
(392,585,o),
(457,518,o),
(457,358,cs),
(457,198,o),
(392,129,o),
(262,129,cs),
(182,129,l),
(182,7,l)
);
}
);
width = 650;
}
);
metricRight = "theCarrier-canadian";
note = uni15E4;
unicode = 5604;
},
{
color = 9;
glyphname = "ttaCarrier-canadian";
lastChange = "2023-01-13 15:31:04 +0000";
layers = (
{
layerId = "86DE26EB-3058-4E6D-9480-BC9D8886A6AA";
shapes = (
{
closed = 1;
nodes = (
(602,0,l),
(602,36,l),
(495,375,l),
(495,340,l),
(602,678,l),
(602,714,l),
(388,714,ls),
(170,714,o),
(45,594,o),
(45,356,cs),
(45,118,o),
(170,0,o),
(389,0,cs)
);
},
{
closed = 1;
nodes = (
(468,129,l),
(389,129,ls),
(258,129,o),
(193,196,o),
(193,356,cs),
(193,516,o),
(258,585,o),
(388,585,cs),
(468,585,l),
(468,707,l),
(360,369,l),
(360,349,l),
(468,10,l)
);
}
);
width = 650;
}
);
metricLeft = "=|theCarrier-canadian";
metricRight = "=|tteCarrier-canadian";
note = uni15E7;
unicode = 5607;
},
{
color = 9;
glyphname = "puCarrier-canadian";
lastChange = "2023-01-13 15:31:04 +0000";
layers = (
{
layerId = "86DE26EB-3058-4E6D-9480-BC9D8886A6AA";
shapes = (
{
closed = 1;
nodes = (
(494,-14,o),
(590,88,o),
(590,281,cs),
(590,714,l),
(443,714,l),
(443,567,l),
(198,567,l),
(198,714,l),
(50,714,l),
(50,280,ls),
(50,88,o),
(150,-14,o),
(321,-14,cs)
);
},
{
closed = 1;
nodes = (
(242,121,o),
(198,172,o),
(198,282,cs),
(198,437,l),
(443,437,l),
(443,282,ls),
(443,169,o),
(401,121,o),
(320,121,cs)
);
}
);
width = 640;
}
);
metricLeft = "te-canadian";
metricRight = "te-canadian";
note = uni15E8;
unicode = 5608;
},
{
color = 9;
glyphname = "poCarrier-canadian";
lastChange = "2023-01-13 15:31:04 +0000";
layers = (
{
layerId = "86DE26EB-3058-4E6D-9480-BC9D8886A6AA";
shapes = (
{
closed = 1;
nodes = (
(198,0,l),
(198,147,l),
(443,147,l),
(443,0,l),
(590,0,l),
(590,434,ls),
(590,626,o),
(492,728,o),
(321,728,cs),
(154,728,o),
(50,626,o),
(50,434,cs),
(50,0,l)
);
},
{
closed = 1;
nodes = (
(198,432,ls),
(198,544,o),
(240,593,o),
(321,593,cs),
(399,593,o),
(443,542,o),
(443,432,cs),
(443,277,l),
(198,277,l)
);
}
);
width = 640;
}
);
metricLeft = "te-canadian";
metricRight = "te-canadian";
note = uni15E9;
unicode = 5609;
},
{
color = 9;
glyphname = "peCarrier-canadian";
lastChange = "2023-01-13 15:28:12 +0000";
layers = (
{
anchors = (
{
name = middle_center_can;
pos = (351,357);
}
);
layerId = "86DE26EB-3058-4E6D-9480-BC9D8886A6AA";
shapes = (
{
closed = 1;
nodes = (
(261,0,ls),
(479,0,o),
(603,120,o),
(603,358,cs),
(603,596,o),
(479,714,o),
(259,714,cs),
(47,714,l),
(47,585,l),
(116,585,l),
(116,129,l),
(47,129,l),
(47,0,l)
);
},
{
closed = 1;
nodes = (
(261,623,l),
(204,585,l),
(260,585,ls),
(390,585,o),
(456,518,o),
(456,358,cs),
(456,198,o),
(390,129,o),
(261,129,cs),
(204,129,l),
(261,91,l)
);
}
);
width = 648;
}
);
metricRight = "theCarrier-canadian";
note = uni15EA;
unicode = 5610;
},
{
color = 9;
glyphname = "paCarrier-canadian";
lastChange = "2023-01-13 15:31:04 +0000";
layers = (
{
layerId = "86DE26EB-3058-4E6D-9480-BC9D8886A6AA";
shapes = (
{
closed = 1;
nodes = (
(602,0,l),
(602,129,l),
(533,129,l),
(533,585,l),
(602,585,l),
(602,714,l),
(389,714,ls),
(170,714,o),
(45,596,o),
(45,358,cs),
(45,120,o),
(170,0,o),
(388,0,cs)
);
},
{
closed = 1;
nodes = (
(445,129,l),
(388,129,ls),
(258,129,o),
(193,198,o),
(193,358,cs),
(193,518,o),
(258,585,o),
(389,585,cs),
(445,585,l),
(387,623,l),
(387,91,l)
);
}
);
width = 649;
}
);
metricLeft = "=|theCarrier-canadian";
metricRight = "=|peCarrier-canadian";
note = uni15ED;
unicode = 5613;
},
{
color = 6;
glyphname = "pCarrier-canadian";
lastChange = "2023-01-13 15:28:12 +0000";
layers = (
{
layerId = "86DE26EB-3058-4E6D-9480-BC9D8886A6AA";
shapes = (
{
closed = 1;
nodes = (
(333,189,l),
(333,282,l),
(238,282,l),
(238,546,l),
(140,546,l),
(140,282,l),
(45,282,l),
(45,189,l)
);
}
);
width = 378;
}
);
metricLeft = "shorthorizontalstrokeFinal-canadian";
metricRight = "shorthorizontalstrokeFinal-canadian";
note = uni15EE;
unicode = 5614;
},
{
color = 9;
glyphname = "guCarrier-canadian";
lastChange = "2023-01-13 15:28:12 +0000";
layers = (
{
anchors = (
{
name = top_center_can;
pos = (372,714);
}
);
layerId = "86DE26EB-3058-4E6D-9480-BC9D8886A6AA";
shapes = (
{
closed = 1;
nodes = (
(322,-14,o),
(378,30,o),
(406,122,c),
(339,122,l),
(372,28,o),
(427,-14,o),
(509,-14,cs),
(621,-14,o),
(695,61,o),
(695,192,cs),
(695,714,l),
(555,714,l),
(555,199,ls),
(555,144,o),
(535,118,o),
(499,118,cs),
(464,118,o),
(441,145,o),
(441,199,cs),
(441,714,l),
(304,714,l),
(304,199,ls),
(304,144,o),
(283,118,o),
(248,118,cs),
(211,118,o),
(190,144,o),
(190,199,cs),
(190,714,l),
(50,714,l),
(50,193,ls),
(50,62,o),
(126,-14,o),
(238,-14,cs)
);
}
);
width = 745;
}
);
metricRight = "=|";
note = uni15EF;
unicode = 5615;
},
{
color = 9;
glyphname = "goCarrier-canadian";
lastChange = "2023-01-13 15:28:12 +0000";
layers = (
{
layerId = "86DE26EB-3058-4E6D-9480-BC9D8886A6AA";
shapes = (
{
closed = 1;
nodes = (
(190,0,l),
(190,515,ls),
(190,570,o),
(210,596,o),
(246,596,cs),
(281,596,o),
(304,570,o),
(304,515,cs),
(304,0,l),
(441,0,l),
(441,515,ls),
(441,570,o),
(462,596,o),
(497,596,cs),
(534,596,o),
(555,570,o),
(555,515,cs),
(555,0,l),
(695,0,l),
(695,521,ls),
(695,652,o),
(619,728,o),
(507,728,cs),
(423,728,o),
(367,684,o),
(339,592,c),
(406,592,l),
(373,686,o),
(318,728,o),
(236,728,cs),
(123,728,o),
(50,653,o),
(50,522,cs),
(50,0,l)
);
}
);
width = 745;
}
);
metricLeft = "guCarrier-canadian";
metricRight = "guCarrier-canadian";
note = uni15F0;
unicode = 5616;
},
{
color = 9;
glyphname = "geCarrier-canadian";
lastChange = "2023-01-13 15:28:12 +0000";
layers = (
{
anchors = (
{
name = top_center_can;
pos = (324,714);
}
);
layerId = "86DE26EB-3058-4E6D-9480-BC9D8886A6AA";
shapes = (
{
closed = 1;
nodes = (
(376,0,ls),
(516,0,o),
(594,71,o),
(594,199,cs),
(594,283,o),
(546,351,o),
(473,381,c),
(473,332,l),
(549,359,o),
(594,422,o),
(594,513,cs),
(594,640,o),
(513,714,o),
(376,714,cs),
(53,714,l),
(53,594,l),
(346,594,ls),
(410,594,o),
(447,566,o),
(447,507,cs),
(447,446,o),
(410,417,o),
(347,417,cs),
(53,417,l),
(53,299,l),
(347,299,ls),
(409,299,o),
(447,269,o),
(447,208,cs),
(447,148,o),
(409,120,o),
(346,120,cs),
(53,120,l),
(53,0,l)
);
}
);
width = 644;
}
);
metricLeft = "nunavuth-canadian";
note = uni15F1;
unicode = 5617;
},
{
color = 9;
glyphname = "geeCarrier-canadian";
lastChange = "2023-01-13 15:28:12 +0000";
layers = (
{
layerId = "86DE26EB-3058-4E6D-9480-BC9D8886A6AA";
shapes = (
{
closed = 1;
nodes = (
(376,0,ls),
(516,0,o),
(594,71,o),
(594,199,cs),
(594,283,o),
(546,351,o),
(473,381,c),
(473,332,l),
(549,359,o),
(594,422,o),
(594,513,cs),
(594,640,o),
(513,714,o),
(376,714,cs),
(53,714,l),
(53,594,l),
(346,594,ls),
(410,594,o),
(447,566,o),
(447,507,cs),
(447,446,o),
(410,416,o),
(347,416,cs),
(306,416,l),
(306,495,l),
(229,495,l),
(229,416,l),
(53,416,l),
(53,300,l),
(229,300,l),
(229,221,l),
(306,221,l),
(306,300,l),
(347,300,ls),
(409,300,o),
(447,269,o),
(447,208,cs),
(447,148,o),
(409,120,o),
(346,120,cs),
(53,120,l),
(53,0,l)
);
}
);
width = 644;
}
);
metricLeft = "geCarrier-canadian";
metricRight = "geCarrier-canadian";
note = uni15F2;
unicode = 5618;
},
{
color = 9;
glyphname = "giCarrier-canadian";
lastChange = "2023-01-13 15:28:12 +0000";
layers = (
{
layerId = "86DE26EB-3058-4E6D-9480-BC9D8886A6AA";
shapes = (
{
closed = 1;
nodes = (
(376,0,ls),
(516,0,o),
(594,71,o),
(594,199,cs),
(594,282,o),
(547,349,o),
(476,379,c),
(476,334,l),
(550,361,o),
(594,423,o),
(594,513,cs),
(594,640,o),
(513,714,o),
(376,714,cs),
(53,714,l),
(53,594,l),
(346,594,ls),
(410,594,o),
(447,566,o),
(447,507,cs),
(447,446,o),
(410,416,o),
(360,416,cs),
(320,416,l),
(369,396,l),
(355,432,o),
(322,457,o),
(280,457,cs),
(247,457,o),
(218,441,o),
(201,416,c),
(53,416,l),
(53,300,l),
(200,300,l),
(217,274,o),
(246,257,o),
(280,257,cs),
(322,257,o),
(355,283,o),
(369,320,c),
(320,300,l),
(359,300,ls),
(409,300,o),
(447,269,o),
(447,208,cs),
(447,148,o),
(409,120,o),
(346,120,cs),
(53,120,l),
(53,0,l)
);
}
);
width = 644;
}
);
metricLeft = "geCarrier-canadian";
metricRight = "geCarrier-canadian";
note = uni15F3;
unicode = 5619;
},
{
color = 9;
glyphname = "gaCarrier-canadian";
lastChange = "2023-01-13 15:31:04 +0000";
layers = (
{
anchors = (
{
name = top_center_can;
pos = (336,714);
}
);
layerId = "86DE26EB-3058-4E6D-9480-BC9D8886A6AA";
shapes = (
{
closed = 1;
nodes = (
(592,0,l),
(592,120,l),
(298,120,ls),
(236,120,o),
(198,148,o),
(198,208,cs),
(198,269,o),
(236,299,o),
(298,299,cs),
(592,299,l),
(592,417,l),
(297,417,ls),
(234,417,o),
(198,446,o),
(198,507,cs),
(198,566,o),
(235,594,o),
(298,594,cs),
(592,594,l),
(592,714,l),
(269,714,ls),
(132,714,o),
(50,640,o),
(50,513,cs),
(50,422,o),
(96,359,o),
(172,332,c),
(172,382,l),
(99,351,o),
(50,283,o),
(50,199,cs),
(50,71,o),
(129,0,o),
(269,0,cs)
);
}
);
width = 645;
}
);
metricLeft = "=|geCarrier-canadian";
metricRight = "=|geCarrier-canadian";
note = uni15F4;
unicode = 5620;
},
{
color = 9;
glyphname = "khuCarrier-canadian";
lastChange = "2023-01-13 15:28:12 +0000";
layers = (
{
layerId = "86DE26EB-3058-4E6D-9480-BC9D8886A6AA";
shapes = (
{
closed = 1;
nodes = (
(322,-14,o),
(379,30,o),
(406,122,c),
(339,122,l),
(372,28,o),
(427,-14,o),
(509,-14,cs),
(622,-14,o),
(695,61,o),
(695,192,cs),
(695,714,l),
(50,714,l),
(50,193,ls),
(50,62,o),
(126,-14,o),
(238,-14,cs)
);
},
{
closed = 1;
nodes = (
(212,118,o),
(191,144,o),
(191,199,cs),
(191,587,l),
(306,587,l),
(306,199,ls),
(306,144,o),
(285,118,o),
(249,118,cs)
);
},
{
closed = 1;
nodes = (
(463,118,o),
(440,145,o),
(440,199,cs),
(440,587,l),
(554,587,l),
(554,199,ls),
(554,144,o),
(534,118,o),
(498,118,cs)
);
}
);
width = 745;
}
);
metricLeft = "guCarrier-canadian";
metricRight = "guCarrier-canadian";
note = uni15F5;
unicode = 5621;
},
{
color = 9;
glyphname = "khoCarrier-canadian";
lastChange = "2023-01-13 15:28:12 +0000";
layers = (
{
layerId = "86DE26EB-3058-4E6D-9480-BC9D8886A6AA";
shapes = (
{
closed = 1;
nodes = (
(695,0,l),
(695,521,ls),
(695,652,o),
(620,728,o),
(507,728,cs),
(424,728,o),
(368,685,o),
(339,592,c),
(406,592,l),
(374,685,o),
(319,728,o),
(236,728,cs),
(124,728,o),
(50,654,o),
(50,522,cs),
(50,0,l)
);
},
{
closed = 1;
nodes = (
(191,515,ls),
(191,570,o),
(212,596,o),
(248,596,cs),
(283,596,o),
(305,570,o),
(305,515,cs),
(305,127,l),
(191,127,l)
);
},
{
closed = 1;
nodes = (
(440,515,ls),
(440,570,o),
(461,596,o),
(497,596,cs),
(533,596,o),
(554,570,o),
(554,515,cs),
(554,127,l),
(440,127,l)
);
}
);
width = 745;
}
);
metricLeft = "guCarrier-canadian";
metricRight = "guCarrier-canadian";
note = uni15F6;
unicode = 5622;
},
{
color = 9;
glyphname = "kheCarrier-canadian";
lastChange = "2023-01-13 15:28:12 +0000";
layers = (
{
layerId = "86DE26EB-3058-4E6D-9480-BC9D8886A6AA";
shapes = (
{
closed = 1;
nodes = (
(382,0,ls),
(522,0,o),
(601,71,o),
(601,199,cs),
(601,283,o),
(552,351,o),
(479,381,c),
(479,332,l),
(555,359,o),
(601,422,o),
(601,513,cs),
(601,640,o),
(519,714,o),
(382,714,cs),
(53,714,l),
(53,0,l)
);
},
{
closed = 1;
nodes = (
(199,299,l),
(353,299,ls),
(415,299,o),
(453,269,o),
(453,208,cs),
(453,148,o),
(415,118,o),
(353,118,cs),
(199,118,l)
);
},
{
closed = 1;
nodes = (
(199,596,l),
(353,596,ls),
(416,596,o),
(453,566,o),
(453,507,cs),
(453,446,o),
(416,416,o),
(353,416,cs),
(199,416,l)
);
}
);
width = 651;
}
);
metricLeft = "nunavuth-canadian";
metricRight = "geCarrier-canadian";
note = uni15F7;
unicode = 5623;
},
{
color = 9;
glyphname = "kheeCarrier-canadian";
lastChange = "2023-01-13 15:28:12 +0000";
layers = (
{
layerId = "86DE26EB-3058-4E6D-9480-BC9D8886A6AA";
shapes = (
{
closed = 1;
nodes = (
(382,0,ls),
(522,0,o),
(601,71,o),
(601,199,cs),
(601,278,o),
(558,341,o),
(492,372,c),
(492,339,l),
(560,366,o),
(601,428,o),
(601,513,cs),
(601,640,o),
(519,714,o),
(382,714,cs),
(53,714,l),
(53,0,l)
);
},
{
closed = 1;
nodes = (
(199,300,l),
(279,300,l),
(279,218,l),
(358,218,l),
(358,335,l),
(309,300,l),
(366,300,ls),
(421,300,o),
(453,270,o),
(453,208,cs),
(453,148,o),
(415,118,o),
(353,118,cs),
(199,118,l)
);
},
{
closed = 1;
nodes = (
(358,497,l),
(279,497,l),
(279,416,l),
(199,416,l),
(199,596,l),
(353,596,ls),
(416,596,o),
(453,566,o),
(453,507,cs),
(453,446,o),
(423,416,o),
(366,416,cs),
(309,416,l),
(358,380,l)
);
}
);
width = 651;
}
);
metricLeft = "nunavuth-canadian";
metricRight = "geCarrier-canadian";
note = uni15F8;
unicode = 5624;
},
{
color = 9;
glyphname = "khiCarrier-canadian";
lastChange = "2023-01-13 15:28:12 +0000";
layers = (
{
layerId = "86DE26EB-3058-4E6D-9480-BC9D8886A6AA";
shapes = (
{
closed = 1;
nodes = (
(382,0,ls),
(522,0,o),
(601,71,o),
(601,199,cs),
(601,282,o),
(554,347,o),
(485,379,c),
(484,334,l),
(557,360,o),
(601,424,o),
(601,513,cs),
(601,640,o),
(519,714,o),
(382,714,cs),
(53,714,l),
(53,0,l)
);
},
{
closed = 1;
nodes = (
(199,306,l),
(236,306,l),
(253,277,o),
(283,257,o),
(318,257,cs),
(369,257,o),
(406,299,o),
(412,348,c),
(332,306,l),
(372,306,ls),
(421,306,o),
(453,275,o),
(453,211,cs),
(453,146,o),
(415,118,o),
(353,118,cs),
(199,118,l)
);
},
{
closed = 1;
nodes = (
(353,596,ls),
(416,596,o),
(453,568,o),
(453,503,cs),
(453,441,o),
(423,409,o),
(373,409,cs),
(332,409,l),
(412,366,l),
(406,417,o),
(369,457,o),
(318,457,cs),
(267,457,o),
(228,417,o),
(222,367,c),
(259,409,l),
(199,409,l),
(199,596,l)
);
}
);
width = 651;
}
);
metricLeft = "nunavuth-canadian";
metricRight = "geCarrier-canadian";
note = uni15F9;
unicode = 5625;
},
{
color = 9;
glyphname = "khaCarrier-canadian";
lastChange = "2023-01-13 15:28:12 +0000";
layers = (
{
layerId = "86DE26EB-3058-4E6D-9480-BC9D8886A6AA";
shapes = (
{
closed = 1;
nodes = (
(598,0,l),
(598,714,l),
(269,714,ls),
(132,714,o),
(50,640,o),
(50,513,cs),
(50,424,o),
(93,361,o),
(167,334,c),
(166,379,l),
(97,348,o),
(50,282,o),
(50,199,cs),
(50,71,o),
(129,0,o),
(269,0,cs)
);
},
{
closed = 1;
nodes = (
(236,118,o),
(198,148,o),
(198,208,cs),
(198,269,o),
(236,299,o),
(298,299,cs),
(452,299,l),
(452,118,l),
(298,118,ls)
);
},
{
closed = 1;
nodes = (
(234,416,o),
(198,446,o),
(198,507,cs),
(198,566,o),
(235,596,o),
(298,596,cs),
(452,596,l),
(452,416,l),
(297,416,ls)
);
}
);
width = 651;
}
);
metricLeft = "=|geCarrier-canadian";
metricRight = "nunavuth-canadian";
note = uni15FA;
unicode = 5626;
},
{
color = 9;
glyphname = "kkuCarrier-canadian";
lastChange = "2023-01-13 15:28:12 +0000";
layers = (
{
layerId = "86DE26EB-3058-4E6D-9480-BC9D8886A6AA";
shapes = (
{
closed = 1;
nodes = (
(322,-14,o),
(379,31,o),
(406,123,c),
(339,123,l),
(371,29,o),
(427,-14,o),
(509,-14,cs),
(621,-14,o),
(695,61,o),
(695,192,cs),
(695,714,l),
(653,714,l),
(417,569,l),
(417,433,l),
(591,538,l),
(555,558,l),
(555,199,ls),
(555,144,o),
(534,118,o),
(498,118,cs),
(463,118,o),
(440,145,o),
(440,199,cs),
(440,714,l),
(306,714,l),
(306,199,ls),
(306,144,o),
(284,118,o),
(248,118,cs),
(211,118,o),
(190,144,o),
(190,199,cs),
(190,558,l),
(155,538,l),
(324,436,l),
(324,573,l),
(92,714,l),
(50,714,l),
(50,193,ls),
(50,62,o),
(126,-14,o),
(238,-14,cs)
);
}
);
width = 745;
}
);
metricLeft = "guCarrier-canadian";
metricRight = "guCarrier-canadian";
note = uni15FB;
unicode = 5627;
},
{
color = 9;
glyphname = "kkoCarrier-canadian";
lastChange = "2023-01-13 15:28:12 +0000";
layers = (
{
layerId = "86DE26EB-3058-4E6D-9480-BC9D8886A6AA";
shapes = (
{
closed = 1;
nodes = (
(91,0,l),
(328,145,l),
(328,281,l),
(154,176,l),
(190,156,l),
(190,515,ls),
(190,570,o),
(211,596,o),
(246,596,cs),
(281,596,o),
(305,569,o),
(305,515,cs),
(305,0,l),
(439,0,l),
(439,515,ls),
(439,570,o),
(461,596,o),
(497,596,cs),
(533,596,o),
(555,570,o),
(555,515,cs),
(555,156,l),
(590,176,l),
(421,278,l),
(421,141,l),
(652,0,l),
(695,0,l),
(695,521,ls),
(695,652,o),
(619,728,o),
(507,728,cs),
(423,728,o),
(366,683,o),
(338,591,c),
(406,591,l),
(373,685,o),
(318,728,o),
(236,728,cs),
(123,728,o),
(50,653,o),
(50,522,cs),
(50,0,l)
);
}
);
width = 745;
}
);
metricLeft = "guCarrier-canadian";
metricRight = "guCarrier-canadian";
note = uni15FC;
unicode = 5628;
},
{
color = 9;
glyphname = "kkeCarrier-canadian";
lastChange = "2023-01-13 15:28:12 +0000";
layers = (
{
layerId = "86DE26EB-3058-4E6D-9480-BC9D8886A6AA";
shapes = (
{
closed = 1;
nodes = (
(396,0,ls),
(536,0,o),
(614,71,o),
(614,199,cs),
(614,282,o),
(568,347,o),
(499,379,c),
(497,334,l),
(571,360,o),
(614,424,o),
(614,513,cs),
(614,640,o),
(533,714,o),
(396,714,cs),
(50,714,l),
(50,678,l),
(132,417,l),
(61,417,l),
(61,299,l),
(133,299,l),
(50,36,l),
(50,0,l)
);
},
{
closed = 1;
nodes = (
(280,299,l),
(367,299,ls),
(429,299,o),
(467,269,o),
(467,208,cs),
(467,148,o),
(429,120,o),
(366,120,cs),
(158,120,l),
(203,57,l)
);
},
{
closed = 1;
nodes = (
(201,657,l),
(156,594,l),
(366,594,ls),
(429,594,o),
(467,566,o),
(467,507,cs),
(467,446,o),
(430,417,o),
(367,417,cs),
(278,417,l)
);
}
);
width = 664;
}
);
metricRight = "geCarrier-canadian";
note = uni15FD;
unicode = 5629;
},
{
color = 9;
glyphname = "kkeeCarrier-canadian";
lastChange = "2023-01-13 15:28:12 +0000";
layers = (
{
layerId = "86DE26EB-3058-4E6D-9480-BC9D8886A6AA";
shapes = (
{
closed = 1;
nodes = (
(396,0,ls),
(536,0,o),
(614,71,o),
(614,199,cs),
(614,282,o),
(568,347,o),
(499,379,c),
(497,334,l),
(571,360,o),
(614,424,o),
(614,513,cs),
(614,640,o),
(533,714,o),
(396,714,cs),
(50,714,l),
(50,678,l),
(132,417,l),
(61,417,l),
(61,299,l),
(133,299,l),
(50,36,l),
(50,0,l)
);
},
{
closed = 1;
nodes = (
(277,303,l),
(313,303,l),
(313,220,l),
(392,220,l),
(392,329,l),
(341,303,l),
(381,303,ls),
(435,303,o),
(467,273,o),
(467,210,cs),
(467,149,o),
(429,120,o),
(366,120,cs),
(154,120,l),
(200,57,l)
);
},
{
closed = 1;
nodes = (
(392,495,l),
(313,495,l),
(313,413,l),
(275,413,l),
(198,657,l),
(153,594,l),
(366,594,ls),
(429,594,o),
(467,565,o),
(467,505,cs),
(467,442,o),
(436,413,o),
(381,413,cs),
(341,413,l),
(392,393,l)
);
}
);
width = 664;
}
);
metricLeft = "kkeCarrier-canadian";
metricRight = "geCarrier-canadian";
note = uni15FE;
unicode = 5630;
},
{
color = 9;
glyphname = "kkiCarrier-canadian";
lastChange = "2023-01-13 15:28:12 +0000";
layers = (
{
layerId = "86DE26EB-3058-4E6D-9480-BC9D8886A6AA";
shapes = (
{
closed = 1;
nodes = (
(396,0,ls),
(536,0,o),
(614,71,o),
(614,199,cs),
(614,282,o),
(568,347,o),
(499,379,c),
(497,334,l),
(571,360,o),
(614,424,o),
(614,513,cs),
(614,640,o),
(533,714,o),
(396,714,cs),
(50,714,l),
(50,678,l),
(132,417,l),
(61,417,l),
(61,299,l),
(133,299,l),
(50,36,l),
(50,0,l)
);
},
{
closed = 1;
nodes = (
(279,309,l),
(269,309,l),
(282,278,o),
(312,257,o),
(349,257,cs),
(402,257,o),
(435,302,o),
(437,341,c),
(361,309,l),
(381,309,ls),
(435,309,o),
(467,273,o),
(467,205,cs),
(467,149,o),
(429,120,o),
(366,120,cs),
(154,120,l),
(200,57,l)
);
},
{
closed = 1;
nodes = (
(435,415,o),
(404,457,o),
(349,457,cs),
(312,457,o),
(283,437,o),
(269,406,c),
(277,406,l),
(198,657,l),
(153,594,l),
(366,594,ls),
(429,594,o),
(467,565,o),
(467,500,cs),
(467,442,o),
(436,406,o),
(381,406,cs),
(362,406,l),
(439,374,l)
);
}
);
width = 664;
}
);
metricLeft = "kkeCarrier-canadian";
metricRight = "geCarrier-canadian";
note = uni15FF;
unicode = 5631;
},
{
color = 9;
glyphname = "kkaCarrier-canadian";
lastChange = "2023-01-13 15:28:12 +0000";
layers = (
{
layerId = "86DE26EB-3058-4E6D-9480-BC9D8886A6AA";
shapes = (
{
closed = 1;
nodes = (
(614,0,l),
(614,36,l),
(532,299,l),
(603,299,l),
(603,417,l),
(532,417,l),
(614,678,l),
(614,714,l),
(269,714,ls),
(132,714,o),
(50,640,o),
(50,513,cs),
(50,424,o),
(93,361,o),
(167,334,c),
(166,379,l),
(97,348,o),
(50,282,o),
(50,199,cs),
(50,71,o),
(129,0,o),
(269,0,cs)
);
},
{
closed = 1;
nodes = (
(507,120,l),
(298,120,ls),
(236,120,o),
(198,148,o),
(198,208,cs),
(198,269,o),
(236,299,o),
(298,299,cs),
(385,299,l),
(462,57,l)
);
},
{
closed = 1;
nodes = (
(234,417,o),
(198,446,o),
(198,507,cs),
(198,566,o),
(235,594,o),
(298,594,cs),
(508,594,l),
(463,657,l),
(386,417,l),
(297,417,ls)
);
}
);
width = 664;
}
);
metricLeft = "=|geCarrier-canadian";
metricRight = "=|kkeCarrier-canadian";
note = uni1600;
unicode = 5632;
},
{
color = 6;
glyphname = "kkCarrier-canadian";
lastChange = "2023-01-13 15:28:12 +0000";
layers = (
{
layerId = "86DE26EB-3058-4E6D-9480-BC9D8886A6AA";
shapes = (
{
closed = 1;
nodes = (
(186,189,l),
(325,528,l),
(325,546,l),
(229,546,l),
(141,299,l),
(210,299,l),
(121,546,l),
(25,546,l),
(25,528,l),
(164,189,l)
);
}
);
width = 350;
}
);
note = uni1601;
unicode = 5633;
},
{
color = 9;
glyphname = "nuCarrier-canadian";
lastChange = "2023-01-13 15:28:12 +0000";
layers = (
{
layerId = "86DE26EB-3058-4E6D-9480-BC9D8886A6AA";
shapes = (
{
closed = 1;
nodes = (
(495,-14,o),
(590,87,o),
(590,274,cs),
(590,319,l),
(444,319,l),
(444,265,ls),
(444,167,o),
(401,121,o),
(322,121,cs),
(241,121,o),
(198,170,o),
(198,273,cs),
(198,714,l),
(50,714,l),
(50,279,ls),
(50,87,o),
(149,-14,o),
(322,-14,cs)
);
}
);
width = 630;
}
);
metricLeft = "te-canadian";
note = uni1602;
unicode = 5634;
},
{
color = 9;
glyphname = "noCarrier-canadian";
lastChange = "2023-01-13 15:31:04 +0000";
layers = (
{
layerId = "86DE26EB-3058-4E6D-9480-BC9D8886A6AA";
shapes = (
{
closed = 1;
nodes = (
(580,0,l),
(580,435,ls),
(580,627,o),
(481,728,o),
(309,728,cs),
(135,728,o),
(40,627,o),
(40,440,cs),
(40,395,l),
(186,395,l),
(186,449,ls),
(186,547,o),
(229,593,o),
(309,593,cs),
(390,593,o),
(433,544,o),
(433,441,cs),
(433,0,l)
);
}
);
width = 630;
}
);
metricLeft = "=|nuCarrier-canadian";
metricRight = "te-canadian";
note = uni1603;
unicode = 5635;
},
{
color = 9;
glyphname = "neCarrier-canadian";
lastChange = "2023-01-13 15:31:04 +0000";
layers = (
{
anchors = (
{
name = middle_center_can;
pos = (286,357);
}
);
layerId = "86DE26EB-3058-4E6D-9480-BC9D8886A6AA";
shapes = (
{
closed = 1;
nodes = (
(258,0,ls),
(472,0,o),
(598,120,o),
(598,358,cs),
(598,596,o),
(473,714,o),
(254,714,cs),
(34,714,l),
(34,580,l),
(254,580,ls),
(379,580,o),
(451,515,o),
(451,358,cs),
(451,201,o),
(377,134,o),
(258,134,cs),
(247,134,l),
(247,0,l)
);
}
);
width = 643;
}
);
metricRight = "theCarrier-canadian";
note = uni1604;
unicode = 5636;
},
{
color = 9;
glyphname = "naCarrier-canadian";
lastChange = "2023-01-13 15:31:04 +0000";
layers = (
{
layerId = "86DE26EB-3058-4E6D-9480-BC9D8886A6AA";
shapes = (
{
closed = 1;
nodes = (
(609,0,l),
(609,134,l),
(389,134,ls),
(265,134,o),
(193,199,o),
(193,356,cs),
(193,513,o),
(266,580,o),
(385,580,cs),
(396,580,l),
(396,714,l),
(385,714,ls),
(171,714,o),
(45,594,o),
(45,356,cs),
(45,118,o),
(170,0,o),
(389,0,cs)
);
}
);
width = 643;
}
);
metricLeft = "=|theCarrier-canadian";
metricRight = "=|neCarrier-canadian";
note = uni1607;
unicode = 5639;
},
{
color = 9;
glyphname = "muCarrier-canadian";
lastChange = "2023-01-13 15:28:12 +0000";
layers = (
{
layerId = "86DE26EB-3058-4E6D-9480-BC9D8886A6AA";
shapes = (
{
closed = 1;
nodes = (
(322,-14,o),
(378,30,o),
(406,122,c),
(339,122,l),
(372,28,o),
(427,-14,o),
(509,-14,cs),
(621,-14,o),
(695,61,o),
(695,192,cs),
(695,408,l),
(555,408,l),
(555,199,ls),
(555,144,o),
(535,118,o),
(499,118,cs),
(464,118,o),
(441,145,o),
(441,199,cs),
(441,408,l),
(304,408,l),
(304,199,ls),
(304,144,o),
(283,118,o),
(248,118,cs),
(211,118,o),
(190,144,o),
(190,199,cs),
(190,714,l),
(50,714,l),
(50,193,ls),
(50,62,o),
(126,-14,o),
(238,-14,cs)
);
}
);
width = 745;
}
);
metricLeft = "guCarrier-canadian";
metricRight = "=|";
note = uni1608;
unicode = 5640;
},
{
color = 9;
glyphname = "moCarrier-canadian";
lastChange = "2023-01-13 15:28:12 +0000";
layers = (
{
layerId = "86DE26EB-3058-4E6D-9480-BC9D8886A6AA";
shapes = (
{
closed = 1;
nodes = (
(695,0,l),
(695,521,ls),
(695,652,o),
(619,728,o),
(507,728,cs),
(423,728,o),
(367,684,o),
(339,592,c),
(406,592,l),
(373,686,o),
(318,728,o),
(236,728,cs),
(123,728,o),
(50,653,o),
(50,522,cs),
(50,306,l),
(190,306,l),
(190,515,ls),
(190,570,o),
(210,596,o),
(246,596,cs),
(281,596,o),
(304,569,o),
(304,515,cs),
(304,306,l),
(441,306,l),
(441,515,ls),
(441,570,o),
(462,596,o),
(497,596,cs),
(534,596,o),
(555,570,o),
(555,515,cs),
(555,0,l)
);
}
);
width = 745;
}
);
metricLeft = "=|muCarrier-canadian";
metricRight = "guCarrier-canadian";
note = uni1609;
unicode = 5641;
},
{
color = 9;
glyphname = "meCarrier-canadian";
lastChange = "2023-01-13 15:28:12 +0000";
layers = (
{
layerId = "86DE26EB-3058-4E6D-9480-BC9D8886A6AA";
shapes = (
{
closed = 1;
nodes = (
(379,0,ls),
(520,0,o),
(598,71,o),
(598,199,cs),
(598,283,o),
(550,351,o),
(477,381,c),
(477,332,l),
(553,359,o),
(598,422,o),
(598,513,cs),
(598,640,o),
(517,714,o),
(379,714,cs),
(34,714,l),
(34,594,l),
(350,594,ls),
(413,594,o),
(450,566,o),
(450,507,cs),
(450,446,o),
(414,417,o),
(351,417,cs),
(250,417,l),
(250,299,l),
(350,299,ls),
(412,299,o),
(450,269,o),
(450,208,cs),
(450,148,o),
(413,120,o),
(350,120,cs),
(250,120,l),
(250,0,l)
);
}
);
width = 648;
}
);
metricLeft = "neCarrier-canadian";
metricRight = "geCarrier-canadian";
note = uni160A;
unicode = 5642;
},
{
color = 9;
glyphname = "meeCarrier-canadian";
lastChange = "2023-01-13 15:28:12 +0000";
layers = (
{
layerId = "86DE26EB-3058-4E6D-9480-BC9D8886A6AA";
shapes = (
{
closed = 1;
nodes = (
(379,0,ls),
(520,0,o),
(598,71,o),
(598,199,cs),
(598,282,o),
(552,347,o),
(483,379,c),
(481,334,l),
(555,360,o),
(598,424,o),
(598,513,cs),
(598,640,o),
(517,714,o),
(379,714,cs),
(34,714,l),
(34,594,l),
(350,594,ls),
(413,594,o),
(450,565,o),
(450,505,cs),
(450,444,o),
(418,414,o),
(362,414,cs),
(336,414,l),
(336,489,l),
(250,489,l),
(250,225,l),
(336,225,l),
(336,302,l),
(360,302,ls),
(418,302,o),
(450,272,o),
(450,209,cs),
(450,149,o),
(413,120,o),
(350,120,cs),
(250,120,l),
(250,0,l)
);
}
);
width = 648;
}
);
metricLeft = "neCarrier-canadian";
metricRight = "geCarrier-canadian";
note = uni160B;
unicode = 5643;
},
{
color = 9;
glyphname = "miCarrier-canadian";
lastChange = "2023-01-13 15:28:12 +0000";
layers = (
{
layerId = "86DE26EB-3058-4E6D-9480-BC9D8886A6AA";
shapes = (
{
closed = 1;
nodes = (
(379,0,ls),
(520,0,o),
(598,71,o),
(598,199,cs),
(598,282,o),
(552,347,o),
(483,379,c),
(481,334,l),
(555,360,o),
(598,424,o),
(598,513,cs),
(598,640,o),
(517,714,o),
(379,714,cs),
(34,714,l),
(34,594,l),
(350,594,ls),
(413,594,o),
(450,565,o),
(450,505,cs),
(450,444,o),
(418,414,o),
(369,414,cs),
(313,414,l),
(395,374,l),
(388,421,o),
(350,457,o),
(299,457,cs),
(243,457,o),
(201,413,o),
(201,358,cs),
(201,301,o),
(243,257,o),
(299,257,cs),
(349,257,o),
(387,296,o),
(393,341,c),
(312,302,l),
(368,302,ls),
(418,302,o),
(450,272,o),
(450,209,cs),
(450,149,o),
(413,120,o),
(350,120,cs),
(250,120,l),
(250,0,l)
);
}
);
width = 648;
}
);
metricLeft = "neCarrier-canadian";
metricRight = "geCarrier-canadian";
note = uni160C;
unicode = 5644;
},
{
color = 9;
glyphname = "maCarrier-canadian";
lastChange = "2023-01-13 15:28:12 +0000";
layers = (
{
layerId = "86DE26EB-3058-4E6D-9480-BC9D8886A6AA";
shapes = (
{
closed = 1;
nodes = (
(614.005,0,l),
(614,120,l),
(298,120,ls),
(235,120,o),
(198,148,o),
(198,207,cs),
(198,268,o),
(235,297,o),
(297,297,cs),
(398,297,l),
(398,416,l),
(298,416,ls),
(236,416,o),
(198,445,o),
(198,506,cs),
(198,565,o),
(236,594,o),
(298,594,cs),
(398,594,l),
(398,714,l),
(269,714,ls),
(129,714,o),
(50,643,o),
(50,514,cs),
(50,429,o),
(98,362,o),
(172,333,c),
(172,382,l),
(96,354,o),
(50,290,o),
(50,200,cs),
(50,73,o),
(131,0,o),
(269,0,cs)
);
}
);
width = 648;
}
);
metricLeft = "=|geCarrier-canadian";
metricRight = "=|neCarrier-canadian";
note = uni160D;
unicode = 5645;
},
{
color = 9;
glyphname = "yuCarrier-canadian";
lastChange = "2023-01-13 15:28:12 +0000";
layers = (
{
layerId = "86DE26EB-3058-4E6D-9480-BC9D8886A6AA";
shapes = (
{
closed = 1;
nodes = (
(529,-14,o),
(640,130,o),
(640,396,cs),
(640,630,o),
(561,728,o),
(442,728,cs),
(334,728,o),
(266,645,o),
(266,509,cs),
(266,379,o),
(334,303,o),
(427,303,cs),
(439,303,o),
(452,305,o),
(463,309,c),
(463,422,l),
(458,421,o),
(453,420,o),
(444,420,cs),
(411,420,o),
(390,448,o),
(390,516,cs),
(390,582,o),
(407,611,o),
(438,611,cs),
(477,611,o),
(500,570,o),
(500,401,cs),
(500,191,o),
(439,121,o),
(336,121,cs),
(249,121,o),
(198,174,o),
(198,285,cs),
(198,714,l),
(50,714,l),
(50,289,ls),
(50,89,o),
(161,-14,o),
(331,-14,cs)
);
}
);
width = 690;
}
);
metricLeft = "te-canadian";
metricRight = "te-canadian";
note = uni160E;
unicode = 5646;
},
{
color = 9;
glyphname = "yoCarrier-canadian";
lastChange = "2023-01-13 15:28:12 +0000";
layers = (
{
layerId = "86DE26EB-3058-4E6D-9480-BC9D8886A6AA";
shapes = (
{
closed = 1;
nodes = (
(356,-14,o),
(424,69,o),
(424,205,cs),
(424,335,o),
(357,411,o),
(263,411,cs),
(251,411,o),
(238,409,o),
(228,405,c),
(228,292,l),
(233,293,o),
(238,294,o),
(246,294,cs),
(279,294,o),
(301,266,o),
(301,198,cs),
(301,132,o),
(283,103,o),
(252,103,cs),
(214,103,o),
(190,144,o),
(190,313,cs),
(190,523,o),
(251,593,o),
(355,593,cs),
(442,593,o),
(493,540,o),
(493,429,cs),
(493,0,l),
(640,0,l),
(640,425,ls),
(640,625,o),
(530,728,o),
(360,728,cs),
(162,728,o),
(50,584,o),
(50,318,cs),
(50,84,o),
(129,-14,o),
(249,-14,cs)
);
}
);
width = 690;
}
);
metricLeft = "te-canadian";
metricRight = "te-canadian";
note = uni160F;
unicode = 5647;
},
{
color = 9;
glyphname = "yeCarrier-canadian";
lastChange = "2023-01-13 15:31:04 +0000";
layers = (
{
layerId = "86DE26EB-3058-4E6D-9480-BC9D8886A6AA";
shapes = (
{
closed = 1;
nodes = (
(474,-14,o),
(590,126,o),
(590,347,cs),
(590,597,o),
(464,714,o),
(234,714,cs),
(48,714,l),
(48,580,l),
(237,580,ls),
(371,580,o),
(442,515,o),
(442,343,cs),
(442,193,o),
(398,110,o),
(286,110,cs),
(199,110,o),
(161,157,o),
(161,229,cs),
(161,290,o),
(180,317,o),
(210,317,cs),
(241,317,o),
(259,289,o),
(259,230,cs),
(259,210,o),
(258,197,o),
(257,185,c),
(366,185,l),
(370,202,o),
(372,219,o),
(372,241,cs),
(372,352,o),
(317,434,o),
(210,434,cs),
(102,434,o),
(37,349,o),
(37,227,cs),
(37,91,o),
(124,-14,o),
(286,-14,cs)
);
}
);
width = 635;
}
);
metricRight = "theCarrier-canadian";
note = uni1610;
unicode = 5648;
},
{
color = 9;
glyphname = "yeeCarrier-canadian";
lastChange = "2023-01-13 15:31:04 +0000";
layers = (
{
layerId = "86DE26EB-3058-4E6D-9480-BC9D8886A6AA";
shapes = (
{
closed = 1;
nodes = (
(474,-14,o),
(590,126,o),
(590,347,cs),
(590,597,o),
(464,714,o),
(234,714,cs),
(48,714,l),
(48,580,l),
(237,580,ls),
(371,580,o),
(442,515,o),
(442,343,cs),
(442,193,o),
(398,110,o),
(286,110,cs),
(199,110,o),
(161,157,o),
(161,230,cs),
(161,288,o),
(180,317,o),
(208,317,cs),
(237,317,o),
(255,288,o),
(255,235,cs),
(255,194,l),
(326,194,l),
(326,505,l),
(255,505,l),
(255,326,l),
(269,326,l),
(267,393,o),
(234,434,o),
(175,434,cs),
(97,434,o),
(37,356,o),
(37,228,cs),
(37,91,o),
(124,-14,o),
(285,-14,cs)
);
}
);
width = 635;
}
);
metricRight = "theCarrier-canadian";
metricWidth = "yeCarrier-canadian";
note = uni1611;
unicode = 5649;
},
{
color = 9;
glyphname = "yiCarrier-canadian";
lastChange = "2023-01-13 15:31:04 +0000";
layers = (
{
layerId = "86DE26EB-3058-4E6D-9480-BC9D8886A6AA";
shapes = (
{
closed = 1;
nodes = (
(474,-14,o),
(590,126,o),
(590,347,cs),
(590,597,o),
(464,714,o),
(234,714,cs),
(48,714,l),
(48,580,l),
(237,580,ls),
(371,580,o),
(442,515,o),
(442,343,cs),
(442,193,o),
(398,110,o),
(292,110,cs),
(202,110,o),
(161,159,o),
(161,229,cs),
(161,290,o),
(184,316,o),
(221,317,c),
(177,341,l),
(184,302,o),
(221,269,o),
(268,269,cs),
(321,269,o),
(359,309,o),
(359,358,cs),
(359,408,o),
(321,446,o),
(268,446,cs),
(235,446,o),
(207,430,o),
(191,407,c),
(97,397,o),
(37,326,o),
(37,215,cs),
(37,90,o),
(124,-14,o),
(286,-14,cs)
);
}
);
width = 635;
}
);
metricRight = "theCarrier-canadian";
metricWidth = "yeCarrier-canadian";
note = uni1612;
unicode = 5650;
},
{
color = 9;
glyphname = "yaCarrier-canadian";
lastChange = "2023-01-13 15:31:04 +0000";
layers = (
{
layerId = "86DE26EB-3058-4E6D-9480-BC9D8886A6AA";
shapes = (
{
closed = 1;
nodes = (
(587,0,l),
(587,134,l),
(398,134,ls),
(264,134,o),
(193,199,o),
(193,371,cs),
(193,521,o),
(237,604,o),
(351,604,cs),
(436,604,o),
(474,557,o),
(474,485,cs),
(474,424,o),
(455,397,o),
(425,397,cs),
(394,397,o),
(376,425,o),
(376,484,cs),
(376,504,o),
(377,517,o),
(378,529,c),
(269,529,l),
(265,512,o),
(263,495,o),
(263,473,cs),
(263,362,o),
(318,280,o),
(425,280,cs),
(533,280,o),
(598,365,o),
(598,487,cs),
(598,623,o),
(511,728,o),
(351,728,cs),
(161,728,o),
(45,588,o),
(45,367,cs),
(45,117,o),
(171,0,o),
(401,0,cs)
);
}
);
width = 635;
}
);
metricLeft = "=|theCarrier-canadian";
metricRight = "=|yeCarrier-canadian";
note = uni1613;
unicode = 5651;
},
{
color = 9;
glyphname = "juCarrier-canadian";
lastChange = "2023-01-13 15:28:12 +0000";
layers = (
{
layerId = "86DE26EB-3058-4E6D-9480-BC9D8886A6AA";
shapes = (
{
closed = 1;
nodes = (
(517,-14,o),
(605,90,o),
(605,228,cs),
(605,349,o),
(540,434,o),
(433,434,cs),
(325,434,o),
(270,352,o),
(270,241,cs),
(270,219,o),
(272,202,o),
(276,185,c),
(386,185,l),
(385,197,o),
(383,212,o),
(383,230,cs),
(383,288,o),
(401,317,o),
(432,317,cs),
(462,317,o),
(481,288,o),
(481,230,cs),
(481,156,o),
(443,110,o),
(355,110,cs),
(245,110,o),
(196,181,o),
(196,306,cs),
(196,514,o),
(312,580,o),
(489,580,cs),
(594,580,l),
(594,714,l),
(42,714,l),
(42,585,l),
(275,585,l),
(386,639,l),
(178,639,o),
(50,519,o),
(50,301,cs),
(50,113,o),
(162,-14,o),
(347,-14,cs)
);
}
);
width = 642;
}
);
metricRight = "=|yeCarrier-canadian";
note = uni1614;
unicode = 5652;
},
{
color = 9;
glyphname = "juSayisi-canadian";
lastChange = "2023-01-13 15:28:12 +0000";
layers = (
{
anchors = (
{
name = top_center_can;
pos = (323,714);
}
);
layerId = "86DE26EB-3058-4E6D-9480-BC9D8886A6AA";
shapes = (
{
closed = 1;
nodes = (
(480,-14,o),
(592,113,o),
(592,301,cs),
(592,519,o),
(464,639,o),
(257,639,c),
(367,585,l),
(600,585,l),
(600,714,l),
(48,714,l),
(48,580,l),
(153,580,ls),
(330,580,o),
(446,514,o),
(446,306,cs),
(446,181,o),
(397,110,o),
(287,110,cs),
(199,110,o),
(161,156,o),
(161,230,cs),
(161,288,o),
(180,317,o),
(210,317,cs),
(241,317,o),
(259,288,o),
(259,230,cs),
(259,212,o),
(258,197,o),
(257,185,c),
(366,185,l),
(370,202,o),
(372,219,o),
(372,241,cs),
(372,352,o),
(317,434,o),
(210,434,cs),
(102,434,o),
(37,349,o),
(37,228,cs),
(37,90,o),
(125,-14,o),
(295,-14,cs)
);
}
);
width = 642;
}
);
metricLeft = "yeCarrier-canadian";
metricRight = "=|juCarrier-canadian";
note = uni1615;
unicode = 5653;
},
{
color = 9;
glyphname = "joCarrier-canadian";
lastChange = "2023-01-13 15:28:12 +0000";
layers = (
{
layerId = "86DE26EB-3058-4E6D-9480-BC9D8886A6AA";
shapes = (
{
closed = 1;
nodes = (
(600,0,l),
(600,129,l),
(367,129,l),
(257,75,l),
(464,75,o),
(592,195,o),
(592,413,cs),
(592,601,o),
(480,728,o),
(295,728,cs),
(125,728,o),
(37,624,o),
(37,486,cs),
(37,365,o),
(102,280,o),
(210,280,cs),
(317,280,o),
(372,362,o),
(372,473,cs),
(372,495,o),
(370,512,o),
(366,529,c),
(257,529,l),
(258,517,o),
(259,502,o),
(259,484,cs),
(259,426,o),
(241,397,o),
(210,397,cs),
(180,397,o),
(161,426,o),
(161,484,cs),
(161,558,o),
(199,604,o),
(287,604,cs),
(397,604,o),
(446,533,o),
(446,408,cs),
(446,200,o),
(330,134,o),
(153,134,cs),
(48,134,l),
(48,0,l)
);
}
);
width = 642;
}
);
metricLeft = "yeCarrier-canadian";
metricRight = "=|juCarrier-canadian";
note = uni1616;
unicode = 5654;
},
{
color = 9;
glyphname = "jeCarrier-canadian";
lastChange = "2023-01-13 15:28:12 +0000";
layers = (
{
layerId = "86DE26EB-3058-4E6D-9480-BC9D8886A6AA";
shapes = (
{
closed = 1;
nodes = (
(564,-14,o),
(643,84,o),
(643,318,cs),
(643,585,o),
(532,728,o),
(381,728,cs),
(257,728,o),
(181,640,o),
(172,466,c),
(199,470,l),
(199,714,l),
(53,714,l),
(53,0,l),
(200,0,l),
(200,294,ls),
(200,521,o),
(263,593,o),
(355,593,cs),
(442,593,o),
(503,513,o),
(503,315,cs),
(503,144,o),
(479,103,o),
(441,103,cs),
(411,103,o),
(392,132,o),
(392,198,cs),
(392,266,o),
(414,294,o),
(448,294,cs),
(455,294,o),
(460,293,o),
(465,292,c),
(465,405,l),
(455,409,o),
(442,411,o),
(430,411,cs),
(337,411,o),
(269,335,o),
(269,205,cs),
(269,69,o),
(337,-14,o),
(444,-14,cs)
);
}
);
width = 693;
}
);
metricLeft = "nunavuth-canadian";
metricRight = "te-canadian";
note = uni1617;
unicode = 5655;
},
{
color = 9;
glyphname = "jeeCarrier-canadian";
lastChange = "2023-01-13 15:28:12 +0000";
layers = (
{
layerId = "86DE26EB-3058-4E6D-9480-BC9D8886A6AA";
shapes = (
{
closed = 1;
nodes = (
(563,-14,o),
(643,85,o),
(643,318,cs),
(643,585,o),
(532,728,o),
(381,728,cs),
(278,728,o),
(208,669,o),
(181,551,c),
(199,534,l),
(199,714,l),
(53,714,l),
(53,0,l),
(200,0,l),
(200,294,ls),
(200,521,o),
(263,593,o),
(355,593,cs),
(442,593,o),
(503,513,o),
(503,315,cs),
(503,154,o),
(473,103,o),
(415,103,cs),
(366,103,o),
(336,143,o),
(336,211,cs),
(336,262,o),
(349,297,o),
(373,314,c),
(373,238,l),
(442,238,l),
(442,465,l),
(373,465,l),
(373,388,l),
(314,366,o),
(269,301,o),
(269,198,cs),
(269,67,o),
(335,-14,o),
(443,-14,cs)
);
}
);
width = 693;
}
);
metricLeft = "nunavuth-canadian";
metricRight = "jeCarrier-canadian";
note = uni1618;
unicode = 5656;
},
{
color = 9;
glyphname = "jiCarrier-canadian";
lastChange = "2023-01-13 15:28:12 +0000";
layers = (
{
layerId = "86DE26EB-3058-4E6D-9480-BC9D8886A6AA";
shapes = (
{
closed = 1;
nodes = (
(563,-14,o),
(643,85,o),
(643,318,cs),
(643,585,o),
(532,728,o),
(381,728,cs),
(278,728,o),
(208,669,o),
(181,551,c),
(199,534,l),
(199,714,l),
(53,714,l),
(53,0,l),
(200,0,l),
(200,294,ls),
(200,521,o),
(263,593,o),
(355,593,cs),
(442,593,o),
(503,513,o),
(503,315,cs),
(503,154,o),
(473,103,o),
(415,103,cs),
(366,103,o),
(336,143,o),
(336,211,cs),
(336,241,o),
(342,261,o),
(352,274,c),
(360,268,o),
(371,264,o),
(383,264,cs),
(430,264,o),
(464,303,o),
(464,352,cs),
(464,401,o),
(430,439,o),
(383,439,cs),
(318,439,o),
(289,374,o),
(305,325,c),
(283,296,o),
(269,254,o),
(269,198,cs),
(269,67,o),
(335,-14,o),
(443,-14,cs)
);
}
);
width = 693;
}
);
metricLeft = "nunavuth-canadian";
metricRight = "jeCarrier-canadian";
note = uni1619;
unicode = 5657;
},
{
color = 9;
glyphname = "jiSayisi-canadian";
lastChange = "2023-01-13 15:28:12 +0000";
layers = (
{
layerId = "86DE26EB-3058-4E6D-9480-BC9D8886A6AA";
shapes = (
{
closed = 1;
nodes = (
(532,-14,o),
(643,129,o),
(643,396,cs),
(643,630,o),
(564,728,o),
(444,728,cs),
(337,728,o),
(269,645,o),
(269,509,cs),
(269,379,o),
(337,303,o),
(430,303,cs),
(442,303,o),
(455,305,o),
(465,309,c),
(465,422,l),
(460,421,o),
(455,420,o),
(448,420,cs),
(414,420,o),
(392,448,o),
(392,516,cs),
(392,582,o),
(410,611,o),
(441,611,cs),
(479,611,o),
(503,570,o),
(503,399,cs),
(503,201,o),
(442,121,o),
(355,121,cs),
(263,121,o),
(200,193,o),
(200,420,cs),
(200,714,l),
(53,714,l),
(53,0,l),
(199,0,l),
(199,244,l),
(172,248,l),
(181,74,o),
(257,-14,o),
(381,-14,cs)
);
}
);
width = 693;
}
);
metricLeft = "nunavuth-canadian";
metricRight = "jeCarrier-canadian";
note = uni161A;
unicode = 5658;
},
{
color = 9;
glyphname = "jaCarrier-canadian";
lastChange = "2023-01-13 15:28:12 +0000";
layers = (
{
anchors = (
{
name = top_center_can;
pos = (339,714);
}
);
layerId = "86DE26EB-3058-4E6D-9480-BC9D8886A6AA";
shapes = (
{
closed = 1;
nodes = (
(436,-14,o),
(512,74,o),
(522,248,c),
(494,244,l),
(494,0,l),
(640,0,l),
(640,714,l),
(493,714,l),
(493,420,ls),
(493,193,o),
(430,121,o),
(338,121,cs),
(251,121,o),
(190,201,o),
(190,399,cs),
(190,570,o),
(214,611,o),
(252,611,cs),
(283,611,o),
(301,582,o),
(301,516,cs),
(301,448,o),
(279,420,o),
(245,420,cs),
(238,420,o),
(233,421,o),
(228,422,c),
(228,309,l),
(238,305,o),
(251,303,o),
(263,303,cs),
(357,303,o),
(424,379,o),
(424,509,cs),
(424,645,o),
(356,728,o),
(249,728,cs),
(129,728,o),
(50,630,o),
(50,396,cs),
(50,129,o),
(161,-14,o),
(312,-14,cs)
);
}
);
width = 693;
}
);
metricLeft = "=|jeCarrier-canadian";
metricRight = "nunavuth-canadian";
note = uni161B;
unicode = 5659;
},
{
color = 9;
glyphname = "jjuCarrier-canadian";
lastChange = "2023-01-13 15:28:12 +0000";
layers = (
{
layerId = "86DE26EB-3058-4E6D-9480-BC9D8886A6AA";
shapes = (
{
closed = 1;
nodes = (
(514,-14,o),
(601,91,o),
(601,227,cs),
(601,349,o),
(536,434,o),
(429,434,cs),
(321,434,o),
(265,352,o),
(265,241,cs),
(265,220,o),
(267,202,o),
(271,185,c),
(381,185,l),
(380,197,o),
(379,213,o),
(379,230,cs),
(379,287,o),
(397,317,o),
(427,317,cs),
(457,317,o),
(476,287,o),
(476,229,cs),
(476,155,o),
(437,107,o),
(352,107,cs),
(242,107,o),
(195,179,o),
(195,312,cs),
(195,503,o),
(301,580,o),
(471,580,cs),
(590,580,l),
(590,714,l),
(459,714,ls),
(352,714,o),
(262,686,o),
(195,635,c),
(104,728,l),
(7,635,l),
(105,537,l),
(68,477,o),
(49,403,o),
(49,318,cs),
(49,115,o),
(164,-14,o),
(346,-14,cs)
);
}
);
width = 638;
}
);
metricRight = "=|yeCarrier-canadian";
note = uni161C;
unicode = 5660;
},
{
color = 9;
glyphname = "jjoCarrier-canadian";
lastChange = "2023-01-13 15:28:12 +0000";
layers = (
{
layerId = "86DE26EB-3058-4E6D-9480-BC9D8886A6AA";
shapes = (
{
closed = 1;
nodes = (
(631,79,l),
(534,177,l),
(570,237,o),
(589,311,o),
(589,396,cs),
(589,599,o),
(475,728,o),
(293,728,cs),
(126,728,o),
(37,623,o),
(37,487,cs),
(37,365,o),
(102,280,o),
(210,280,cs),
(318,280,o),
(373,362,o),
(373,473,cs),
(373,494,o),
(371,512,o),
(367,529,c),
(257,529,l),
(258,517,o),
(260,501,o),
(260,484,cs),
(260,427,o),
(241,397,o),
(211,397,cs),
(181,397,o),
(162,427,o),
(162,485,cs),
(162,559,o),
(200,607,o),
(287,607,cs),
(396,607,o),
(444,535,o),
(444,402,cs),
(444,211,o),
(337,134,o),
(167,134,cs),
(48,134,l),
(48,0,l),
(179,0,ls),
(287,0,o),
(376,28,o),
(443,79,c),
(535,-14,l)
);
}
);
width = 638;
}
);
metricLeft = "yeCarrier-canadian";
metricRight = "=|jjuCarrier-canadian";
note = uni161D;
unicode = 5661;
},
{
color = 9;
glyphname = "jjeCarrier-canadian";
lastChange = "2023-01-13 15:31:04 +0000";
layers = (
{
layerId = "86DE26EB-3058-4E6D-9480-BC9D8886A6AA";
shapes = (
{
closed = 1;
nodes = (
(573,-14,o),
(651,84,o),
(651,318,cs),
(651,584,o),
(548,728,o),
(358,728,cs),
(284,728,o),
(218,704,o),
(168,657,c),
(90,728,l),
(1,628,l),
(93,545,l),
(73,496,o),
(62,437,o),
(62,367,cs),
(62,0,l),
(209,0,l),
(209,372,ls),
(209,521,o),
(260,593,o),
(355,593,cs),
(451,593,o),
(512,523,o),
(512,313,cs),
(512,144,o),
(488,103,o),
(450,103,cs),
(419,103,o),
(401,132,o),
(401,198,cs),
(401,266,o),
(423,294,o),
(456,294,cs),
(464,294,o),
(469,293,o),
(474,292,c),
(474,405,l),
(464,409,o),
(451,411,o),
(438,411,cs),
(345,411,o),
(277,335,o),
(277,205,cs),
(277,69,o),
(345,-14,o),
(453,-14,cs)
);
}
);
width = 701;
}
);
metricRight = "jeCarrier-canadian";
note = uni161E;
unicode = 5662;
},
{
color = 9;
glyphname = "jjeeCarrier-canadian";
lastChange = "2023-01-13 15:31:04 +0000";
layers = (
{
layerId = "86DE26EB-3058-4E6D-9480-BC9D8886A6AA";
shapes = (
{
closed = 1;
nodes = (
(571,-14,o),
(651,85,o),
(651,318,cs),
(651,584,o),
(548,728,o),
(358,728,cs),
(284,728,o),
(218,704,o),
(168,657,c),
(90,728,l),
(1,628,l),
(93,545,l),
(73,496,o),
(62,437,o),
(62,367,cs),
(62,0,l),
(209,0,l),
(209,372,ls),
(209,521,o),
(260,593,o),
(354,593,cs),
(451,593,o),
(512,523,o),
(512,313,cs),
(512,154,o),
(482,103,o),
(424,103,cs),
(375,103,o),
(345,143,o),
(345,211,cs),
(345,263,o),
(358,296,o),
(381,313,c),
(381,238,l),
(450,238,l),
(450,464,l),
(381,464,l),
(381,388,l),
(323,367,o),
(277,300,o),
(277,198,cs),
(277,67,o),
(344,-14,o),
(452,-14,cs)
);
}
);
width = 701;
}
);
metricLeft = "jjeCarrier-canadian";
metricRight = "jeCarrier-canadian";
note = uni161F;
unicode = 5663;
},
{
color = 9;
glyphname = "jjiCarrier-canadian";
lastChange = "2023-01-13 15:31:04 +0000";
layers = (
{
layerId = "86DE26EB-3058-4E6D-9480-BC9D8886A6AA";
shapes = (
{
closed = 1;
nodes = (
(571,-14,o),
(651,85,o),
(651,318,cs),
(651,584,o),
(548,728,o),
(358,728,cs),
(284,728,o),
(218,704,o),
(168,657,c),
(90,728,l),
(1,628,l),
(93,545,l),
(73,496,o),
(62,437,o),
(62,367,cs),
(62,0,l),
(209,0,l),
(209,372,ls),
(209,521,o),
(260,593,o),
(354,593,cs),
(451,593,o),
(512,523,o),
(512,313,cs),
(512,154,o),
(482,103,o),
(424,103,cs),
(375,103,o),
(345,143,o),
(345,211,cs),
(345,242,o),
(351,262,o),
(361,275,c),
(370,268,o),
(382,264,o),
(394,264,cs),
(442,264,o),
(476,303,o),
(476,352,cs),
(476,401,o),
(442,439,o),
(394,439,cs),
(334,439,o),
(302,378,o),
(316,328,c),
(293,299,o),
(277,256,o),
(277,198,cs),
(277,67,o),
(344,-14,o),
(452,-14,cs)
);
}
);
width = 701;
}
);
metricLeft = "jjeCarrier-canadian";
metricRight = "jeCarrier-canadian";
note = uni1620;
unicode = 5664;
},
{
color = 9;
glyphname = "jjaCarrier-canadian";
lastChange = "2023-01-13 15:28:12 +0000";
layers = (
{
layerId = "86DE26EB-3058-4E6D-9480-BC9D8886A6AA";
shapes = (
{
closed = 1;
nodes = (
(418,-14,o),
(483,10,o),
(533,57,c),
(612,-14,l),
(701,86,l),
(609,169,l),
(629,218,o),
(640,277,o),
(640,347,cs),
(640,714,l),
(493,714,l),
(493,342,ls),
(493,193,o),
(442,121,o),
(347,121,cs),
(251,121,o),
(190,191,o),
(190,401,cs),
(190,570,o),
(214,611,o),
(252,611,cs),
(283,611,o),
(301,582,o),
(301,516,cs),
(301,448,o),
(279,420,o),
(246,420,cs),
(238,420,o),
(233,421,o),
(228,422,c),
(228,309,l),
(238,305,o),
(251,303,o),
(263,303,cs),
(357,303,o),
(424,379,o),
(424,509,cs),
(424,645,o),
(356,728,o),
(249,728,cs),
(129,728,o),
(50,630,o),
(50,396,cs),
(50,130,o),
(154,-14,o),
(344,-14,cs)
);
}
);
width = 702;
}
);
metricLeft = "=|jeCarrier-canadian";
metricRight = "=|jjeCarrier-canadian";
note = uni1621;
unicode = 5665;
},
{
color = 9;
glyphname = "luCarrier-canadian";
lastChange = "2023-01-13 15:31:04 +0000";
layers = (
{
layerId = "86DE26EB-3058-4E6D-9480-BC9D8886A6AA";
shapes = (
{
closed = 1;
nodes = (
(495,-14,o),
(592,86,o),
(592,281,cs),
(592,714,l),
(445,714,l),
(445,283,ls),
(445,170,o),
(400,121,o),
(330,121,cs),
(241,121,o),
(200,190,o),
(200,330,cs),
(200,480,o),
(241,575,o),
(341,597,c),
(341,714,l),
(45,714,l),
(45,593,l),
(203,593,l),
(304,639,l),
(140,618,o),
(52,517,o),
(52,308,cs),
(52,107,o),
(148,-14,o),
(325,-14,cs)
);
}
);
width = 642;
}
);
metricRight = "te-canadian";
note = uni1622;
unicode = 5666;
},
{
color = 9;
glyphname = "loCarrier-canadian";
lastChange = "2023-01-13 15:28:12 +0000";
layers = (
{
layerId = "86DE26EB-3058-4E6D-9480-BC9D8886A6AA";
shapes = (
{
closed = 1;
nodes = (
(198,0,l),
(198,431,ls),
(198,544,o),
(242,593,o),
(314,593,cs),
(402,593,o),
(443,524,o),
(443,384,cs),
(443,234,o),
(402,139,o),
(302,117,c),
(302,0,l),
(598,0,l),
(598,121,l),
(440,121,l),
(339,75,l),
(502,96,o),
(590,197,o),
(590,406,cs),
(590,607,o),
(495,728,o),
(318,728,cs),
(147,728,o),
(50,628,o),
(50,433,cs),
(50,0,l)
);
}
);
width = 643;
}
);
metricLeft = "te-canadian";
metricRight = "=|luCarrier-canadian";
note = uni1623;
unicode = 5667;
},
{
color = 9;
glyphname = "leCarrier-canadian";
lastChange = "2023-01-13 15:31:04 +0000";
layers = (
{
anchors = (
{
name = middle_center_can;
pos = (308,358);
}
);
layerId = "86DE26EB-3058-4E6D-9480-BC9D8886A6AA";
shapes = (
{
closed = 1;
nodes = (
(248,0,ls),
(467,0,o),
(592,120,o),
(592,369,cs),
(592,619,o),
(471,728,o),
(352,728,cs),
(249,728,o),
(189,660,o),
(169,567,c),
(182,573,l),
(182,714,l),
(50,714,l),
(50,389,l),
(175,389,l),
(178,529,o),
(236,593,o),
(310,593,cs),
(382,593,o),
(444,535,o),
(444,367,cs),
(444,201,o),
(379,134,o),
(249,134,cs),
(50,134,l),
(50,0,l)
);
}
);
width = 637;
}
);
metricRight = "theCarrier-canadian";
note = uni1624;
unicode = 5668;
},
{
color = 9;
glyphname = "laCarrier-canadian";
lastChange = "2023-01-13 15:31:04 +0000";
layers = (
{
layerId = "86DE26EB-3058-4E6D-9480-BC9D8886A6AA";
shapes = (
{
closed = 1;
nodes = (
(587,0,l),
(587,134,l),
(388,134,ls),
(258,134,o),
(193,201,o),
(193,367,cs),
(193,535,o),
(255,593,o),
(327,593,cs),
(401,593,o),
(459,529,o),
(462,389,c),
(587,389,l),
(587,714,l),
(455,714,l),
(455,573,l),
(468,567,l),
(448,660,o),
(388,728,o),
(285,728,cs),
(166,728,o),
(45,619,o),
(45,369,cs),
(45,120,o),
(170,0,o),
(389,0,cs)
);
}
);
width = 637;
}
);
metricLeft = "=|theCarrier-canadian";
metricRight = "=|leCarrier-canadian";
note = uni1627;
unicode = 5671;
},
{
color = 1;
glyphname = "dluCarrier-canadian";
lastChange = "2023-01-13 15:28:12 +0000";
layers = (
{
layerId = "86DE26EB-3058-4E6D-9480-BC9D8886A6AA";
shapes = (
{
closed = 1;
nodes = (
(495,-14,o),
(590,107,o),
(590,308,cs),
(590,483,o),
(530,582,o),
(418,620,c),
(389,603,l),
(576,603,l),
(576,522,l),
(682,522,l),
(682,794,l),
(576,794,l),
(576,714,l),
(302,714,l),
(302,596,l),
(402,575,o),
(443,480,o),
(443,330,cs),
(443,190,o),
(402,121,o),
(316,121,cs),
(242,121,o),
(198,170,o),
(198,283,cs),
(198,714,l),
(50,714,l),
(50,281,ls),
(50,86,o),
(147,-14,o),
(318,-14,cs)
);
}
);
width = 708;
}
);
metricLeft = "te-canadian";
note = uni1628;
unicode = 5672;
},
{
color = 9;
glyphname = "dloCarrier-canadian";
lastChange = "2023-01-13 15:28:12 +0000";
layers = (
{
layerId = "86DE26EB-3058-4E6D-9480-BC9D8886A6AA";
shapes = (
{
closed = 1;
nodes = (
(682,-80,l),
(682,192,l),
(576,192,l),
(576,111,l),
(389,111,l),
(418,94,l),
(530,132,o),
(590,231,o),
(590,406,cs),
(590,607,o),
(495,728,o),
(319,728,cs),
(146,728,o),
(50,628,o),
(50,433,cs),
(50,0,l),
(198,0,l),
(198,431,ls),
(198,544,o),
(242,593,o),
(316,593,cs),
(402,593,o),
(443,524,o),
(443,384,cs),
(443,234,o),
(402,139,o),
(302,118,c),
(302,0,l),
(576,0,l),
(576,-80,l)
);
}
);
width = 708;
}
);
metricLeft = "te-canadian";
metricRight = "dluCarrier-canadian";
note = uni1629;
unicode = 5673;
},
{
color = 9;
glyphname = "dleCarrier-canadian";
lastChange = "2023-01-13 15:31:04 +0000";
layers = (
{
anchors = (
{
name = middle_center_can;
pos = (325,358);
}
);
layerId = "86DE26EB-3058-4E6D-9480-BC9D8886A6AA";
shapes = (
{
closed = 1;
nodes = (
(265,0,ls),
(483,0,o),
(608,120,o),
(608,369,cs),
(608,619,o),
(487,728,o),
(368,728,cs),
(269,728,o),
(185,665,o),
(156,521,c),
(173,513,l),
(173,721,l),
(240,721,l),
(240,824,l),
(-1,824,l),
(-1,721,l),
(67,721,l),
(67,389,l),
(192,389,l),
(195,529,o),
(253,593,o),
(326,593,cs),
(398,593,o),
(461,535,o),
(461,367,cs),
(461,201,o),
(395,134,o),
(265,134,cs),
(67,134,l),
(67,0,l)
);
}
);
width = 653;
}
);
metricRight = "theCarrier-canadian";
note = uni162A;
unicode = 5674;
},
{
color = 9;
glyphname = "dlaCarrier-canadian";
lastChange = "2023-01-13 15:31:04 +0000";
layers = (
{
layerId = "86DE26EB-3058-4E6D-9480-BC9D8886A6AA";
shapes = (
{
closed = 1;
nodes = (
(587,0,l),
(587,134,l),
(388,134,ls),
(258,134,o),
(193,201,o),
(193,367,cs),
(193,535,o),
(256,593,o),
(327,593,cs),
(400,593,o),
(459,529,o),
(462,389,c),
(587,389,l),
(587,721,l),
(654,721,l),
(654,824,l),
(413,824,l),
(413,721,l),
(480,721,l),
(480,513,l),
(497,521,l),
(469,665,o),
(384,728,o),
(285,728,cs),
(166,728,o),
(45,619,o),
(45,369,cs),
(45,120,o),
(170,0,o),
(389,0,cs)
);
}
);
width = 653;
}
);
metricLeft = "=|theCarrier-canadian";
metricRight = "=|dleCarrier-canadian";
note = uni162D;
unicode = 5677;
},
{
color = 9;
glyphname = "lhuCarrier-canadian";
lastChange = "2023-01-13 15:28:12 +0000";
layers = (
{
layerId = "86DE26EB-3058-4E6D-9480-BC9D8886A6AA";
shapes = (
{
closed = 1;
nodes = (
(504,-14,o),
(601,111,o),
(601,305,cs),
(601,510,o),
(513,617,o),
(385,639,c),
(451,592,l),
(609,592,l),
(609,714,l),
(374,714,l),
(374,597,l),
(424,551,o),
(454,462,o),
(454,336,cs),
(454,185,o),
(411,121,o),
(327,121,cs),
(243,121,o),
(200,185,o),
(200,336,cs),
(200,462,o),
(230,551,o),
(280,597,c),
(280,714,l),
(45,714,l),
(45,592,l),
(202,592,l),
(269,639,l),
(141,617,o),
(53,510,o),
(53,305,cs),
(53,111,o),
(150,-14,o),
(327,-14,cs)
);
}
);
width = 654;
}
);
metricLeft = "luCarrier-canadian";
metricRight = "=|";
note = uni162E;
unicode = 5678;
},
{
color = 9;
glyphname = "lhoCarrier-canadian";
lastChange = "2023-01-13 15:28:12 +0000";
layers = (
{
layerId = "86DE26EB-3058-4E6D-9480-BC9D8886A6AA";
shapes = (
{
closed = 1;
nodes = (
(280,0,l),
(280,117,l),
(230,163,o),
(200,252,o),
(200,378,cs),
(200,529,o),
(242,593,o),
(327,593,cs),
(411,593,o),
(453,529,o),
(453,378,cs),
(453,252,o),
(424,163,o),
(374,117,c),
(374,0,l),
(609,0,l),
(609,122,l),
(451,122,l),
(385,75,l),
(513,97,o),
(601,204,o),
(601,409,cs),
(601,603,o),
(504,728,o),
(327,728,cs),
(149,728,o),
(53,603,o),
(53,409,cs),
(53,204,o),
(141,97,o),
(269,75,c),
(203,122,l),
(45,122,l),
(45,0,l)
);
}
);
width = 654;
}
);
metricLeft = "luCarrier-canadian";
metricRight = "=|";
note = uni162F;
unicode = 5679;
},
{
color = 9;
glyphname = "lheCarrier-canadian";
lastChange = "2023-01-13 15:28:12 +0000";
layers = (
{
anchors = (
{
name = middle_center_can;
pos = (320,357);
}
);
layerId = "86DE26EB-3058-4E6D-9480-BC9D8886A6AA";
shapes = (
{
closed = 1;
nodes = (
(486,-14,o),
(609,95,o),
(609,357,cs),
(609,619,o),
(486,728,o),
(364,728,cs),
(260,728,o),
(198,662,o),
(178,572,c),
(185,572,l),
(185,714,l),
(53,714,l),
(53,424,l),
(178,424,l),
(194,519,o),
(237,593,o),
(323,593,cs),
(396,593,o),
(462,536,o),
(462,357,cs),
(462,178,o),
(396,121,o),
(323,121,cs),
(237,121,o),
(194,195,o),
(178,290,c),
(53,290,l),
(53,0,l),
(185,0,l),
(185,142,l),
(178,142,l),
(198,52,o),
(260,-14,o),
(364,-14,cs)
);
}
);
width = 654;
}
);
metricLeft = "nunavuth-canadian";
metricRight = "theCarrier-canadian";
note = uni1630;
unicode = 5680;
},
{
color = 9;
glyphname = "lhaCarrier-canadian";
lastChange = "2023-01-13 15:31:04 +0000";
layers = (
{
layerId = "86DE26EB-3058-4E6D-9480-BC9D8886A6AA";
shapes = (
{
closed = 1;
nodes = (
(395,-14,o),
(456,52,o),
(476,142,c),
(470,142,l),
(470,0,l),
(602,0,l),
(602,290,l),
(477,290,l),
(460,195,o),
(418,121,o),
(332,121,cs),
(259,121,o),
(193,178,o),
(193,357,cs),
(193,536,o),
(258,593,o),
(332,593,cs),
(418,593,o),
(460,519,o),
(477,424,c),
(602,424,l),
(602,714,l),
(470,714,l),
(470,572,l),
(476,572,l),
(456,662,o),
(395,728,o),
(290,728,cs),
(168,728,o),
(45,619,o),
(45,357,cs),
(45,95,o),
(168,-14,o),
(290,-14,cs)
);
}
);
width = 655;
}
);
metricLeft = "=|theCarrier-canadian";
metricRight = "nunavuth-canadian";
note = uni1633;
unicode = 5683;
},
{
color = 9;
glyphname = "tlhuCarrier-canadian";
lastChange = "2023-01-13 15:28:12 +0000";
layers = (
{
layerId = "86DE26EB-3058-4E6D-9480-BC9D8886A6AA";
shapes = (
{
closed = 1;
nodes = (
(504,-14,o),
(601,111,o),
(601,305,cs),
(601,474,o),
(541,577,o),
(450,621,c),
(415,603,l),
(586,603,l),
(586,522,l),
(692,522,l),
(692,794,l),
(586,794,l),
(586,714,l),
(374,714,l),
(374,597,l),
(425,551,o),
(455,462,o),
(455,336,cs),
(455,185,o),
(412,121,o),
(327,121,cs),
(242,121,o),
(199,185,o),
(199,336,cs),
(199,462,o),
(229,551,o),
(280,597,c),
(280,714,l),
(45,714,l),
(45,592,l),
(224,592,l),
(187,612,l),
(105,565,o),
(53,465,o),
(53,305,cs),
(53,111,o),
(150,-14,o),
(327,-14,cs)
);
}
);
width = 714;
}
);
metricLeft = "lhuCarrier-canadian";
note = uni1634;
unicode = 5684;
},
{
color = 9;
glyphname = "tlhoCarrier-canadian";
lastChange = "2023-01-13 15:31:04 +0000";
layers = (
{
layerId = "86DE26EB-3058-4E6D-9480-BC9D8886A6AA";
shapes = (
{
closed = 1;
nodes = (
(128,-80,l),
(128,0,l),
(341,0,l),
(341,117,l),
(289,163,o),
(260,252,o),
(260,378,cs),
(260,529,o),
(302,593,o),
(388,593,cs),
(472,593,o),
(515,529,o),
(515,378,cs),
(515,252,o),
(485,163,o),
(434,117,c),
(434,0,l),
(670,0,l),
(670,122,l),
(490,122,l),
(527,102,l),
(610,149,o),
(661,249,o),
(661,409,cs),
(661,603,o),
(564,728,o),
(388,728,cs),
(210,728,o),
(114,603,o),
(114,409,cs),
(114,240,o),
(173,137,o),
(265,93,c),
(299,111,l),
(128,111,l),
(128,192,l),
(22,192,l),
(22,-80,l)
);
}
);
width = 715;
}
);
metricLeft = "=|tlhuCarrier-canadian";
metricRight = "lhuCarrier-canadian";
note = uni1635;
unicode = 5685;
},
{
color = 9;
glyphname = "tlheCarrier-canadian";
lastChange = "2023-01-13 15:31:04 +0000";
layers = (
{
anchors = (
{
name = middle_center_can;
pos = (334,357);
}
);
layerId = "86DE26EB-3058-4E6D-9480-BC9D8886A6AA";
shapes = (
{
closed = 1;
nodes = (
(500,-14,o),
(623,95,o),
(623,357,cs),
(623,619,o),
(500,728,o),
(378,728,cs),
(271,728,o),
(187,666,o),
(156,524,c),
(173,515,l),
(173,721,l),
(241,721,l),
(241,824,l),
(-1,824,l),
(-1,721,l),
(67,721,l),
(67,424,l),
(192,424,l),
(208,519,o),
(250,593,o),
(336,593,cs),
(410,593,o),
(476,543,o),
(476,357,cs),
(476,178,o),
(410,121,o),
(336,121,cs),
(250,121,o),
(208,195,o),
(192,290,c),
(67,290,l),
(67,0,l),
(199,0,l),
(199,182,l),
(188,161,l),
(203,62,o),
(267,-14,o),
(378,-14,cs)
);
}
);
width = 668;
}
);
metricLeft = "dleCarrier-canadian";
metricRight = "theCarrier-canadian";
note = uni1636;
unicode = 5686;
},
{
color = 9;
glyphname = "tlhaCarrier-canadian";
lastChange = "2023-01-13 15:31:04 +0000";
layers = (
{
layerId = "86DE26EB-3058-4E6D-9480-BC9D8886A6AA";
shapes = (
{
closed = 1;
nodes = (
(402,-14,o),
(465,62,o),
(480,161,c),
(470,183,l),
(470,0,l),
(602,0,l),
(602,290,l),
(477,290,l),
(460,195,o),
(418,121,o),
(332,121,cs),
(259,121,o),
(193,178,o),
(193,357,cs),
(193,543,o),
(258,593,o),
(332,593,cs),
(418,593,o),
(460,519,o),
(477,424,c),
(602,424,l),
(602,721,l),
(669,721,l),
(669,824,l),
(427,824,l),
(427,721,l),
(495,721,l),
(495,515,l),
(512,524,l),
(482,666,o),
(397,728,o),
(290,728,cs),
(168,728,o),
(45,619,o),
(45,357,cs),
(45,95,o),
(168,-14,o),
(290,-14,cs)
);
}
);
width = 668;
}
);
metricLeft = "=|theCarrier-canadian";
metricRight = "=|dleCarrier-canadian";
note = uni1639;
unicode = 5689;
},
{
color = 9;
glyphname = "tluCarrier-canadian";
lastChange = "2023-01-13 15:28:12 +0000";
layers = (
{
layerId = "86DE26EB-3058-4E6D-9480-BC9D8886A6AA";
shapes = (
{
closed = 1;
nodes = (
(326,-14,o),
(380,22,o),
(405,103,c),
(360,103,l),
(385,22,o),
(439,-14,o),
(510,-14,cs),
(641,-14,o),
(711,82,o),
(711,269,cs),
(711,467,o),
(659,576,o),
(554,621,c),
(521,603,l),
(697,603,l),
(697,522,l),
(803,522,l),
(803,794,l),
(697,794,l),
(697,714,l),
(429,714,l),
(429,596,l),
(522,591,o),
(564,491,o),
(564,279,cs),
(564,150,o),
(541,119,o),
(504,119,cs),
(470,119,o),
(452,149,o),
(452,211,cs),
(452,319,l),
(313,319,l),
(313,211,ls),
(313,149,o),
(294,119,o),
(261,119,cs),
(223,119,o),
(201,150,o),
(201,279,cs),
(201,491,o),
(243,591,o),
(335,596,c),
(335,714,l),
(46,714,l),
(46,592,l),
(231,592,l),
(195,613,l),
(101,563,o),
(54,458,o),
(54,269,cs),
(54,82,o),
(124,-14,o),
(254,-14,cs)
);
}
);
width = 825;
}
);
metricRight = "tlhuCarrier-canadian";
note = uni163A;
unicode = 5690;
},
{
color = 1;
glyphname = "tloCarrier-canadian";
lastChange = "2023-01-13 15:28:12 +0000";
layers = (
{
layerId = "86DE26EB-3058-4E6D-9480-BC9D8886A6AA";
shapes = (
{
closed = 1;
nodes = (
(803,-80,l),
(803,192,l),
(697,192,l),
(697,111,l),
(521,111,l),
(554,93,l),
(659,138,o),
(711,247,o),
(711,445,cs),
(711,632,o),
(641,728,o),
(510,728,cs),
(439,728,o),
(385,692,o),
(360,611,c),
(405,611,l),
(380,692,o),
(326,728,o),
(254,728,cs),
(124,728,o),
(54,632,o),
(54,445,cs),
(54,256,o),
(101,151,o),
(195,101,c),
(231,122,l),
(46,122,l),
(46,0,l),
(335,0,l),
(335,118,l),
(243,123,o),
(201,223,o),
(201,435,cs),
(201,564,o),
(223,595,o),
(261,595,cs),
(294,595,o),
(313,565,o),
(313,503,cs),
(313,395,l),
(452,395,l),
(452,503,ls),
(452,565,o),
(470,595,o),
(504,595,cs),
(541,595,o),
(564,564,o),
(564,435,cs),
(564,223,o),
(522,123,o),
(429,118,c),
(429,0,l),
(697,0,l),
(697,-80,l)
);
}
);
width = 825;
}
);
metricLeft = "tluCarrier-canadian";
metricRight = "tlhuCarrier-canadian";
note = uni163B;
unicode = 5691;
},
{
color = 9;
glyphname = "tleCarrier-canadian";
lastChange = "2023-01-13 15:31:04 +0000";
layers = (
{
anchors = (
{
name = middle_center_can;
pos = (279,357);
}
);
layerId = "86DE26EB-3058-4E6D-9480-BC9D8886A6AA";
shapes = (
{
closed = 1;
nodes = (
(526,-14,o),
(606,70,o),
(606,188,cs),
(606,286,o),
(556,355,o),
(479,371,c),
(479,343,l),
(556,358,o),
(606,426,o),
(606,526,cs),
(606,644,o),
(526,728,o),
(392,728,cs),
(283,728,o),
(181,668,o),
(158,540,c),
(173,525,l),
(173,721,l),
(240,721,l),
(240,824,l),
(-1,824,l),
(-1,721,l),
(67,721,l),
(67,424,l),
(188,424,l),
(192,534,o),
(243,597,o),
(347,597,cs),
(422,597,o),
(460,562,o),
(460,501,cs),
(460,447,o),
(434,417,o),
(383,417,cs),
(358,417,l),
(358,298,l),
(383,298,ls),
(435,298,o),
(460,267,o),
(460,214,cs),
(460,153,o),
(422,117,o),
(347,117,cs),
(243,117,o),
(192,180,o),
(188,290,c),
(67,290,l),
(67,0,l),
(199,0,l),
(199,156,l),
(177,137,l),
(209,33,o),
(293,-14,o),
(392,-14,cs)
);
}
);
width = 656;
}
);
metricLeft = "dleCarrier-canadian";
metricRight = "geCarrier-canadian";
note = uni163C;
unicode = 5692;
},
{
color = 9;
glyphname = "tlaCarrier-canadian";
lastChange = "2023-01-13 15:31:04 +0000";
layers = (
{
layerId = "86DE26EB-3058-4E6D-9480-BC9D8886A6AA";
shapes = (
{
closed = 1;
nodes = (
(363,-14,o),
(448,33,o),
(479,137,c),
(458,156,l),
(458,0,l),
(590,0,l),
(590,290,l),
(468,290,l),
(465,180,o),
(413,117,o),
(310,117,cs),
(235,117,o),
(196,153,o),
(196,214,cs),
(196,267,o),
(222,298,o),
(274,298,cs),
(300,298,l),
(300,417,l),
(274,417,ls),
(222,417,o),
(196,447,o),
(196,501,cs),
(196,562,o),
(234,597,o),
(309,597,cs),
(413,597,o),
(465,534,o),
(468,424,c),
(590,424,l),
(590,721,l),
(657,721,l),
(657,824,l),
(416,824,l),
(416,721,l),
(484,721,l),
(484,525,l),
(499,540,l),
(476,668,o),
(374,728,o),
(264,728,cs),
(131,728,o),
(50,644,o),
(50,526,cs),
(50,426,o),
(100,358,o),
(177,343,c),
(177,371,l),
(101,355,o),
(50,286,o),
(50,188,cs),
(50,70,o),
(131,-14,o),
(264,-14,cs)
);
}
);
width = 656;
}
);
metricLeft = "=|geCarrier-canadian";
metricRight = "=|dleCarrier-canadian";
note = uni163F;
unicode = 5695;
},
{
color = 9;
glyphname = "zuCarrier-canadian";
lastChange = "2023-01-13 15:31:04 +0000";
layers = (
{
layerId = "86DE26EB-3058-4E6D-9480-BC9D8886A6AA";
shapes = (
{
closed = 1;
nodes = (
(499,-14,o),
(601,80,o),
(601,230,cs),
(601,338,o),
(537,475,o),
(537,538,cs),
(537,568,o),
(551,588,o),
(585,588,cs),
(610,588,l),
(610,714,l),
(548,714,ls),
(443,714,o),
(394,657,o),
(394,565,cs),
(394,476,o),
(454,347,o),
(454,253,cs),
(454,172,o),
(410,121,o),
(327,121,cs),
(244,121,o),
(200,171,o),
(200,253,cs),
(200,347,o),
(260,476,o),
(260,565,cs),
(260,657,o),
(211,714,o),
(106,714,cs),
(44,714,l),
(44,588,l),
(69,588,ls),
(103,588,o),
(118,568,o),
(118,538,cs),
(118,475,o),
(52,338,o),
(52,230,cs),
(52,80,o),
(155,-14,o),
(327,-14,cs)
);
}
);
width = 654;
}
);
metricRight = "=|";
note = uni1640;
unicode = 5696;
},
